<?xml version="1.0" encoding="utf-8"?>
<!-- Generator: Adobe Illustrator 16.0.4, SVG Export Plug-In . SVG Version: 6.00 Build 0)  -->
<!DOCTYPE svg PUBLIC "-//W3C//DTD SVG 1.1//EN" "http://www.w3.org/Graphics/SVG/1.1/DTD/svg11.dtd">
<svg version="1.1" id="Layer_1" xmlns="http://www.w3.org/2000/svg" xmlns:xlink="http://www.w3.org/1999/xlink" x="0px" y="0px"
	 width="263.279px" height="263.28px" viewBox="-0.821 -0.821 263.279 263.28"
	 enable-background="new -0.821 -0.821 263.279 263.28" xml:space="preserve">
<g id="apla">
</g>
<g>
	<path fill="#020202" d="M130.819-0.821c-72.586,0-131.64,59.053-131.64,131.64c0,72.587,59.053,131.641,131.64,131.641
		c72.587,0,131.64-59.054,131.64-131.641C262.459,58.232,203.406-0.821,130.819-0.821z M130.819,254.86
		c-68.396,0-124.04-55.645-124.04-124.041c0-68.396,55.644-124.04,124.04-124.04c68.396,0,124.04,55.644,124.04,124.04
		C254.859,199.215,199.215,254.86,130.819,254.86z"/>
	<path fill="#020202" d="M50.683,178.897h90.739c0.565,0.936,1.223,1.848,1.962,2.722v40.71l16.565-11.35l15.978,11.591v-41.367
		c0.581-0.731,1.116-1.503,1.596-2.306h26.254V72.302H50.683V178.897z M150.983,187.338c5.481,2.433,11.947,2.359,17.344-0.14
		v20.469l-8.252-5.987l-9.092,6.229V187.338z M166.232,179.731c-2.038,1.188-4.374,1.815-6.753,1.815
		c-7.416,0-13.45-6.033-13.45-13.449c0-7.415,6.034-13.447,13.45-13.447c7.415,0,13.448,6.032,13.448,13.447
		C172.927,172.868,170.362,177.326,166.232,179.731z M159.479,147.05c-11.607,0-21.05,9.441-21.05,21.047
		c0,1.05,0.086,2.121,0.257,3.2H58.283V79.902h137.895v91.396h-15.905c0.17-1.072,0.255-2.144,0.255-3.2
		C180.527,156.491,171.085,147.05,159.479,147.05z"/>
	<rect x="74.67" y="95.091" fill="#020202" width="104.599" height="7.6"/>
	<rect x="74.67" y="111.091" fill="#020202" width="104.599" height="7.6"/>
	<rect x="74.67" y="127.091" fill="#020202" width="62.599" height="7.6"/>
</g>
</svg>
