<?xml version="1.0" encoding="utf-8"?>
<!-- Generator: Adobe Illustrator 18.0.0, SVG Export Plug-In . SVG Version: 6.00 Build 0)  -->
<!DOCTYPE svg PUBLIC "-//W3C//DTD SVG 1.1//EN" "http://www.w3.org/Graphics/SVG/1.1/DTD/svg11.dtd">
<svg version="1.1" id="Warstwa_1" xmlns="http://www.w3.org/2000/svg" xmlns:xlink="http://www.w3.org/1999/xlink" x="0px" y="0px"
	 viewBox="0 0 260.7 260.7" enable-background="new 0 0 260.7 260.7" xml:space="preserve">
<g id="apla">
</g>
<g id="Layer_1">
	<g>
		<path fill="#231F20" d="M192.4,189.4H70.8V67.8h121.6V189.4z M75.8,184.4h111.6V72.8H75.8V184.4z"/>
	</g>
	<g>
		<path fill="#231F20" d="M190,188.9c-0.6,0-1.3-0.2-1.8-0.7L71.6,72.7c-1-1-1-2.6,0-3.5s2.6-1,3.5,0l116.6,115.5c1,1,1,2.6,0,3.5
			C191.2,188.7,190.6,188.9,190,188.9z"/>
	</g>
	<g>
		<circle fill="#FFFFFF" cx="189.3" cy="186.7" r="12.4"/>
		<path fill="#231F20" d="M189.3,201.7c-8.2,0-14.9-6.7-14.9-14.9s6.7-14.9,14.9-14.9c8.2,0,14.9,6.7,14.9,14.9
			S197.5,201.7,189.3,201.7z M189.3,176.8c-5.5,0-9.9,4.5-9.9,9.9s4.5,9.9,9.9,9.9c5.5,0,9.9-4.5,9.9-9.9S194.8,176.8,189.3,176.8z"
			/>
	</g>
	<g>
		<circle fill="#FFFFFF" cx="72.9" cy="70.3" r="12.4"/>
		<path fill="#231F20" d="M72.9,85.3c-8.2,0-14.9-6.7-14.9-14.9s6.7-14.9,14.9-14.9c8.2,0,14.9,6.7,14.9,14.9S81.1,85.3,72.9,85.3z
			 M72.9,60.4c-5.5,0-9.9,4.5-9.9,9.9s4.5,9.9,9.9,9.9c5.5,0,9.9-4.5,9.9-9.9S78.4,60.4,72.9,60.4z"/>
	</g>
	<g>
		<path fill="#231F20" d="M73.9,189.4c-0.6,0-1.3-0.2-1.8-0.7c-1-1-1-2.6,0-3.5L188,68.7c1-1,2.6-1,3.5,0c1,1,1,2.6,0,3.5
			L75.7,188.7C75.2,189.2,74.6,189.4,73.9,189.4z"/>
	</g>
	<g>
		<circle fill="#FFFFFF" cx="190.3" cy="69.9" r="12.4"/>
		<path fill="#231F20" d="M190.3,84.9c-8.2,0-14.9-6.7-14.9-14.9S182.1,55,190.3,55c8.2,0,14.9,6.7,14.9,14.9S198.5,84.9,190.3,84.9
			z M190.3,60c-5.5,0-9.9,4.5-9.9,9.9s4.5,9.9,9.9,9.9c5.5,0,9.9-4.5,9.9-9.9S195.8,60,190.3,60z"/>
	</g>
	<g>
		<circle fill="#FFFFFF" cx="73.9" cy="186.7" r="12.4"/>
		<path fill="#231F20" d="M73.9,201.7c-8.2,0-14.9-6.7-14.9-14.9s6.7-14.9,14.9-14.9s14.9,6.7,14.9,14.9S82.2,201.7,73.9,201.7z
			 M73.9,176.8c-5.5,0-9.9,4.5-9.9,9.9s4.5,9.9,9.9,9.9c5.5,0,9.9-4.5,9.9-9.9S79.4,176.8,73.9,176.8z"/>
	</g>
</g>
</svg>
