<?xml version="1.0" encoding="utf-8"?>
<!-- Generator: Adobe Illustrator 16.0.4, SVG Export Plug-In . SVG Version: 6.00 Build 0)  -->
<!DOCTYPE svg PUBLIC "-//W3C//DTD SVG 1.1//EN" "http://www.w3.org/Graphics/SVG/1.1/DTD/svg11.dtd">
<svg version="1.1" id="Layer_1" xmlns="http://www.w3.org/2000/svg" xmlns:xlink="http://www.w3.org/1999/xlink" x="0px" y="0px"
	 width="263.279px" height="263.279px" viewBox="-1.3 -1.3 263.279 263.279" enable-background="new -1.3 -1.3 263.279 263.279"
	 xml:space="preserve">
<g id="apla">
</g>
<path fill="#020202" d="M130.34-1.3C57.754-1.3-1.3,57.754-1.3,130.34c0,72.587,59.053,131.64,131.64,131.64
	c72.587,0,131.64-59.053,131.64-131.64C261.98,57.754,202.927-1.3,130.34-1.3z M130.34,254.38C61.944,254.38,6.3,198.736,6.3,130.34
	C6.3,61.944,61.944,6.3,130.34,6.3c68.396,0,124.04,55.644,124.04,124.04C254.38,198.736,198.736,254.38,130.34,254.38z"/>
<path fill="#020202" d="M130.514,130.23c-0.115-0.045-0.23-0.088-0.348-0.128v0.477L130.514,130.23z"/>
<path fill="#020202" d="M130.514,130.23c-0.115-0.045-0.23-0.088-0.348-0.128v0.477L130.514,130.23z"/>
<path fill="#020202" d="M192.485,171.121V89.059c6.562-2.081,11.332-8.227,11.332-15.468c0-8.948-7.279-16.228-16.227-16.228
	c-6.63,0-12.319,4.009-14.834,9.72H87.924c-2.514-5.711-8.205-9.72-14.834-9.72c-8.947,0-16.227,7.279-16.227,16.228
	c0,7.284,4.825,13.46,11.446,15.506v82.488c-6.621,2.045-11.446,8.223-11.446,15.506c0,8.947,7.279,16.227,16.227,16.227
	c7.268,0,13.434-4.803,15.494-11.4h83.696c2.212,6.336,8.23,10.9,15.311,10.9c8.947,0,16.227-7.279,16.227-16.227
	C203.817,179.348,199.046,173.203,192.485,171.121z M180.426,67.742c1.696-2.076,4.275-3.402,7.164-3.402
	c5.109,0,9.25,4.142,9.25,9.25c0,3.309-1.743,6.204-4.355,7.839c-1.421,0.889-3.095,1.411-4.895,1.411
	c-0.999,0-1.959-0.163-2.86-0.456c-0.456-0.148-0.894-0.334-1.315-0.548c-2.352-1.194-4.118-3.359-4.78-5.97
	c-0.14-0.55-0.229-1.118-0.265-1.703c-0.012-0.19-0.029-0.379-0.029-0.573C178.34,71.371,179.123,69.336,180.426,67.742z
	 M89.278,74.27h82.125c0.104,2.508,0.761,4.874,1.882,6.964l-42.896,43.054L87.427,81.17C88.528,79.095,89.174,76.753,89.278,74.27z
	 M171.556,184.414h-82.49c-0.35-2.071-1.075-4.015-2.131-5.744l43.453-43.613l43.205,43.365
	C172.535,180.225,171.848,182.256,171.556,184.414z M63.84,73.59c0-5.108,4.143-9.25,9.25-9.25c2.89,0,5.469,1.327,7.165,3.402
	c1.302,1.594,2.085,3.629,2.085,5.848c0,0.193-0.017,0.382-0.029,0.573c-0.034,0.557-0.117,1.101-0.245,1.627
	c-0.641,2.622-2.393,4.803-4.735,6.015c-0.406,0.21-0.829,0.389-1.267,0.538c-0.934,0.317-1.932,0.498-2.974,0.498
	c-1.752,0-3.384-0.496-4.781-1.343C65.634,79.876,63.84,76.946,63.84,73.59z M80.97,191.916c-1.627,2.65-4.542,4.424-7.88,4.424
	c-5.107,0-9.25-4.143-9.25-9.25c0-3.357,1.794-6.287,4.469-7.908c1.396-0.846,3.029-1.342,4.781-1.342
	c1.042,0,2.04,0.18,2.974,0.496c0.117,0.041,0.232,0.084,0.348,0.129c2.468,0.949,4.419,2.924,5.342,5.406
	c0.194,0.521,0.343,1.062,0.44,1.625c0.09,0.518,0.146,1.049,0.146,1.594C82.34,188.862,81.833,190.51,80.97,191.916z
	 M81.573,173.283c-1.664-1.027-3.52-1.764-5.509-2.135V89.531c2.316-0.431,4.458-1.353,6.317-2.658l42.643,42.799L81.573,173.283z
	 M135.752,129.673l42.602-42.759c1.876,1.305,4.04,2.217,6.376,2.635v81.082c-2.131,0.381-4.116,1.178-5.874,2.305L135.752,129.673z
	 M187.59,195.84c-3.122,0-5.879-1.553-7.554-3.924c-1.064-1.506-1.696-3.342-1.696-5.326c0-0.371,0.028-0.734,0.07-1.094
	c0.074-0.633,0.213-1.242,0.408-1.828c0.84-2.521,2.729-4.562,5.156-5.594c0.246-0.105,0.499-0.195,0.755-0.279
	c0.901-0.293,1.861-0.455,2.86-0.455c1.8,0,3.474,0.521,4.895,1.41c2.612,1.635,4.355,4.531,4.355,7.84
	C196.84,191.698,192.699,195.84,187.59,195.84z"/>
</svg>
