<?xml version="1.0" encoding="utf-8"?>
<!-- Generator: Adobe Illustrator 16.0.4, SVG Export Plug-In . SVG Version: 6.00 Build 0)  -->
<!DOCTYPE svg PUBLIC "-//W3C//DTD SVG 1.1//EN" "http://www.w3.org/Graphics/SVG/1.1/DTD/svg11.dtd">
<svg version="1.1" id="Layer_1" xmlns="http://www.w3.org/2000/svg" xmlns:xlink="http://www.w3.org/1999/xlink" x="0px" y="0px"
	 width="263.279px" height="263.279px" viewBox="-1.3 -1.3 263.279 263.279" enable-background="new -1.3 -1.3 263.279 263.279"
	 xml:space="preserve">
<g id="apla">
</g>
<g>
	<path fill="#020202" d="M130.34-1.3C57.754-1.3-1.3,57.754-1.3,130.34c0,72.587,59.053,131.64,131.64,131.64
		c72.587,0,131.64-59.053,131.64-131.64C261.98,57.754,202.927-1.3,130.34-1.3z M130.34,254.38
		C61.944,254.38,6.3,198.736,6.3,130.34C6.3,61.944,61.944,6.3,130.34,6.3c68.396,0,124.04,55.644,124.04,124.04
		C254.38,198.736,198.736,254.38,130.34,254.38z"/>
	<path fill="#020202" d="M109.987,87.001H202.2v39.139H180.86l6.417-7.411l-5.745-4.974l-14.072,16.25l14.641,15.286l5.489-5.257
		l-6.029-6.295h28.24V79.402h-99.813V68.002H52.768v35.562h57.219V87.001z M102.387,75.602v20.362h-42.02V75.602H102.387z"/>
	<path fill="#020202" d="M152.671,195.124h57.219v-35.562h-57.219V195.124z M202.29,167.161v20.363h-42.02v-20.363H202.29z"/>
	<path fill="#020202" d="M122.482,168.902l6.417,7.41H59.334v-39.14h43.524v11.651h57.218v-35.562h-57.218v16.311H51.735v54.339
		h76.465l-6.03,6.295l5.489,5.257l14.644-15.286l-14.074-16.251L122.482,168.902z M110.458,134.19
		c0.058-0.264,0.094-0.536,0.094-0.817s-0.036-0.554-0.094-0.817v-11.693h42.019v20.362h-42.019V134.19z"/>
</g>
</svg>
