<?xml version="1.0" encoding="utf-8"?>
<!-- Generator: Adobe Illustrator 18.0.0, SVG Export Plug-In . SVG Version: 6.00 Build 0)  -->
<!DOCTYPE svg PUBLIC "-//W3C//DTD SVG 1.1//EN" "http://www.w3.org/Graphics/SVG/1.1/DTD/svg11.dtd">
<svg version="1.1" id="Warstwa_1" xmlns="http://www.w3.org/2000/svg" xmlns:xlink="http://www.w3.org/1999/xlink" x="0px" y="0px"
	 viewBox="0 0 260.7 260.7" enable-background="new 0 0 260.7 260.7" xml:space="preserve">
<g id="apla">
</g>
<g id="Layer_1">
	<g>
		<path fill="#231F20" d="M108.7,102.3H54.1v-33h54.6L108.7,102.3L108.7,102.3z M59.1,97.3h44.6v-23H59.1V97.3z"/>
	</g>
	<g>
		<path fill="#231F20" d="M158.8,147.5h-54.6v-33h54.6V147.5z M109.2,142.5h44.6v-23h-44.6C109.2,119.6,109.2,142.5,109.2,142.5z"/>
	</g>
	<g>
		<path fill="#231F20" d="M208.6,193.8H154v-33h54.6V193.8z M159,188.8h44.6v-23H159V188.8z"/>
	</g>
	<g>
		<polygon fill="#231F20" points="178.1,143.5 165.2,130 177.7,115.6 181.4,118.9 172,129.8 181.7,140 		"/>
	</g>
	<g>
		<path fill="#231F20" d="M208.5,132.4h-36.4c-1.4,0-2.5-1.1-2.5-2.5s1.1-2.5,2.5-2.5h31.4V85.7h-94.9c-1.4,0-2.5-1.1-2.5-2.5
			s1.1-2.5,2.5-2.5h99.9V132.4z"/>
	</g>
	<g>
		<polygon fill="#231F20" points="124.6,193.6 121,190.2 130.8,180 121.3,169 125.1,165.8 137.5,180.1 		"/>
	</g>
	<g>
		<path fill="#231F20" d="M130.6,182.6H53v-51.7h53.7c1.4,0,2.5,1.1,2.5,2.5s-1.1,2.5-2.5,2.5H58v41.7h72.6c1.4,0,2.5,1.1,2.5,2.5
			S132,182.6,130.6,182.6z"/>
	</g>
</g>
</svg>
