<?xml version="1.0" encoding="utf-8"?>
<!-- Generator: Adobe Illustrator 16.0.4, SVG Export Plug-In . SVG Version: 6.00 Build 0)  -->
<!DOCTYPE svg PUBLIC "-//W3C//DTD SVG 1.1//EN" "http://www.w3.org/Graphics/SVG/1.1/DTD/svg11.dtd">
<svg version="1.1" id="Layer_1" xmlns="http://www.w3.org/2000/svg" xmlns:xlink="http://www.w3.org/1999/xlink" x="0px" y="0px"
	 width="263.28px" height="263.28px" viewBox="-3.148 -5.69 263.28 263.28" enable-background="new -3.148 -5.69 263.28 263.28"
	 xml:space="preserve">
<g id="apla">
</g>
<path fill="#020202" d="M128.492-5.69c-72.586,0-131.64,59.053-131.64,131.64c0,72.587,59.053,131.64,131.64,131.64
	c72.587,0,131.64-59.053,131.64-131.64C260.132,53.364,201.079-5.69,128.492-5.69z M128.492,249.99
	c-68.396,0-124.04-55.645-124.04-124.041S60.096,1.91,128.492,1.91s124.041,55.644,124.041,124.04S196.888,249.99,128.492,249.99z"
	/>
<g>
	<g>
		<path fill="#020202" d="M126.485,141.778l0.249-6.613l10.182-7.454l-5.6-16.269l-12.781,0.788l-4.479-4.774l2.006-12.731
			l-15.95-7.396l-8.254,9.376l-6.393-0.248l-7.763-10.201l-16.207,5.578l0.733,12.589l-5.14,4.564l-11.629-1.843l-1.374,1.441
			c-0.521,0.545-0.629,0.658-5.853,11.688l-1.222,2.575l9.722,8.632l-0.302,6.156l-10.102,7.742l5.671,16.178l12.76-0.506
			l4.127,4.729l-1.743,12.715l15.926,7.385l8.18-9.49l6.664,0.355l7.405,10.203l16.321-5.83l-0.69-12.682l4.842-4.463l12.603,2.057
			l7.422-15.676L126.485,141.778z M103.17,165.272l0.577,10.596l-5.62,2.008l-6.188-8.525L77.93,168.6l-6.868,7.971l-5.625-2.607
			l1.449-10.574l-8.789-10.074l-10.783,0.426l-1.99-5.678l8.526-6.537l0.653-13.31l-8.181-7.263
			c0.988-2.077,1.949-4.083,2.663-5.557l10.462,1.658l10.583-9.396l-0.614-10.516l5.564-1.915l6.609,8.684l13.586,0.525l6.889-7.827
			l5.597,2.596l-1.691,10.739l9.467,10.091l10.576-0.652l1.895,5.505l-8.631,6.316l-0.519,13.793l7.796,7.164l-2.579,5.445
			l-10.61-1.732L103.17,165.272z"/>
		<path fill="#020202" d="M96.48,115.772c-3.113-1.476-6.427-2.224-9.852-2.224c-8.867,0-17.048,5.178-20.843,13.19
			c-5.439,11.484-0.52,25.253,10.966,30.695c3.113,1.475,6.427,2.221,9.851,2.221c8.869,0,17.051-5.176,20.845-13.188
			c2.635-5.564,2.945-11.822,0.874-17.618C106.248,123.05,102.043,118.405,96.48,115.772z M86.602,152.055
			c-2.291,0-4.51-0.502-6.598-1.49c-7.698-3.646-10.996-12.877-7.352-20.576c2.545-5.371,8.031-8.842,13.976-8.842
			c2.289,0,4.509,0.502,6.601,1.491c3.728,1.766,6.546,4.878,7.936,8.762c1.388,3.889,1.181,8.084-0.585,11.812
			C98.036,148.584,92.55,152.055,86.602,152.055z"/>
	</g>
	<g>
		<path fill="#020202" d="M123.215,93.788l6.108,11.96l8.855-1.56l2.354,2.058l-0.009,9.064l13.134,4.052l4.813-7.408l3.346-0.273
			l6.146,6.432l12.074-6.256l-1.687-8.805l2.108-2.548l8.996,0.239l4.113-12.96l-7.347-5.111l-0.324-3.328l6.396-6.163
			l-6.076-12.071l-8.881,1.769l-2.545-2.067l0.191-9.079l-13.162-4.061l-4.881,7.343l-3.177,0.307l-6.376-6.374l-12.014,6.048
			l1.71,8.737l-2.281,2.656l-8.036-0.177l-1.171,1.584c-0.458,0.621-0.496,0.671-3.068,8.779l-0.864,2.718l7.61,5.106l0.261,3.027
			L123.215,93.788z M145.25,65.89l-1.311-6.697l1.959-0.986l5.027,5.026l10.342-1l3.738-5.623l2.258,0.696l-0.148,7.061l8.199,6.663
			l6.714-1.335l0.957,1.901l-5.011,4.83L179,86.906l5.628,3.917l-0.688,2.171l-6.979-0.185l-6.748,8.157l1.294,6.751l-1.981,1.027
			l-4.715-4.935l-10.676,0.875l-3.717,5.723l-2.286-0.705l0.007-6.903l-7.692-6.728l-6.907,1.217l-1.05-2.052l4.921-4.954
			l-0.876-10.166l-5.897-3.958c0.256-0.804,0.503-1.57,0.723-2.244l6.867,0.15L145.25,65.89z"/>
		<path fill="#020202" d="M153.121,98.124c2.183,0.691,4.433,0.887,6.688,0.581c5.84-0.793,10.765-4.935,12.547-10.551
			c1.238-3.902,0.883-8.051-1-11.683c-1.882-3.633-5.066-6.315-8.968-7.553c-2.181-0.693-4.432-0.888-6.69-0.582
			c-5.839,0.793-10.764,4.935-12.546,10.551C140.596,86.939,145.069,95.568,153.121,98.124z M156.654,75.371
			c1.207-0.164,2.414-0.058,3.587,0.315c2.094,0.664,3.802,2.104,4.812,4.052c1.011,1.948,1.2,4.174,0.537,6.268
			c-0.958,3.014-3.602,5.237-6.736,5.663c-1.205,0.164-2.411,0.058-3.584-0.315c-2.09-0.663-3.798-2.103-4.81-4.055
			c-1.011-1.952-1.203-4.177-0.541-6.267C150.875,78.02,153.519,75.797,156.654,75.371z"/>
	</g>
	<g>
		<path fill="#020202" d="M210.069,162.473l8.584-5.252l-3.944-14.219l-9.761-0.164l-2.484-3.158l2.14-9.764l-12.395-7.337
			l-7.124,6.813l-4.327-0.609l-4.688-7.684l-1.969-0.129c-0.759-0.049-0.855-0.056-9.992,2.4l-2.751,0.74l-0.216,10.152
			l-3.049,2.342l-9.715-2.092l-7.256,12.422l6.751,7.332l-0.582,3.895l-8.455,5.406l3.936,14.189l9.785,0.064l2.554,3.35
			l-2.326,9.574l12.617,7.271l7.199-6.832l4.12,0.502l5.155,8.539l14.065-3.779l0.377-9.904l3.29-2.592l9.577,2.285l7.372-12.449
			l-6.95-7.219L210.069,162.473z M188.857,182.742l-0.298,7.814l-3.134,0.844l-4.109-6.811l-11.348-1.385l-5.688,5.395l-2.767-1.594
			l1.834-7.562l-7.015-9.197l-7.778-0.049l-0.901-3.25l6.636-4.244l1.635-10.908l-5.41-5.877l1.646-2.816l7.771,1.674l8.728-6.713
			l0.17-8.09c1.13-0.301,2.266-0.6,3.229-0.852l4.078,6.687l11.534,1.623l5.624-5.376l2.706,1.603l-1.729,7.904l6.934,8.818
			l7.698,0.129l0.893,3.221l-6.862,4.197l-1.282,11.338l5.42,5.625l-1.57,2.652l-7.706-1.838L188.857,182.742z"/>
		<path fill="#020202" d="M183.235,142.719c-2.97-0.742-6.111-0.711-9.083,0.086c-4.669,1.254-8.573,4.258-10.993,8.457
			c-2.421,4.201-3.062,9.084-1.809,13.752c1.709,6.354,6.736,11.293,13.126,12.889c2.974,0.742,6.116,0.711,9.085-0.088
			c9.65-2.592,15.393-12.557,12.798-22.209C194.651,149.25,189.62,144.313,183.235,142.719z M176.292,170.627
			c-3.748-0.936-6.698-3.832-7.699-7.557c-0.736-2.736-0.359-5.6,1.061-8.061c1.42-2.465,3.708-4.225,6.443-4.959
			c1.746-0.469,3.585-0.488,5.32-0.055c3.746,0.936,6.697,3.83,7.697,7.557c1.522,5.658-1.844,11.5-7.502,13.02
			C179.869,171.041,178.031,171.061,176.292,170.627z"/>
	</g>
</g>
</svg>
