<?xml version="1.0" encoding="utf-8"?>
<!-- Generator: Adobe Illustrator 16.0.4, SVG Export Plug-In . SVG Version: 6.00 Build 0)  -->
<!DOCTYPE svg PUBLIC "-//W3C//DTD SVG 1.1//EN" "http://www.w3.org/Graphics/SVG/1.1/DTD/svg11.dtd">
<svg version="1.1" id="Layer_1" xmlns="http://www.w3.org/2000/svg" xmlns:xlink="http://www.w3.org/1999/xlink" x="0px" y="0px"
	 width="263.28px" height="263.28px" viewBox="-0.763 0.465 263.28 263.28" enable-background="new -0.763 0.465 263.28 263.28"
	 xml:space="preserve">
<g id="apla">
</g>
<path fill="#020202" d="M130.876,0.465c-72.586,0-131.64,59.053-131.64,131.639c0,72.588,59.053,131.641,131.64,131.641
	c72.587,0,131.64-59.053,131.64-131.641C262.516,59.518,203.464,0.465,130.876,0.465z M130.876,256.145
	c-68.396,0-124.04-55.645-124.04-124.041c0-68.396,55.644-124.04,124.04-124.04s124.041,55.644,124.041,124.04
	C254.917,200.501,199.272,256.145,130.876,256.145z"/>
<path fill="#020202" d="M155.677,78.805h-50.6v15h-39v91.6h129.6v-91.6h-40V78.805z M148.077,86.405v7.4h-35.401v-7.4H148.077z
	 M181.677,170.403v-25.9c2.256-0.766,4.443-2.004,6.4-3.611v36.912H73.676v-36.651c1.988,1.988,4.977,3.167,7.402,3.337v25.914
	H181.677z M174.077,162.803H88.677v-17.4h10.399v0.701c0,2.096,1.705,3.799,3.8,3.799s3.8-1.703,3.8-3.799v-0.701h49.401v0.701
	c0,2.096,1.703,3.799,3.799,3.799s3.801-1.703,3.801-3.799v-0.701l10.4,0.002V162.803z M176.415,137.803h-12.738v-0.699
	c0-2.096-1.705-3.801-3.801-3.801s-3.799,1.705-3.799,3.801v0.699h-49.401v-0.699c0-2.096-1.705-3.801-3.8-3.801
	s-3.8,1.705-3.8,3.801v0.699h-15.7c-5.349,0-9.7-4.912-9.7-10.95v-25.45h114.401v24.7
	C188.077,131.68,181.973,137.803,176.415,137.803z"/>
</svg>
