<?xml version="1.0" encoding="utf-8"?>
<!-- Generator: Adobe Illustrator 16.0.4, SVG Export Plug-In . SVG Version: 6.00 Build 0)  -->
<!DOCTYPE svg PUBLIC "-//W3C//DTD SVG 1.1//EN" "http://www.w3.org/Graphics/SVG/1.1/DTD/svg11.dtd">
<svg version="1.1" id="Layer_1" xmlns="http://www.w3.org/2000/svg" xmlns:xlink="http://www.w3.org/1999/xlink" x="0px" y="0px"
	 width="263.279px" height="263.281px" viewBox="-1.3 -1.3 263.279 263.281" enable-background="new -1.3 -1.3 263.279 263.281"
	 xml:space="preserve">
<g id="apla">
</g>
<g>
	<path fill="#231F20" d="M130.34-1.3C57.754-1.3-1.3,57.753-1.3,130.34c0,72.588,59.053,131.642,131.64,131.642
		c72.587,0,131.64-59.054,131.64-131.642C261.98,57.753,202.927-1.3,130.34-1.3z M130.34,254.382
		C61.944,254.382,6.3,198.736,6.3,130.34C6.3,61.944,61.944,6.3,130.34,6.3c68.396,0,124.04,55.644,124.04,124.04
		C254.38,198.736,198.736,254.382,130.34,254.382z"/>
	<path fill="#231F20" d="M72.431,197.849h116.497V65.797H72.431V197.849z M181.328,73.396V190.25H80.031V73.396H181.328z"/>
	<path fill="#231F20" d="M172.469,84.925h-85.58v26.585h85.58V84.925z M154.175,105.21h-7.001v-9.702h-5.999v9.702h-6.667V91.224
		h19.667V105.21z M160.174,91.224h5.809v13.985h-5.809V91.224z M128.508,105.21h-6V91.224h6V105.21z M116.508,105.21H93.373V91.224
		h23.134V105.21z"/>
	<path fill="#231F20" d="M87.373,136.304h19.31v-19.312h-19.31V136.304z M93.673,123.292h6.71v6.713h-6.71V123.292z"/>
	<path fill="#231F20" d="M87.373,158.304h19.31v-19.312h-19.31V158.304z M93.673,145.292h6.71v6.713h-6.71V145.292z"/>
	<path fill="#231F20" d="M109.844,158.304h19.31v-19.312h-19.31V158.304z M116.144,145.292h6.71v6.713h-6.71V145.292z"/>
	<path fill="#231F20" d="M132.315,158.304h19.31v-19.312h-19.31V158.304z M138.615,145.292h6.71v6.713h-6.71V145.292z"/>
	<path fill="#231F20" d="M87.373,180.304h19.31v-19.312h-19.31V180.304z M93.673,167.292h6.71v6.713h-6.71V167.292z"/>
	<path fill="#231F20" d="M109.334,180.304h42.8v-19.312h-42.8V180.304z M115.634,167.292h30.201v6.713h-30.201V167.292z"/>
	<path fill="#231F20" d="M154.783,180.508h19.312v-41.516h-19.312V180.508z M161.083,145.292h6.713v28.916h-6.713V145.292z"/>
	<path fill="#231F20" d="M109.707,136.304h19.31v-19.312h-19.31V136.304z M116.007,123.292h6.71v6.713h-6.71V123.292z"/>
	<path fill="#231F20" d="M132.04,136.304h19.31v-19.312h-19.31V136.304z M138.34,123.292h6.71v6.713h-6.71V123.292z"/>
	<path fill="#231F20" d="M154.373,136.304h19.311v-19.312h-19.311V136.304z M160.674,123.292h6.709v6.713h-6.709V123.292z"/>
</g>
</svg>
