<?xml version="1.0" encoding="utf-8"?>
<!-- Generator: Adobe Illustrator 16.0.4, SVG Export Plug-In . SVG Version: 6.00 Build 0)  -->
<!DOCTYPE svg PUBLIC "-//W3C//DTD SVG 1.1//EN" "http://www.w3.org/Graphics/SVG/1.1/DTD/svg11.dtd">
<svg version="1.1" id="Layer_1" xmlns="http://www.w3.org/2000/svg" xmlns:xlink="http://www.w3.org/1999/xlink" x="0px" y="0px"
	 width="263.279px" height="263.279px" viewBox="-1.246 -1.246 263.279 263.279"
	 enable-background="new -1.246 -1.246 263.279 263.279" xml:space="preserve">
<g id="apla">
</g>
<path fill="#020202" d="M130.394-1.246c-72.586,0-131.64,59.053-131.64,131.64s59.053,131.639,131.64,131.639
	s131.639-59.053,131.639-131.639S202.98-1.246,130.394-1.246z M130.394,254.434c-68.396,0-124.04-55.645-124.04-124.041
	S61.998,6.353,130.394,6.353s124.04,55.644,124.04,124.04S198.79,254.434,130.394,254.434z"/>
<g>
	<rect x="98.303" y="84.243" fill="#020202" width="8.042" height="8.042"/>
	<rect x="113.593" y="84.583" fill="#020202" width="54.276" height="7.6"/>
</g>
<g>
	<rect x="98.303" y="108.013" fill="#020202" width="8.042" height="8.042"/>
	<rect x="113.593" y="108.353" fill="#020202" width="54.276" height="7.6"/>
</g>
<g>
	<rect x="98.303" y="131.782" fill="#020202" width="8.042" height="8.042"/>
	<rect x="113.593" y="132.122" fill="#020202" width="54.276" height="7.6"/>
</g>
<path fill="#020202" d="M195.133,164.799V53.261H75.038v149.583h81.626c5.099,5.357,12.206,8.419,19.593,8.419
	c14.915,0,27.05-12.135,27.05-27.05c0-7.265-2.971-14.286-8.174-19.37C195.133,164.829,195.133,164.813,195.133,164.799z
	 M176.257,203.664c-10.725,0-19.45-8.726-19.45-19.45s8.726-19.45,19.45-19.45c4.136,0,8.084,1.28,11.418,3.702
	c5.029,3.653,8.032,9.541,8.032,15.748C195.707,194.938,186.981,203.664,176.257,203.664z M82.638,60.861h104.896v98.778
	c-3.529-1.624-7.387-2.475-11.276-2.475c-14.915,0-27.05,12.135-27.05,27.05c0,3.802,0.81,7.575,2.355,11.031H82.638V60.861z"/>
<polygon fill="#020202" points="185.489,177.42 177.311,188.542 165.897,174.515 160.51,178.899 177.589,199.891 191.086,181.534 
	"/>
</svg>
