<?xml version="1.0" encoding="utf-8"?>
<!-- Generator: Adobe Illustrator 18.0.0, SVG Export Plug-In . SVG Version: 6.00 Build 0)  -->
<!DOCTYPE svg PUBLIC "-//W3C//DTD SVG 1.1//EN" "http://www.w3.org/Graphics/SVG/1.1/DTD/svg11.dtd">
<svg version="1.1" id="Warstwa_1" xmlns="http://www.w3.org/2000/svg" xmlns:xlink="http://www.w3.org/1999/xlink" x="0px" y="0px"
	 viewBox="0 0 260.8 260.8" enable-background="new 0 0 260.8 260.8" xml:space="preserve">
<g id="apla">
</g>
<g id="Layer_1">
	<g>
		<rect x="100.6" y="85.5" fill="#231F20" width="5.4" height="5.4"/>
		<rect x="114.9" y="85.9" fill="#231F20" width="51.7" height="5"/>
		<rect x="100.6" y="109.3" fill="#231F20" width="5.4" height="5.4"/>
		<rect x="114.9" y="109.7" fill="#231F20" width="51.7" height="5"/>
		<rect x="100.6" y="133.1" fill="#231F20" width="5.4" height="5.4"/>
		<rect x="114.9" y="133.4" fill="#231F20" width="51.7" height="5"/>
		<path fill="#231F20" d="M193.8,165.3c0-0.2,0.1-0.4,0.1-0.5V54.6H76.3v147h80.9c4.7,5.2,11.5,8.4,19,8.4
			c14.2,0,25.8-11.6,25.8-25.8C202,177,199,170.2,193.8,165.3z M81.3,196.5v-137h107.5v102.2c-3.8-2.2-8.1-3.3-12.6-3.3
			c-14.2,0-25.8,11.6-25.8,25.8c0,4.5,1.1,8.7,3.2,12.3L81.3,196.5L81.3,196.5z M176.3,205c-11.4,0-20.8-9.3-20.8-20.8
			s9.3-20.8,20.8-20.8c4.4,0,8.6,1.4,12.2,3.9c5.4,3.9,8.6,10.2,8.6,16.8C197,195.7,187.7,205,176.3,205z"/>
		<polygon fill="#231F20" points="177.4,190.7 165.7,176.3 162.3,179.1 177.5,197.8 189.3,181.8 185.8,179.2 		"/>
	</g>
</g>
</svg>
