<?xml version="1.0" encoding="utf-8"?>
<!-- Generator: Adobe Illustrator 16.0.4, SVG Export Plug-In . SVG Version: 6.00 Build 0)  -->
<!DOCTYPE svg PUBLIC "-//W3C//DTD SVG 1.1//EN" "http://www.w3.org/Graphics/SVG/1.1/DTD/svg11.dtd">
<svg version="1.1" id="Layer_1" xmlns="http://www.w3.org/2000/svg" xmlns:xlink="http://www.w3.org/1999/xlink" x="0px" y="0px"
	 width="263.279px" height="263.279px" viewBox="-1.3 -5.736 263.279 263.279" enable-background="new -1.3 -5.736 263.279 263.279"
	 xml:space="preserve">
<g id="apla">
</g>
<g>
	<path fill="#020202" d="M130.34-5.736C57.754-5.736-1.3,53.317-1.3,125.904s59.053,131.64,131.64,131.64
		c72.587,0,131.64-59.053,131.64-131.64S202.927-5.736,130.34-5.736z M130.34,249.944c-68.396,0-124.04-55.645-124.04-124.04
		c0-68.396,55.644-124.04,124.04-124.04c68.396,0,124.04,55.644,124.04,124.04C254.38,194.299,198.736,249.944,130.34,249.944z"/>
	<g>
		<path fill="#020202" d="M130.34,65.909c-48.533,0-88.017,39.484-88.017,88.017v3.801h7.6v-3.801
			c0-44.341,36.075-80.417,80.417-80.417s80.417,36.076,80.417,80.417v3.801h7.6v-3.801
			C218.357,105.393,178.872,65.909,130.34,65.909z"/>
		<polygon fill="#020202" points="108.336,84.406 100.32,87.452 103.28,95.174 111.252,92.144 		"/>
		<polygon fill="#020202" points="94.28,90.52 87.09,95.196 91.618,102.116 98.768,97.467 		"/>
		
			<rect x="68.534" y="112.358" transform="matrix(-0.8407 -0.5415 0.5415 -0.8407 70.603 254.0397)" fill="#020202" width="8.267" height="8.554"/>
		<polygon fill="#020202" points="57.871,147.131 66.054,148.324 67.309,139.889 59.134,138.647 		"/>
		<polygon fill="#020202" points="60.821,132.09 68.568,134.981 71.563,126.983 63.824,124.07 		"/>
		<polygon fill="#020202" points="124.573,89.574 123.376,81.391 114.876,82.681 116.161,90.85 		"/>
		
			<rect x="187.285" y="119.579" transform="matrix(0.8996 -0.4368 0.4368 0.8996 -34.8734 96.0506)" fill="#020202" width="8.27" height="8.553"/>
		<polygon fill="#020202" points="199.298,132.285 191.269,134.26 193.278,142.547 201.322,140.621 		"/>
		<polygon fill="#020202" points="173.141,95.308 167.851,101.664 174.382,107.139 179.719,100.823 		"/>
		<polygon fill="#020202" points="193.948,147.565 194.158,156.08 202.426,155.912 202.214,147.328 		"/>
		<polygon fill="#020202" points="145.353,82.736 143.17,90.713 151.369,92.998 153.63,85.044 		"/>
		<polygon fill="#020202" points="159.927,87.532 156.094,94.859 163.641,98.836 167.517,91.531 		"/>
		
			<rect x="75.542" y="108.928" transform="matrix(-0.7071 -0.7071 0.7071 -0.7071 72.0121 255.2845)" fill="#020202" width="26.672" height="7.6"/>
		
			<rect x="163.481" y="113.828" transform="matrix(0.7651 -0.644 0.644 0.7651 -34.2061 141.4965)" fill="#020202" width="26.673" height="7.6"/>
		<path fill="#020202" d="M154.018,99.301l-20.324,37.577c-1.622-0.496-3.343-0.768-5.126-0.768
			c-9.683,0-17.561,7.877-17.561,17.561c0,9.682,7.877,17.561,17.561,17.561c9.683,0,17.561-7.879,17.561-17.561
			c0-5.172-2.261-9.814-5.83-13.031l20.404-37.724L154.018,99.301z M128.568,164.11c-5.756,0-10.439-4.684-10.439-10.439
			s4.683-10.439,10.439-10.439c0.551,0,1.087,0.055,1.615,0.137l-6.318,11.684l6.685,3.613l6.199-11.461
			c1.409,1.781,2.259,4.025,2.259,6.467C139.007,159.426,134.323,164.11,128.568,164.11z"/>
		<rect x="130.29" y="80.143" fill="#020202" width="7.85" height="26.6"/>
	</g>
</g>
</svg>
