<?xml version="1.0" encoding="utf-8"?>
<!-- Generator: Adobe Illustrator 18.0.0, SVG Export Plug-In . SVG Version: 6.00 Build 0)  -->
<!DOCTYPE svg PUBLIC "-//W3C//DTD SVG 1.1//EN" "http://www.w3.org/Graphics/SVG/1.1/DTD/svg11.dtd">
<svg version="1.1" id="Warstwa_1" xmlns="http://www.w3.org/2000/svg" xmlns:xlink="http://www.w3.org/1999/xlink" x="0px" y="0px"
	 viewBox="0 0 260.7 260.7" enable-background="new 0 0 260.7 260.7" xml:space="preserve">
<g id="apla">
</g>
<g id="Layer_1">
	<g>
		<g>
			<path fill="#231F20" d="M122.2,85.7c-14.6,0-26.5-11.9-26.5-26.5c0-14.6,11.9-26.5,26.5-26.5c14.6,0,26.5,11.9,26.5,26.5
				C148.7,73.8,136.8,85.7,122.2,85.7z M122.2,37.6c-11.9,0-21.5,9.7-21.5,21.5c0,11.9,9.6,21.5,21.5,21.5s21.5-9.7,21.5-21.5
				C143.7,47.3,134,37.6,122.2,37.6z"/>
		</g>
		<g>
			<g>
				<path fill="#231F20" d="M127.8,74.5c-8.6,0-15.5-7-15.5-15.5c0-8.6,7-15.5,15.5-15.5c2,0,3.9,0.4,5.7,1.1c1.3,0.5,1.9,2,1.4,3.2
					c-0.5,1.3-2,1.9-3.2,1.4c-1.2-0.5-2.5-0.7-3.8-0.7c-5.8,0-10.5,4.7-10.5,10.5c0,5.8,4.7,10.5,10.5,10.5c1.3,0,2.6-0.2,3.7-0.7
					c1.3-0.5,2.7,0.2,3.2,1.4c0.5,1.3-0.2,2.7-1.4,3.2C131.6,74.1,129.7,74.5,127.8,74.5z"/>
			</g>
			<g>
				<path fill="#231F20" d="M129.1,57.2h-20.7c-1.4,0-2.5-1.1-2.5-2.5s1.1-2.5,2.5-2.5h20.7c1.4,0,2.5,1.1,2.5,2.5
					S130.5,57.2,129.1,57.2z"/>
			</g>
			<g>
				<path fill="#231F20" d="M129.1,65.8h-20.7c-1.4,0-2.5-1.1-2.5-2.5s1.1-2.5,2.5-2.5h20.7c1.4,0,2.5,1.1,2.5,2.5
					C131.6,64.6,130.5,65.8,129.1,65.8z"/>
			</g>
		</g>
		<g>
			<path fill="#231F20" d="M160.1,212.1h-21.6v-13.9c-6.3,0.5-12.7,0.3-18.9-0.6v14.5H98.2v-20.4c-15.8-4.5-23.3-14.4-26.9-22.1
				c-2.7-5.7-3.6-11-3.9-13.9H50.3v-21.6l17.2,0c0.7-3.6,2.9-10.9,9.2-18.1c14.1-16.4,37.8-19.9,55.2-19.9c4,0,8,0.3,11.9,0.8
				l26.1-14.8l-2.9,16l20.4-11.6l-5,27.7c6.4,5.8,11,12.6,13.5,19.9h11V163H195c-5.6,13.5-18.1,24.6-34.8,30.7V212.1z M143.6,207.1
				h11.6v-17.1l1.7-0.6c16.8-5.7,29.2-16.6,34.1-29.9l0.6-1.6h10.4v-18.9h-9.7l-0.5-1.8c-2.2-7.5-6.9-14.5-13.6-20.3L177,116
				l3.6-19.9l-20.4,11.6l2.9-16l-18.3,10.4l-0.9-0.1c-3.9-0.6-8-0.9-12-0.9c-56,0-59.6,34.2-59.8,35.7l-0.2,2.3l-2.3,0l-14.3,0v11.6
				h17l0,2.5c0,1.1,0.2,27,29.1,34.2l1.9,0.5v19.3h11.6v-15.4l2.9,0.5c7.5,1.3,15.5,1.6,23.1,0.7l2.8-0.3L143.6,207.1L143.6,207.1z"
				/>
		</g>
		<g>
			<path fill="#231F20" d="M154.8,133.2h-46.4v-18.9h46.4V133.2z M113.4,128.2h36.4v-8.9h-36.4C113.4,119.3,113.4,128.2,113.4,128.2
				z"/>
		</g>
	</g>
</g>
</svg>
