<?xml version="1.0" encoding="utf-8"?>
<!-- Generator: Adobe Illustrator 18.0.0, SVG Export Plug-In . SVG Version: 6.00 Build 0)  -->
<!DOCTYPE svg PUBLIC "-//W3C//DTD SVG 1.1//EN" "http://www.w3.org/Graphics/SVG/1.1/DTD/svg11.dtd">
<svg version="1.1" id="Layer_1" xmlns="http://www.w3.org/2000/svg" xmlns:xlink="http://www.w3.org/1999/xlink" x="0px" y="0px"
	 viewBox="0 0 263.3 263.3" enable-background="new 0 0 263.3 263.3" xml:space="preserve">
<g id="apla">
</g>
<g>
	<path d="M127.2-1.3C54.6-1.3-4.4,57.8-4.4,130.3c0,72.6,59.1,131.6,131.6,131.6s131.6-59.1,131.6-131.6
		C258.8,57.8,199.8-1.3,127.2-1.3z M127.2,254.4c-68.4,0-124-55.6-124-124c0-68.4,55.6-124,124-124c68.4,0,124,55.6,124,124
		S195.6,254.4,127.2,254.4z"/>
	<path d="M128.3,92.2c9.3,0,18-3.6,24.6-10.2c6.6-6.6,10.2-15.3,10.2-24.6c0-19.2-15.6-34.8-34.8-34.8c-19.2,0-34.8,15.6-34.8,34.8
		C93.5,76.6,109.1,92.2,128.3,92.2z M128.3,30.2c15,0,27.2,12.2,27.2,27.2c0,15-12.2,27.2-27.2,27.2c-15,0-27.2-12.2-27.2-27.2
		C101.1,42.4,113.3,30.2,128.3,30.2z"/>
	<path d="M195.4,143.8c-2.6-7-7.1-13.5-13-19.1l5.3-29.7l-20.4,11.6l2.9-16l-28.1,16c-3.8-0.5-7.8-0.8-11.7-0.8
		c-17.7,0-41.7,3.5-56.2,20.3c-5.9,6.8-8.3,13.7-9.2,17.7l-17.5,0V168h17.2c0.4,3.4,1.5,8.1,3.9,13.2c3.6,7.7,11.2,17.7,26.8,22.5
		v20.8h24.2v-14.3c5.3,0.7,10.8,0.8,16.3,0.5v13.8h24.2v-18.9c16.2-6.1,28.6-17.1,34.4-30.3h12.4v-31.5L195.4,143.8L195.4,143.8z
		 M199.2,167.7h-10l-0.9,2.5c-4.7,13-16.9,23.6-33.3,29.1l-2.6,0.9v16.7h-9v-14.6l-4.2,0.5c-7.5,0.8-15.4,0.6-22.8-0.7l-4.5-0.8
		v15.7h-9v-19l-2.9-0.7c-27.9-7-28.1-31.8-28.1-32.9l0-3.8h-17v-9l13,0l3.5,0l0.3-3.5c0.1-1.4,3.7-34.5,58.5-34.5
		c4,0,8,0.3,11.8,0.9l1.3,0.2l16.3-9.3l-2.9,16l20.4-11.6l-3.2,17.9l1.6,1.4c6.5,5.7,11.1,12.5,13.2,19.7l0.8,2.7h9.4V167.7z"/>
	<path d="M103.7,150.5h51V128h-51V150.5z M111.3,135.6h35.8v7.3h-35.8V135.6z"/>
	<path d="M116.4,58.9l-2.5,0l-1,5.1l3.5,0v0.1c0,2,0.4,3.8,1.2,5.3c0.8,1.5,1.9,2.8,3.2,3.8c1.3,1,2.9,1.7,4.6,2.2
		c1.7,0.5,3.4,0.8,5.2,0.8c1.2,0,2.4-0.2,3.7-0.5c1.2-0.3,2.4-0.8,3.6-1.4c1.1-0.6,2.2-1.4,3.2-2.4c1-1,1.9-2.1,2.7-3.4l-6.6-3.6
		c-0.5,1-1.2,1.8-2.1,2.4c-0.9,0.6-1.8,1-2.8,1.3c-0.7,0.2-1.5,0.3-2.2,0.3c-0.2,0-0.5,0-0.7,0c-1-0.1-1.9-0.3-2.7-0.7
		c-0.8-0.4-1.5-0.9-2-1.6c-0.5-0.7-0.8-1.5-0.8-2.4l0-0.1l8.8,0l1-5.1l-9.8,0l0-2.1l8.8,0l1-5.2l-9.8,0l0-0.9c0-0.9,0.2-1.7,0.8-2.5
		c0.5-0.7,1.2-1.3,2-1.7c0.8-0.4,1.7-0.7,2.7-0.8c0.3,0,0.6-0.1,0.9-0.1c0.7,0,1.4,0.1,2.1,0.2c1,0.2,1.9,0.7,2.8,1.3
		c0.9,0.6,1.6,1.4,2.1,2.4l6.1-3.3c-0.6-1.3-1.4-2.5-2.4-3.5c-1-1-2-1.8-3.1-2.4c-1.1-0.6-2.3-1.1-3.6-1.4c-1.2-0.3-2.5-0.5-3.7-0.4
		c-1.8,0-3.6,0.3-5.3,0.8c-1.7,0.5-3.2,1.3-4.6,2.3c-1.3,1-2.4,2.3-3.2,3.8c-0.8,1.5-1.2,3.3-1.2,5.3l0,0.9l-2.5,0l-1,5.2l3.5,0
		L116.4,58.9z"/>
</g>
</svg>
