<?xml version="1.0" encoding="utf-8"?>
<!-- Generator: Adobe Illustrator 16.0.4, SVG Export Plug-In . SVG Version: 6.00 Build 0)  -->
<!DOCTYPE svg PUBLIC "-//W3C//DTD SVG 1.1//EN" "http://www.w3.org/Graphics/SVG/1.1/DTD/svg11.dtd">
<svg version="1.1" id="Layer_1" xmlns="http://www.w3.org/2000/svg" xmlns:xlink="http://www.w3.org/1999/xlink" x="0px" y="0px"
	 width="263.279px" height="263.281px" viewBox="-1.3 -1.3 263.279 263.281" enable-background="new -1.3 -1.3 263.279 263.281"
	 xml:space="preserve">
<g id="apla">
</g>
<g>
	<path fill="#020202" d="M130.34-1.3C57.754-1.3-1.3,57.754-1.3,130.341s59.053,131.641,131.64,131.641
		c72.587,0,131.64-59.054,131.64-131.641S202.927-1.3,130.34-1.3z M130.34,254.382c-68.396,0-124.04-55.645-124.04-124.041
		S61.944,6.3,130.34,6.3c68.396,0,124.04,55.645,124.04,124.041S198.736,254.382,130.34,254.382z"/>
	<path fill="#020202" d="M130.259,107.483c3.361,0,6.69-0.559,9.896-1.66c15.876-5.454,24.355-22.807,18.901-38.683
		c-4.226-12.3-15.797-20.564-28.793-20.564c-3.36,0-6.688,0.558-9.89,1.658c-15.878,5.456-24.358,22.811-18.904,38.688
		C105.693,99.22,117.262,107.483,130.259,107.483z M130.263,54.176c9.752,0,18.435,6.202,21.604,15.433
		c1.979,5.761,1.593,11.957-1.089,17.446c-2.682,5.489-7.331,9.602-13.093,11.581c-2.409,0.828-4.908,1.248-7.428,1.248
		c-9.751,0-18.432-6.201-21.603-15.43c-4.092-11.914,2.271-24.938,14.186-29.032C125.247,54.595,127.744,54.176,130.263,54.176z"/>
	<path fill="#020202" d="M158.026,116.036h-55.527c-11.332,0-23.317,14.868-23.317,28.926v53.47h102.163v-53.47
		C181.344,130.904,169.358,116.036,158.026,116.036z M111.48,137.061l3.727-6.661l8.799,17.895L111.48,137.061z M137.079,147.989
		l8.854-18.005l3.929,7.02L137.079,147.989z M102.498,123.635h7.785l-8.406,15.023l28.247,25.329l29.407-25.271l-8.438-15.081h6.935
		c7.052,0,15.719,11.76,15.719,21.326l-0.001,45.87H86.781v-45.87C86.781,135.395,95.448,123.635,102.498,123.635z M120.914,124.784
		h19.106l-9.554,19.428L120.914,124.784z"/>
</g>
</svg>
