<?xml version="1.0" encoding="utf-8"?>
<!-- Generator: Adobe Illustrator 18.0.0, SVG Export Plug-In . SVG Version: 6.00 Build 0)  -->
<!DOCTYPE svg PUBLIC "-//W3C//DTD SVG 1.1//EN" "http://www.w3.org/Graphics/SVG/1.1/DTD/svg11.dtd">
<svg version="1.1" id="Warstwa_1" xmlns="http://www.w3.org/2000/svg" xmlns:xlink="http://www.w3.org/1999/xlink" x="0px" y="0px"
	 viewBox="0 0 260.7 260.7" enable-background="new 0 0 260.7 260.7" xml:space="preserve">
<g id="apla">
</g>
<g id="Layer_1">
	<g>
		<path fill="#231F20" d="M130.3,106.2c3.2,0,6.4-0.5,9.5-1.6c15.2-5.2,23.3-21.8,18.1-37c-4-11.8-15.1-19.7-27.6-19.7
			c-3.2,0-6.4,0.5-9.5,1.6c-15.2,5.2-23.3,21.8-18.1,37C106.7,98.3,117.8,106.2,130.3,106.2z M122.4,54.2c2.5-0.9,5.2-1.3,7.8-1.3
			c10.3,0,19.5,6.6,22.8,16.3c4.3,12.6-2.4,26.4-15,30.7c-2.5,0.9-5.2,1.3-7.9,1.3c-10.3,0-19.5-6.6-22.8-16.3
			C103.1,72.3,109.8,58.5,122.4,54.2z"/>
		<path fill="#231F20" d="M158,117.3h-55.5c-10.7,0-22,14.2-22,27.6v52.2H180V145C180,131.5,168.7,117.3,158,117.3z M142.1,123.5
			l-11.6,23.7l-11.6-23.7C118.8,123.5,142.1,123.5,142.1,123.5z M145.9,127.2l5.7,10.1l-18.4,15.8L145.9,127.2z M128.1,153.7
			l-18.3-16.4l5.4-9.7L128.1,153.7z M175,192.1H85.5V145c0-10.4,9.2-22.6,17-22.6h10l-9,16l26.6,23.9l27.7-23.8l-9-16.1h9.2
			c7.8,0,17,12.3,17,22.6L175,192.1L175,192.1z"/>
	</g>
</g>
</svg>
