<?xml version="1.0" encoding="utf-8"?>
<!-- Generator: Adobe Illustrator 16.0.4, SVG Export Plug-In . SVG Version: 6.00 Build 0)  -->
<!DOCTYPE svg PUBLIC "-//W3C//DTD SVG 1.1//EN" "http://www.w3.org/Graphics/SVG/1.1/DTD/svg11.dtd">
<svg version="1.1" id="Layer_1" xmlns="http://www.w3.org/2000/svg" xmlns:xlink="http://www.w3.org/1999/xlink" x="0px" y="0px"
	 width="263.279px" height="263.279px" viewBox="-1.246 -1.246 263.279 263.279"
	 enable-background="new -1.246 -1.246 263.279 263.279" xml:space="preserve">
<g id="apla">
</g>
<path fill="#020202" d="M130.393-1.246c-72.586,0-131.639,59.053-131.639,131.64s59.053,131.639,131.639,131.639
	c72.587,0,131.641-59.053,131.641-131.639S202.979-1.246,130.393-1.246z M130.393,254.434c-68.395,0-124.039-55.645-124.039-124.041
	c0-68.395,55.645-124.039,124.039-124.039c68.396,0,124.041,55.644,124.041,124.04S198.789,254.434,130.393,254.434z"/>
<path fill="#020202" d="M157.386,71.322h-30.047V93.5l-3.001-4.688H91.606v26.339l-5.887-9.197H50.002v78.751h101.704v-24.258
	h32.193v-23.894h27.264V82.941h-46.339L157.386,71.322z M134.94,101.723v-22.8h18.288l7.438,11.619h42.898l-0.001,38.414h-19.664
	v-27.233H134.94z M99.206,120.299V96.412h20.974l8.264,12.91H176.3v43.528h-24.594v-32.55H99.206z M81.561,113.555l9.181,14.345
	h53.365v49.207H57.602v-63.552H81.561z"/>
</svg>
