<?xml version="1.0" encoding="utf-8"?>
<!-- Generator: Adobe Illustrator 16.0.4, SVG Export Plug-In . SVG Version: 6.00 Build 0)  -->
<!DOCTYPE svg PUBLIC "-//W3C//DTD SVG 1.1//EN" "http://www.w3.org/Graphics/SVG/1.1/DTD/svg11.dtd">
<svg version="1.1" id="Layer_1" xmlns="http://www.w3.org/2000/svg" xmlns:xlink="http://www.w3.org/1999/xlink" x="0px" y="0px"
	 width="263.279px" height="263.279px" viewBox="-0.069 -4.939 263.279 263.279"
	 enable-background="new -0.069 -4.939 263.279 263.279" xml:space="preserve">
<g id="apla">
</g>
<path fill="#020202" d="M131.571-4.939c-72.587,0-131.64,59.053-131.64,131.64s59.053,131.64,131.64,131.64
	s131.64-59.053,131.64-131.64S204.157-4.939,131.571-4.939z M131.571,250.74c-68.396,0-124.04-55.645-124.04-124.04
	c0-68.396,55.644-124.04,124.04-124.04c68.396,0,124.04,55.644,124.04,124.04C255.611,195.096,199.966,250.74,131.571,250.74z"/>
<g>
	<path fill="#020202" d="M181.343,161.963c-0.507-3.062-2.175-5.742-4.697-7.547c-2.509-1.794-5.607-2.517-8.659-2.012
		l-15.447,2.562l-0.009-63.763c0-6.403-5.209-11.613-11.612-11.613s-11.612,5.21-11.612,11.613v7.05
		c-1.284-0.478-2.644-0.726-4.016-0.726c-6.142,0-11.186,4.793-11.587,10.836c-1.291-0.484-2.659-0.735-4.04-0.735
		c-5.33,0-9.838,3.544-11.194,8.517c-1.613-0.821-3.387-1.249-5.219-1.249c-6.403,0-11.612,5.21-11.612,11.614v77.53l70.901,0.032
		v-25.562l19.246-3.19c3.059-0.505,5.738-2.174,7.547-4.7C181.137,168.093,181.851,165.019,181.343,161.963z M93.25,122.494
		c1.07,0,2.078,0.418,2.837,1.178c0.759,0.759,1.176,1.767,1.176,2.837v21.854c0,2.213-1.8,4.013-4.013,4.013
		c-2.212,0-4.013-1.8-4.013-4.013v-21.854C89.238,124.296,91.038,122.494,93.25,122.494z M113.677,153.476
		c0,2.213-1.801,4.014-4.014,4.014c-2.212,0-4.013-1.801-4.013-4.014V119.24c0-2.213,1.801-4.014,4.013-4.014
		c2.213,0,4.014,1.801,4.014,4.014V153.476z M125.29,105.127c2.213,0,4.014,1.801,4.014,4.013v41.626
		c0,2.212-1.801,4.012-4.014,4.012c-2.212,0-4.013-1.8-4.013-4.012v-41.626C121.278,106.927,123.078,105.127,125.29,105.127z
		 M144.94,172.062v24.406l-55.702-0.026v-37.19c3.224,1.199,6.951,0.853,9.902-0.886c1.883,4.032,5.99,6.725,10.523,6.725
		c3.647,0,7.078-1.741,9.26-4.625c1.886,1.24,4.101,1.912,6.367,1.912c6.403,0,11.613-5.209,11.613-11.611l0.002-59.563
		c0-2.213,1.8-4.014,4.013-4.014s4.013,1.801,4.013,4.014l0.009,72.726l24.291-4.028c1.05-0.172,2.123,0.075,2.992,0.694
		c0.871,0.625,1.448,1.551,1.623,2.61c0.176,1.057-0.07,2.119-0.694,2.99c-0.625,0.872-1.551,1.449-2.608,1.624L144.94,172.062z"/>
	
		<rect x="101.853" y="67.399" transform="matrix(0.7071 0.7071 -0.7071 0.7071 83.9059 -60.1775)" fill="#020202" width="25.487" height="7.599"/>
	<rect x="138.194" y="47.327" fill="#020202" width="7.6" height="22.475"/>
	
		<rect x="165.024" y="64.133" transform="matrix(0.7072 0.707 -0.707 0.7072 103.7905 -96.8541)" fill="#020202" width="7.599" height="25.485"/>
</g>
</svg>
