<?xml version="1.0" encoding="utf-8"?>
<!-- Generator: Adobe Illustrator 18.0.0, SVG Export Plug-In . SVG Version: 6.00 Build 0)  -->
<!DOCTYPE svg PUBLIC "-//W3C//DTD SVG 1.1//EN" "http://www.w3.org/Graphics/SVG/1.1/DTD/svg11.dtd">
<svg version="1.1" width="140" height="140" id="Layer_1" xmlns="http://www.w3.org/2000/svg" xmlns:xlink="http://www.w3.org/1999/xlink" x="0px" y="0px"
	 viewBox="0 0 260.7 260.7" enable-background="new 0 0 260.7 260.7" xml:space="preserve">
<g id="apla">
</g>
<path fill="none" d="M160.2,151v-23l2.5-2.5h27.6v-22.1H90.6c-5.4,0-9.8-3.9-9.8-8.6s4.4-8.6,9.8-8.6h99.8v-7.7H81.8v0
	c-5.8,0-10.5,4.7-10.5,10.5v77.5c0,5.8,4.7,10.5,10.5,10.5h108.5v-23.5h-27.6L160.2,151z"/>
<path fill="#231F20" d="M198.8,125.5h-3.5v-24.6l-2.5-2.5H90.6c-2.6,0-4.8-1.6-4.8-3.6s2.2-3.6,4.8-3.6h102.3l2.5-2.5V76l-2.5-2.5
	h-111c-8.6,0-15.5,7-15.5,15.5v77.5c0,8.6,7,15.5,15.5,15.5h111l2.5-2.5v-26h3.5l2.5-2.5v-23L198.8,125.5z M190.3,177H81.8
	c-5.8,0-10.5-4.7-10.5-10.5V89.1c0-5.8,4.7-10.5,10.5-10.5v0h108.5v7.7H90.6c-5.4,0-9.8,3.9-9.8,8.6s4.4,8.6,9.8,8.6h99.8v22.1
	h-27.6l-2.5,2.5v23l2.5,2.5h27.6V177z M196.3,148.5h-31.1v-18h31.1V148.5z"/>
<g>
	<path fill="#231F20" d="M178.8,146c-3.6,0-6.5-2.9-6.5-6.5s2.9-6.5,6.5-6.5c3.6,0,6.5,2.9,6.5,6.5S182.4,146,178.8,146z M178.8,138
		c-0.8,0-1.5,0.7-1.5,1.5s0.7,1.5,1.5,1.5s1.5-0.7,1.5-1.5S179.6,138,178.8,138z"/>
</g>
</svg>
