<?xml version="1.0" encoding="utf-8"?>
<!-- Generator: Adobe Illustrator 16.0.4, SVG Export Plug-In . SVG Version: 6.00 Build 0)  -->
<!DOCTYPE svg PUBLIC "-//W3C//DTD SVG 1.1//EN" "http://www.w3.org/Graphics/SVG/1.1/DTD/svg11.dtd">
<svg version="1.1" id="Layer_1" xmlns="http://www.w3.org/2000/svg" xmlns:xlink="http://www.w3.org/1999/xlink" x="0px" y="0px"
	 width="263.279px" height="263.279px" viewBox="-1.3 -1.3 263.279 263.279" enable-background="new -1.3 -1.3 263.279 263.279"
	 xml:space="preserve">
<g id="apla">
</g>
<g>
	<path fill="#020202" d="M130.34-1.3C57.754-1.3-1.3,57.754-1.3,130.34c0,72.587,59.053,131.64,131.64,131.64
		c72.587,0,131.64-59.053,131.64-131.64C261.98,57.754,202.927-1.3,130.34-1.3z M130.34,254.38
		C61.944,254.38,6.3,198.736,6.3,130.34C6.3,61.944,61.944,6.3,130.34,6.3c68.396,0,124.04,55.644,124.04,124.04
		C254.38,198.736,198.736,254.38,130.34,254.38z"/>
	<path fill="#020202" d="M41.713,194.61h25.872v-24.161H41.713V194.61z M59.986,178.048v8.962H49.313v-8.962H59.986z"/>
	<path fill="#020202" d="M77.197,194.61h25.871v-30.894H77.197V194.61z M95.468,171.316v15.694H84.796v-15.694H95.468z"/>
	<path fill="#020202" d="M112.678,194.61h25.872v-42.386h-25.872V194.61z M130.95,159.823v27.187h-10.673v-27.187H130.95z"/>
	<path fill="#020202" d="M148.16,194.61h25.871v-70.253H148.16V194.61z M166.432,131.956v55.054H155.76v-55.054H166.432z"/>
	<path fill="#020202" d="M183.642,194.61h25.872V56.658h-25.872V194.61z M201.914,64.258V187.01h-10.673V64.258H201.914z"/>
</g>
</svg>
