<?xml version="1.0" encoding="utf-8"?>
<!-- Generator: Adobe Illustrator 16.0.4, SVG Export Plug-In . SVG Version: 6.00 Build 0)  -->
<!DOCTYPE svg PUBLIC "-//W3C//DTD SVG 1.1//EN" "http://www.w3.org/Graphics/SVG/1.1/DTD/svg11.dtd">
<svg version="1.1" id="Layer_1" xmlns="http://www.w3.org/2000/svg" xmlns:xlink="http://www.w3.org/1999/xlink" x="0px" y="0px"
	 width="263.279px" height="263.279px" viewBox="-0.677 3.494 263.279 263.279"
	 enable-background="new -0.677 3.494 263.279 263.279" xml:space="preserve">
<g id="apla">
</g>
<g>
	<path fill="#020202" d="M130.963,3.494c-72.587,0-131.64,59.053-131.64,131.64c0,72.586,59.053,131.639,131.64,131.639
		c72.586,0,131.639-59.053,131.639-131.639C262.602,62.547,203.549,3.494,130.963,3.494z M130.963,259.173
		c-68.396,0-124.041-55.645-124.041-124.041c0-68.395,55.644-124.039,124.041-124.039c68.396,0,124.039,55.644,124.039,124.041
		C255.002,203.529,199.358,259.173,130.963,259.173z"/>
	<g>
		<polygon fill="#020202" points="134.679,154.217 134.679,129.797 139.716,134.157 144.689,128.413 130.41,116.049 
			116.972,128.921 122.228,134.411 127.08,129.765 127.08,154.217 		"/>
		<g>
			<path fill="#020202" d="M57.133,108.746h43.325V51.854H57.133V108.746z M92.858,59.454v41.692H64.732V59.454H92.858z"/>
			<g>
				<rect x="68.628" y="76.5" fill="#020202" width="20.334" height="7.6"/>
				<rect x="68.628" y="87.922" fill="#020202" width="20.334" height="7.6"/>
				<rect x="68.628" y="65.078" fill="#020202" width="20.334" height="7.6"/>
			</g>
		</g>
		<g>
			<path fill="#020202" d="M109.168,108.746h43.325V51.854h-43.325V108.746z M144.894,59.454v41.692h-28.125V59.454H144.894z"/>
			<g>
				<rect x="120.664" y="76.5" fill="#020202" width="20.335" height="7.6"/>
				<rect x="120.664" y="87.922" fill="#020202" width="20.335" height="7.6"/>
				<rect x="120.664" y="65.078" fill="#020202" width="20.335" height="7.6"/>
			</g>
		</g>
		<g>
			<path fill="#020202" d="M109.168,218.412h43.325v-56.892h-43.325V218.412z M144.894,169.12v41.692h-28.125V169.12H144.894z"/>
			<g>
				<rect x="120.664" y="186.166" fill="#020202" width="20.335" height="7.6"/>
				<rect x="120.664" y="197.589" fill="#020202" width="20.335" height="7.6"/>
				<rect x="120.664" y="174.744" fill="#020202" width="20.335" height="7.6"/>
			</g>
		</g>
		<g>
			<path fill="#020202" d="M161.466,108.746h43.326V51.854h-43.326V108.746z M197.192,59.454v41.692h-28.127V59.454H197.192z"/>
			<g>
				<rect x="172.962" y="76.5" fill="#020202" width="20.334" height="7.6"/>
				<rect x="172.962" y="87.922" fill="#020202" width="20.334" height="7.6"/>
				<rect x="172.962" y="65.078" fill="#020202" width="20.334" height="7.6"/>
			</g>
		</g>
	</g>
</g>
</svg>
