<?xml version="1.0" encoding="utf-8"?>
<!-- Generator: Adobe Illustrator 16.0.4, SVG Export Plug-In . SVG Version: 6.00 Build 0)  -->
<!DOCTYPE svg PUBLIC "-//W3C//DTD SVG 1.1//EN" "http://www.w3.org/Graphics/SVG/1.1/DTD/svg11.dtd">
<svg version="1.1" id="Layer_1" xmlns="http://www.w3.org/2000/svg" xmlns:xlink="http://www.w3.org/1999/xlink" x="0px" y="0px"
	 width="263.279px" height="263.281px" viewBox="-1.3 -1.299 263.279 263.281" enable-background="new -1.3 -1.299 263.279 263.281"
	 xml:space="preserve">
<g id="apla">
</g>
<g>
	<path d="M130.34-1.299C57.754-1.299-1.3,57.755-1.3,130.342c0,72.587,59.053,131.64,131.64,131.64
		c72.587,0,131.64-59.053,131.64-131.64C261.98,57.755,202.927-1.299,130.34-1.299z M130.34,254.382
		c-68.396,0-124.04-55.645-124.04-124.041C6.3,61.945,61.944,6.301,130.34,6.301c68.396,0,124.04,55.645,124.04,124.041
		C254.38,198.738,198.736,254.382,130.34,254.382z"/>
	<path d="M130.399,70.314c-0.335,0-0.67,0.003-1.005,0.008c-16.007,0.254-30.974,6.742-42.144,18.27
		c-11.17,11.528-17.182,26.692-16.928,42.697c0.251,15.865,6.619,30.728,17.929,41.849c11.299,11.112,26.24,17.231,42.073,17.231
		c0.318,0,0.645-0.003,0.965-0.008c16.031-0.254,31.004-6.734,42.162-18.25c11.156-11.517,17.162-26.687,16.906-42.716
		c-0.252-15.865-6.619-30.728-17.93-41.851C161.131,76.433,146.205,70.314,130.399,70.314z M81.557,111.148
		c6.267-15.907,19.731-27.629,36.147-31.681c-6.426,5.666-14.735,15.657-19.062,31.681H81.557z M127.653,152.747v25.985
		c-5.805-3.547-16.074-11.554-21.19-25.985H127.653z M98.521,152.747c4.347,14.025,13.01,23.213,19.839,28.603
		c-15.342-3.65-28.454-14.185-35.351-28.603H98.521z M127.652,145.148h-23.258c-0.905-4.683-1.243-9.67-1.004-14.845
		c0.182-3.951,0.626-7.833,1.322-11.556h22.941V145.148z M127.653,81.392v29.756h-21.092
		C111.902,93.519,122.439,84.781,127.653,81.392z M96.716,145.149H80.079c-1.358-4.555-2.085-9.253-2.16-13.979
		c-0.066-4.176,0.368-8.35,1.292-12.421h17.786c-0.621,3.655-1.024,7.417-1.198,11.205
		C95.558,135.164,95.866,140.268,96.716,145.149z M166.459,128.417c-0.26-3.308-0.678-6.553-1.248-9.67h16.232
		c0.816,3.56,1.26,7.178,1.316,10.77c0.084,5.302-0.627,10.556-2.115,15.631h-14.859
		C166.68,139.811,166.906,134.191,166.459,128.417z M177.752,152.747c-2.455,5.192-5.73,9.92-9.76,14.077
		c-6.117,6.313-13.578,10.919-21.826,13.512c6.691-5.954,13.973-14.911,17.822-27.589H177.752z M163.442,111.148
		c-4.285-15.214-11.891-25.049-18.734-31.194c15.543,4.469,28.318,15.982,34.367,31.194H163.442z M135.252,111.149V82.166
		c6.111,4.353,15.178,13.122,20.234,28.982H135.252z M135.252,145.148v-26.4h22.193c0.682,3.335,1.164,6.781,1.436,10.26
		c0.436,5.596,0.17,11.021-0.787,16.141H135.252z M156.1,152.747c-4.982,14.396-15.088,22.787-20.848,26.593v-26.593H156.1z"/>
</g>
</svg>
