<?xml version="1.0" encoding="utf-8"?>
<!-- Generator: Adobe Illustrator 16.0.4, SVG Export Plug-In . SVG Version: 6.00 Build 0)  -->
<!DOCTYPE svg PUBLIC "-//W3C//DTD SVG 1.1//EN" "http://www.w3.org/Graphics/SVG/1.1/DTD/svg11.dtd">
<svg version="1.1" id="Layer_1" xmlns="http://www.w3.org/2000/svg" xmlns:xlink="http://www.w3.org/1999/xlink" x="0px" y="0px"
	 width="263.279px" height="263.279px" viewBox="1.597 5.755 263.279 263.279" enable-background="new 1.597 5.755 263.279 263.279"
	 xml:space="preserve">
<g id="apla">
</g>
<g>
	<path fill="#020202" d="M133.236,5.755C60.65,5.755,1.597,64.808,1.597,137.395c0,72.587,59.053,131.64,131.639,131.64
		c72.587,0,131.64-59.053,131.64-131.64C264.876,64.808,205.823,5.755,133.236,5.755z M133.236,261.435
		c-68.396,0-124.04-55.645-124.04-124.041c0-68.395,55.644-124.039,124.04-124.039c68.396,0,124.04,55.644,124.04,124.04
		C257.276,205.791,201.633,261.435,133.236,261.435z"/>
	<path fill="#020202" d="M219.502,123.089c-2.875-2.914-6.476-4.841-10.47-5.617V61.993h-52.987
		c-1.837-9.317-10.105-16.253-19.691-16.316h-0.126c-9.64,0-17.966,6.938-19.816,16.316H58.433V117.3
		c-9.725,1.431-17.227,9.932-17.291,19.86c-0.037,5.399,2.033,10.49,5.827,14.335c3.092,3.133,7.126,5.162,11.463,5.792v55.306
		h57.934c0.729,3.987,2.606,7.6,5.472,10.504c3.794,3.844,8.857,5.98,14.265,6.016h0.125c9.752,0,18.097-7.025,19.863-16.521h52.94
		v-55.488c9.307-1.847,16.236-10.113,16.298-19.678C225.367,132.026,223.297,126.935,219.502,123.089z M73.979,137.373
		c-0.046,6.913-5.707,12.537-12.703,12.537c-3.369-0.022-6.529-1.355-8.897-3.755c-2.367-2.399-3.659-5.577-3.636-8.947
		c0.044-6.911,5.743-12.533,12.705-12.536c3.37,0.023,6.528,1.356,8.894,3.753C72.708,130.825,74,134.002,73.979,137.373z
		 M66.033,156.946c9.01-2.142,15.483-10.185,15.545-19.522c0.036-5.399-2.034-10.491-5.828-14.335
		c-2.681-2.717-6.022-4.59-9.717-5.458V69.592h50.334c0.729,3.988,2.606,7.601,5.472,10.505c3.794,3.844,8.857,5.98,14.265,6.016
		h0.125c9.751,0,18.096-7.025,19.863-16.521h45.34v47.837c-9.442,1.749-16.474,10.037-16.538,19.731
		c-0.062,9.837,6.971,18.239,16.538,20.001v47.832h-45.388c-1.837-9.317-10.106-16.255-19.692-16.316h-0.126
		c-9.641,0-17.967,6.938-19.816,16.316H66.033V156.946z M136.145,78.515c-3.37-0.023-6.529-1.356-8.896-3.755
		c-2.368-2.4-3.659-5.577-3.636-8.946c0.045-6.912,5.744-12.535,12.704-12.537c6.954,0.047,12.575,5.745,12.532,12.701
		C148.801,72.891,143.14,78.515,136.145,78.515z M136.315,196.274c6.954,0.048,12.575,5.745,12.532,12.701
		c-0.047,6.913-5.708,12.537-12.703,12.537c-3.37-0.022-6.529-1.355-8.896-3.755s-3.659-5.576-3.636-8.946
		C123.656,201.9,129.355,196.277,136.315,196.274z M217.729,137.377c-0.043,6.911-5.701,12.534-12.699,12.534
		c-6.957-0.045-12.58-5.743-12.536-12.7c0.046-6.912,5.745-12.535,12.705-12.537c3.368,0.023,6.527,1.356,8.895,3.754
		C216.459,130.827,217.751,134.005,217.729,137.377z"/>
	<path fill="#020202" d="M111.342,133.396l0.002,5.096c3.658,1.062,11.594,2.944,21.868,2.944c10.312,0,18.269-2.042,21.918-3.187
		v-4.897c-7.843,2.704-19.54,2.851-21.963,2.851C130.771,136.203,119.187,136.059,111.342,133.396z"/>
	<path fill="#020202" d="M111.342,133.396l0.002,5.096c3.658,1.062,11.594,2.944,21.868,2.944c10.312,0,18.269-2.042,21.918-3.187
		v-4.897c-7.843,2.704-19.54,2.851-21.963,2.851C130.771,136.203,119.187,136.059,111.342,133.396z"/>
	<path fill="#020202" d="M151.979,136.903c-3.531-1.085-9.806-2.254-18.887-2.254c-8.053,0-14.612,0.986-18.599,2.156
		c4.137,1.261,10.773,3.334,18.599,3.334C141.439,140.14,148.071,138.113,151.979,136.903z"/>
	<path fill="#020202" d="M135.502,136.188c-1.494-0.455-2.361-0.785-2.509-0.843l-2.021-0.788v5.676
		C131.714,138.659,133.221,137.305,135.502,136.188z"/>
	<path fill="#020202" d="M135.501,136.188c-1.503-0.455-2.364-0.785-2.51-0.843l-2.019-0.787v5.674
		C131.715,138.658,133.221,137.305,135.501,136.188z"/>
	<path fill="#020202" d="M133.858,135.167c-0.274,0.114-1.299,0.525-2.997,1.062c2.388,1.13,3.967,2.512,4.75,4.127v-5.922
		L133.858,135.167z"/>
	<path fill="#020202" d="M133.858,134.726c-0.274,0.114-1.299,0.525-2.997,1.062c2.388,1.129,3.966,3.133,4.75,5.009v-6.803
		L133.858,134.726z"/>
	<path fill="#020202" d="M151.979,136.403c-3.531-1.086-9.806-1.254-18.887-1.254c-8.051,0-14.609-0.015-18.597,1.156
		c4.138,1.261,10.775,3.334,18.597,3.334C141.438,139.64,148.071,137.613,151.979,136.403z"/>
	<path fill="#020202" d="M111.342,133.397l0.002,5.094c3.656,1.062,11.587,2.943,21.868,2.943c10.312,0,18.269-2.041,21.918-3.186
		v-4.895c-7.843,2.703-19.539,2.851-21.963,2.851C130.77,136.205,119.188,136.061,111.342,133.397z"/>
	<path fill="#020202" d="M111.342,133.397l0.002,5.095c3.655,1.062,11.587,2.943,21.868,2.943c10.312,0,18.269-2.042,21.918-3.187
		v-4.896c-7.843,2.704-19.54,2.851-21.963,2.851C130.77,136.204,119.187,136.06,111.342,133.397z"/>
	<path fill="#020202" d="M133.091,134.649c-8.048,0-14.607,1.986-18.596,3.156c4.138,1.261,10.774,2.334,18.596,2.334
		c8.348,0,14.979-1.025,18.888-2.236C148.446,136.819,142.172,134.649,133.091,134.649z"/>
	<path fill="#020202" d="M157.487,150.644c1.697-0.536,2.722-0.947,2.996-1.062l1.753-0.733V128.4
		c-0.783-1.876-2.361-3.88-4.749-5.009c1.697-0.536,2.722-0.947,2.996-1.062l1.753-0.732v-21.308
		c-1.548-2.969-6.211-4.44-13.914-5.732c-6.733-1.129-13.732-1.186-15.066-1.186c-6.3,0-25.534-0.204-29.02,6.953v21.559
		l2.019,0.788c0.146,0.057,1.006,0.387,2.51,0.843c-2.28,1.117-3.786,2.471-4.528,4.044v21.58l2.021,0.788
		c0.147,0.058,1.015,0.388,2.509,0.842c-2.281,1.117-3.788,2.472-4.53,4.045v21.578l2.016,0.785
		c0.441,0.173,10.989,4.244,27.049,4.244c16.019,0,26.733-4.396,27.182-4.583l1.753-0.733v-21.332
		C161.454,153.155,159.875,151.773,157.487,150.644z M133.256,100.97c9.081,0,15.355,0.168,18.887,1.253
		c-3.907,1.21-10.54,3.236-18.887,3.236c-7.822,0-14.459-2.073-18.597-3.334C118.646,100.956,125.205,100.97,133.256,100.97z
		 M155.219,170.635c-3.649,1.145-11.606,3.187-21.918,3.187c-10.274,0-18.21-1.883-21.868-2.944l-0.002-5.096
		c7.845,2.662,19.429,2.807,21.826,2.807c2.423,0,14.12-0.146,21.963-2.851V170.635z M114.657,156.631
		c3.987-1.17,10.546-2.156,18.599-2.156c9.081,0,15.355,1.169,18.887,2.254c-3.908,1.21-10.54,3.236-18.887,3.236
		C125.43,159.965,118.794,157.892,114.657,156.631z M155.219,143.379c-3.649,1.145-11.606,3.187-21.918,3.187
		c-10.281,0-18.213-1.882-21.868-2.943l-0.002-5.095c7.845,2.662,19.429,2.807,21.826,2.807c2.423,0,14.12-0.146,21.963-2.851
		V143.379z M114.659,130.378c3.989-1.17,10.548-3.156,18.596-3.156c9.081,0,15.355,2.169,18.888,3.254
		c-3.908,1.21-10.54,2.235-18.888,2.235C125.433,132.711,118.797,131.639,114.659,130.378z M155.219,116.127
		c-3.649,1.145-11.606,3.186-21.918,3.186c-10.281,0-18.212-1.882-21.868-2.944l-0.002-5.093c7.846,2.663,19.429,2.807,21.826,2.807
		c2.423,0,14.12-0.147,21.963-2.851V116.127z"/>
</g>
<rect x="-12.606" y="61.644" fill="#020202" width="2.25" height="2.5"/>
</svg>
