<?xml version="1.0" encoding="utf-8"?>
<!-- Generator: Adobe Illustrator 16.0.4, SVG Export Plug-In . SVG Version: 6.00 Build 0)  -->
<!DOCTYPE svg PUBLIC "-//W3C//DTD SVG 1.1//EN" "http://www.w3.org/Graphics/SVG/1.1/DTD/svg11.dtd">
<svg version="1.1" id="Layer_1" xmlns="http://www.w3.org/2000/svg" xmlns:xlink="http://www.w3.org/1999/xlink" x="0px" y="0px"
	 width="263.279px" height="263.279px" viewBox="-1.788 -0.76 263.279 263.279"
	 enable-background="new -1.788 -0.76 263.279 263.279" xml:space="preserve">
<g id="apla">
</g>
<rect x="70.767" y="126.65" fill="#020202" width="11.146" height="12.048"/>
<path fill="#020202" d="M129.852-0.76c-72.587,0-131.64,59.054-131.64,131.64c0,72.587,59.053,131.64,131.64,131.64
	s131.64-59.053,131.64-131.64C261.491,58.294,202.439-0.76,129.852-0.76z M129.852,254.92c-68.396,0-124.04-55.645-124.04-124.04
	S61.455,6.84,129.852,6.84c68.396,0,124.04,55.645,124.04,124.04S198.247,254.92,129.852,254.92z"/>
<path fill="#020202" d="M182.132,98.403V79.427l-37.229-21.689l-15.046,7.376l-15.047-7.376l-37.23,21.689v18.974L57.43,110.082
	v22.021c-0.006,0.057-0.01,0.113-0.01,0.172l0.01,22.174l19.272,11.389v16.06l37.416,22.127l15.737-9.618l15.737,9.618
	l37.414-22.125v-16.06l19.275-11.389v-44.366L182.132,98.403z M126.029,127.059h-5.293v-1.95h-11.146v12.048h11.146v-2.497h5.293
	v53.178l-11.976,7.319l-29.752-17.592v-10.688l7.05-4.813l1.561,2.075l8.792-6.611l-7.16-9.521l-8.792,6.611l1.027,1.366
	l-5.481,3.741l-16.27-9.613v-14.038h7.255c2.096,0,3.8-1.704,3.8-3.8s-1.704-3.8-3.8-3.8h-7.255v-14.012l17.374-10.073l6.009,3.131
	l-1.114,1.889l9.475,5.589l6.053-10.26l-9.474-5.59l-1.072,1.817l-7.1-3.7V83.794l29.939-17.441l10.911,5.349V127.059z
	 M194.683,127.874h-6.614v-1.766h-11.146v12.048h11.146v-2.683h6.614v14.639l-15.357,9.074l-5.501-3.755l0.999-1.693l-9.474-5.589
	l-6.054,10.26l9.475,5.59l1.185-2.008l5.452,3.723v11.851l-29.75,17.592l-11.696-7.148v-53.349h4.962v2.497h11.146v-12.048h-11.146
	v1.95h-4.962V71.565l10.633-5.212l29.938,17.441v14.684l-5.953,3.126l-1.703-2.264l-8.792,6.611l7.16,9.521l8.792-6.611
	l-0.829-1.103l5.201-2.73l16.274,9.436V127.874z"/>
<polygon fill="#020202" points="150.493,97.039 152.853,97.039 152.853,85.893 140.806,85.893 140.806,97.039 142.894,97.039 
	142.894,112.607 158.331,124.693 158.331,136.21 143.331,149.811 143.331,168.227 140.806,168.227 140.806,179.373 152.853,179.373 
	152.853,168.227 150.931,168.227 150.931,153.179 165.931,139.578 165.931,120.992 150.493,108.906 "/>
<polygon fill="#020202" points="109.217,97.039 111.576,97.039 111.576,108.906 96.139,120.992 96.139,139.578 111.139,153.179 
	111.139,168.227 109.217,168.227 109.217,179.373 121.264,179.373 121.264,168.227 118.739,168.227 118.739,149.811 103.739,136.21 
	103.739,124.693 119.176,112.607 119.176,97.039 121.264,97.039 121.264,85.893 109.217,85.893 "/>
</svg>
