<?xml version="1.0" encoding="utf-8"?>
<!-- Generator: Adobe Illustrator 16.0.4, SVG Export Plug-In . SVG Version: 6.00 Build 0)  -->
<!DOCTYPE svg PUBLIC "-//W3C//DTD SVG 1.1//EN" "http://www.w3.org/Graphics/SVG/1.1/DTD/svg11.dtd">
<svg version="1.1" id="Layer_1" xmlns="http://www.w3.org/2000/svg" xmlns:xlink="http://www.w3.org/1999/xlink" x="0px" y="0px"
	 width="263.279px" height="263.279px" viewBox="-1.3 -1.3 263.279 263.279" enable-background="new -1.3 -1.3 263.279 263.279"
	 xml:space="preserve">
<g id="apla">
</g>
<path fill="#020202" d="M130.34-1.3C57.754-1.3-1.3,57.754-1.3,130.34c0,72.587,59.054,131.64,131.64,131.64
	c72.587,0,131.64-59.053,131.64-131.64C261.979,57.754,202.927-1.3,130.34-1.3z M130.34,254.38
	C61.944,254.38,6.3,198.736,6.3,130.34C6.3,61.944,61.944,6.3,130.34,6.3s124.04,55.644,124.04,124.04
	C254.38,198.736,198.735,254.38,130.34,254.38z"/>
<g>
	<path fill="#020202" d="M87.821,202.258h85.038V58.422H87.821V202.258z M165.26,73.517H95.421v-7.496h69.839V73.517z
		 M95.421,177.073h69.839v17.585H95.421V177.073z M165.26,81.117v88.357H95.421V81.117H165.26z"/>
	<path fill="#020202" d="M130.163,180.161c-2.916,0-5.287,2.372-5.287,5.287s2.371,5.286,5.287,5.286
		c2.915,0,5.287-2.371,5.287-5.286S133.078,180.161,130.163,180.161z"/>
</g>
</svg>
