<?xml version="1.0" encoding="utf-8"?>
<!-- Generator: Adobe Illustrator 18.0.0, SVG Export Plug-In . SVG Version: 6.00 Build 0)  -->
<!DOCTYPE svg PUBLIC "-//W3C//DTD SVG 1.1//EN" "http://www.w3.org/Graphics/SVG/1.1/DTD/svg11.dtd">
<svg version="1.1" id="Warstwa_1" xmlns="http://www.w3.org/2000/svg" xmlns:xlink="http://www.w3.org/1999/xlink" x="0px" y="0px"
	 viewBox="0 0 260.7 260.7" enable-background="new 0 0 260.7 260.7" xml:space="preserve">
<g id="apla">
</g>
<g id="Layer_1">
	<g>
		<g>
			<g>
				<path fill="#231F20" d="M144.7,202.9h-26.9v-33.4h26.9V202.9z M122.9,197.9h16.9v-23.4h-16.9V197.9z"/>
			</g>
			<g>
				<path fill="#231F20" d="M203.4,173.9H59.2V72.1h144.1V173.9z M64.2,168.9h134.1V77.1H64.2V168.9z"/>
			</g>
			<g>
				<path fill="#231F20" d="M187.5,160.9H75.1V85.6h112.4V160.9z M80.1,155.9h102.4V90.6H80.1V155.9z"/>
			</g>
			<g>
				<path fill="#231F20" d="M159.4,202.9h-56.3c-1.4,0-2.5-1.1-2.5-2.5s1.1-2.5,2.5-2.5h56.3c1.4,0,2.5,1.1,2.5,2.5
					S160.8,202.9,159.4,202.9z"/>
			</g>
		</g>
	</g>
</g>
</svg>
