<?xml version="1.0" encoding="utf-8"?>
<!-- Generator: Adobe Illustrator 16.0.4, SVG Export Plug-In . SVG Version: 6.00 Build 0)  -->
<!DOCTYPE svg PUBLIC "-//W3C//DTD SVG 1.1//EN" "http://www.w3.org/Graphics/SVG/1.1/DTD/svg11.dtd">
<svg version="1.1" id="Layer_1" xmlns="http://www.w3.org/2000/svg" xmlns:xlink="http://www.w3.org/1999/xlink" x="0px" y="0px"
	 width="263.279px" height="263.279px" viewBox="-1.3 -1.3 263.279 263.279" enable-background="new -1.3 -1.3 263.279 263.279"
	 xml:space="preserve">
<g id="apla">
</g>
<g>
	<path d="M130.34-1.3C57.754-1.3-1.3,57.754-1.3,130.34c0,72.587,59.053,131.64,131.64,131.64c72.587,0,131.64-59.053,131.64-131.64
		C261.98,57.754,202.927-1.3,130.34-1.3z M130.34,254.38C61.944,254.38,6.3,198.736,6.3,130.34C6.3,61.944,61.944,6.3,130.34,6.3
		c68.396,0,124.04,55.644,124.04,124.04C254.38,198.736,198.736,254.38,130.34,254.38z"/>
	<path d="M55.353,76.588l-0.369,2.217c-0.07,0.415-1.678,10.828,2.144,70.339c1.194,18.588,8.233,34.133,20.922,46.203
		c21.294,20.255,50.716,23.396,51.959,23.521l0.467,0.046l0.457-0.069c32.571-4.737,50.172-23.985,59.202-39.298
		c9.715-16.472,11.763-31.708,11.845-32.349l0.032-69.875l-72.691-26.537L55.353,76.588z M130.332,211.251
		c-3.404-0.435-25.849-3.792-43.488-18.273v-27.925c0-7.683,4.187-14.225,9.735-15.218c0.469-0.083,0.947-0.125,1.421-0.125h2.597
		c7.128,7.746,17.106,12.147,27.698,12.147c10.718,0,20.668-4.439,27.795-12.269c3.118-0.024,6.166,1.181,8.572,3.42
		c3.188,2.964,5.091,7.467,5.091,12.044v27.942C159.195,202.754,146.015,208.885,130.332,211.251z M128.294,154.258
		c-8.653,0-16.787-3.689-22.5-10.146c-0.25-0.461-0.589-0.862-1-1.184c-4.225-5.298-6.552-11.926-6.552-18.724
		c0-16.572,13.482-30.054,30.054-30.054c16.572,0,30.055,13.482,30.055,30.053c0,6.647-2.126,12.945-6.146,18.214
		C146.46,149.943,137.745,154.258,128.294,154.258z M177.353,184.764v-19.711c0-6.749-2.738-13.168-7.514-17.609
		c-2.523-2.347-5.506-3.978-8.7-4.815c3.155-5.597,4.811-11.874,4.811-18.424c0-20.762-16.892-37.653-37.654-37.653
		c-20.762,0-37.653,16.891-37.653,37.653c0,6.366,1.633,12.615,4.668,18.141c-0.021,0.004-0.042,0.005-0.063,0.009
		c-9.273,1.656-16.003,11.203-16.003,22.699v20.556c-8.716-10.041-13.599-22.443-14.531-36.95
		c-2.854-44.406-2.678-60.903-2.397-66.451l66.948-23.353l65.149,23.785v63.801c-0.291,1.907-2.567,15.318-10.916,29.403
		C181.61,179.03,179.549,181.989,177.353,184.764z"/>
</g>
</svg>
