<?xml version="1.0" encoding="utf-8"?>
<!-- Generator: Adobe Illustrator 16.0.4, SVG Export Plug-In . SVG Version: 6.00 Build 0)  -->
<!DOCTYPE svg PUBLIC "-//W3C//DTD SVG 1.1//EN" "http://www.w3.org/Graphics/SVG/1.1/DTD/svg11.dtd">
<svg version="1.1" id="Layer_1" xmlns="http://www.w3.org/2000/svg" xmlns:xlink="http://www.w3.org/1999/xlink" x="0px" y="0px"
	 width="263.28px" height="263.28px" viewBox="-1.3 -1.3 263.28 263.28" enable-background="new -1.3 -1.3 263.28 263.28"
	 xml:space="preserve">
<g id="apla">
</g>
<g>
	<path fill="#020202" d="M130.34-1.3C57.754-1.3-1.3,57.754-1.3,130.34c0,72.587,59.053,131.641,131.64,131.641
		S261.98,202.927,261.98,130.34C261.98,57.754,202.927-1.3,130.34-1.3z M130.34,254.38C61.944,254.38,6.3,198.736,6.3,130.34
		C6.3,61.944,61.944,6.3,130.34,6.3c68.396,0,124.04,55.644,124.04,124.04C254.38,198.736,198.736,254.38,130.34,254.38z"/>
	<path fill="#020202" d="M201.105,117.386l-32.857-35.881c-0.325-0.681-0.846-1.248-1.493-1.631l-0.573-0.625h-35.375
		c-0.39-0.062-0.788-0.062-1.177,0H94.5l-0.88,0.961c-0.432,0.309-0.796,0.707-1.066,1.165l-36.133,39.457l70,82.73
		c0.052,0.068,0.106,0.133,0.164,0.197l3.757,4.44l73.922-87.369l-1.607-1.756C202.323,118.365,201.786,117.779,201.105,117.386z
		 M138.027,86.849h22.44l-3.443,24.454L138.027,86.849z M191.229,124.47l-49.58,58.596l20.843-58.596H191.229z M163.914,116.87
		l3.521-24.999l22.894,24.999H163.914z M154.425,124.47l-24.129,67.836l-24.129-67.836H154.425z M108.886,116.87l21.501-27.468
		l21.335,27.468H108.886z M118.881,182.893L69.452,124.47H98.1L118.881,182.893z M122.735,86.849l-19.132,24.441l-3.442-24.441
		H122.735z M70.351,116.87L93.2,91.92l3.514,24.95H70.351z M127.553,202.895L127.553,202.895L127.553,202.895L127.553,202.895z"/>
</g>
</svg>
