<?xml version="1.0" encoding="utf-8"?>
<!-- Generator: Adobe Illustrator 18.0.0, SVG Export Plug-In . SVG Version: 6.00 Build 0)  -->
<!DOCTYPE svg PUBLIC "-//W3C//DTD SVG 1.1//EN" "http://www.w3.org/Graphics/SVG/1.1/DTD/svg11.dtd">
<svg version="1.1" id="Warstwa_1" xmlns="http://www.w3.org/2000/svg" xmlns:xlink="http://www.w3.org/1999/xlink" x="0px" y="0px"
	 viewBox="0 0 261.6 261.6" enable-background="new 0 0 261.6 261.6" xml:space="preserve">
<g id="apla">
</g>
<g id="Layer_1">
	<path fill="#231F20" d="M202.5,177.6v-104H52v104h90.2c0.7,1.3,1.6,2.5,2.5,3.5v38.7l15.3-10.5l14.7,10.6v-39.3
		c0.8-1,1.5-2,2.1-3.1L202.5,177.6L202.5,177.6z M57,172.6v-94h140.5v94h-18.8c0.3-1.5,0.5-3,0.5-4.5c0-10.9-8.9-19.7-19.7-19.7
		c-10.9,0-19.8,8.9-19.8,19.7c0,1.6,0.2,3.1,0.5,4.5H57z M144.7,168.1c0-8.1,6.6-14.7,14.8-14.7c8.1,0,14.7,6.6,14.7,14.7
		c0,5.2-2.8,10.1-7.3,12.8c-2.2,1.3-4.8,2-7.4,2C151.3,182.8,144.7,176.2,144.7,168.1z M169.6,210.2l-9.6-6.9l-10.4,7.1v-25.2
		c2.9,1.7,6.2,2.6,9.8,2.6c3.5,0,6.9-0.9,9.9-2.7c0.1,0,0.1-0.1,0.2-0.1c0,0,0,0,0,0L169.6,210.2L169.6,210.2z"/>
	<g>
		<rect x="76" y="96.4" fill="#231F20" width="102" height="5"/>
	</g>
	<g>
		<rect x="76" y="112.4" fill="#231F20" width="102" height="5"/>
	</g>
	<g>
		<rect x="76" y="128.4" fill="#231F20" width="60" height="5"/>
	</g>
</g>
</svg>
