<svg xmlns="http://www.w3.org/2000/svg" width="263.279" height="263.28" viewBox="-0.821 -0.821 263.279 263.28"><g fill="#020202"><path d="M130.819-.821C58.233-.821-.821 58.232-.821 130.819c0 72.587 59.053 131.641 131.64 131.641 72.587 0 131.64-59.054 131.64-131.641 0-72.587-59.053-131.64-131.64-131.64zm0 255.681c-68.396 0-124.04-55.645-124.04-124.041 0-68.396 55.644-124.04 124.04-124.04 68.396 0 124.04 55.644 124.04 124.04 0 68.396-55.644 124.041-124.04 124.041z"/><path d="M50.683 178.897h90.739a21.185 21.185 0 0 0 1.962 2.722v40.71l16.565-11.35 15.978 11.591v-41.367a21.161 21.161 0 0 0 1.596-2.306h26.254V72.302H50.683v106.595zm100.3 8.441c5.481 2.433 11.947 2.359 17.344-.14v20.469l-8.252-5.987-9.092 6.229v-20.571zm15.249-7.607a13.42 13.42 0 0 1-6.753 1.815c-7.416 0-13.45-6.033-13.45-13.449 0-7.415 6.034-13.447 13.45-13.447 7.415 0 13.448 6.032 13.448 13.447a13.51 13.51 0 0 1-6.695 11.634zm-6.753-32.681c-11.607 0-21.05 9.441-21.05 21.047 0 1.05.086 2.121.257 3.2H58.283V79.902h137.895v91.396h-15.905c.17-1.072.255-2.144.255-3.2-.001-11.607-9.443-21.048-21.049-21.048z"/><path d="M74.67 95.091h104.599v7.6H74.67zm0 16h104.599v7.6H74.67zm0 16h62.599v7.6H74.67z"/></g></svg>