<svg xmlns="http://www.w3.org/2000/svg" width="263.279" height="263.279" viewBox="-1.3 -1.3 263.279 263.279"><g fill="#020202"><path d="M130.34-1.3C57.754-1.3-1.3 57.754-1.3 130.34c0 72.587 59.053 131.64 131.64 131.64 72.587 0 131.64-59.053 131.64-131.64 0-72.586-59.053-131.64-131.64-131.64zm0 255.68C61.944 254.38 6.3 198.736 6.3 130.34 6.3 61.944 61.944 6.3 130.34 6.3c68.396 0 124.04 55.644 124.04 124.04 0 68.396-55.644 124.04-124.04 124.04z"/><path d="M109.987 87.001H202.2v39.139h-21.34l6.417-7.411-5.745-4.974-14.072 16.25 14.641 15.286 5.489-5.257-6.029-6.295h28.24V79.402h-99.813v-11.4h-57.22v35.562h57.219V87.001zm-7.6-11.399v20.362h-42.02V75.602h42.02zm50.284 119.522h57.219v-35.562h-57.219v35.562zm49.619-27.963v20.363h-42.02v-20.363h42.02z"/><path d="M122.482 168.902l6.417 7.41H59.334v-39.14h43.524v11.651h57.218v-35.562h-57.218v16.311H51.735v54.339H128.2l-6.03 6.295 5.489 5.257 14.644-15.286-14.074-16.251-5.747 4.976zm-12.024-34.712c.058-.264.094-.536.094-.817s-.036-.554-.094-.817v-11.693h42.019v20.362h-42.019v-7.035z"/></g></svg>