<?xml version="1.0" encoding="utf-8"?>
<!-- Generator: Adobe Illustrator 18.0.0, SVG Export Plug-In . SVG Version: 6.00 Build 0)  -->
<!DOCTYPE svg PUBLIC "-//W3C//DTD SVG 1.1//EN" "http://www.w3.org/Graphics/SVG/1.1/DTD/svg11.dtd">
<svg version="1.1" id="Warstwa_1" xmlns="http://www.w3.org/2000/svg" xmlns:xlink="http://www.w3.org/1999/xlink" x="0px" y="0px"
	 viewBox="0 0 260.7 260.7" enable-background="new 0 0 260.7 260.7" xml:space="preserve">
<g id="apla">
</g>
<g id="Layer_1">
	<g>
		<g>
			<g>
				<g>
					<path fill="#231F20" d="M94.7,182.6l-7.2-9.9l-7.9-0.4l-8,9.2l-14.2-6.6l1.7-12.3l-4.9-5.6l-12.4,0.5l-5-14.4l9.8-7.5l0.4-7.4
						l-9.5-8.4l0.8-1.7c5.1-10.8,5.3-11,5.6-11.3l0.9-0.9l11.6,1.8l6.1-5.4l-0.7-12.2l14.4-5l7.6,9.9l7.6,0.3l8-9.1l14.2,6.6
						l-2,12.4l5.3,5.7l12.4-0.8l5,14.4l-9.9,7.3l-0.3,7.8l9.1,8.3l-6.6,13.9l-12.3-2l-5.8,5.3l0.7,12.3L94.7,182.6z M77.4,167.1
						l12.8,0.7l6.4,8.8l7.4-2.7l-0.6-11l9.3-8.6l11,1.8l3.4-7.2l-8.1-7.4l0.5-12.6l8.9-6.5l-2.5-7.3l-11,0.7l-8.6-9.2l1.7-11.1
						l-7.4-3.4l-7.1,8.1l-12.4-0.5l-6.8-8.9L67,93.4l0.6,10.9l-9.7,8.6l-10.8-1.7c-0.8,1.7-2.2,4.5-3.5,7.3l8.4,7.5L51.5,138
						l-8.8,6.7l2.6,7.5l11.1-0.4l8,9.2l-1.5,10.9l7.4,3.4L77.4,167.1z"/>
				</g>
				<g>
					<path fill="#231F20" d="M86,156.4c-3.2,0-6.4-0.7-9.3-2.1c-10.8-5.1-15.5-18.1-10.3-29c3.6-7.6,11.3-12.4,19.7-12.4
						c3.2,0,6.4,0.7,9.3,2.1c5.2,2.5,9.2,6.9,11.2,12.3c2,5.5,1.7,11.4-0.8,16.6C102.1,151.5,94.4,156.4,86,156.4z M86,117.9
						c-6.4,0-12.4,3.8-15.2,9.6c-4,8.3-0.4,18.4,8,22.3c2.3,1.1,4.7,1.6,7.2,1.6c6.4,0,12.4-3.8,15.2-9.6c1.9-4,2.1-8.6,0.6-12.8
						c-1.5-4.2-4.6-7.6-8.6-9.5C90.9,118.4,88.5,117.9,86,117.9z"/>
				</g>
			</g>
			<g>
				<g>
					<path fill="#231F20" d="M159.4,118.3l-5-6.9l-4.6-0.2l-5.5,6.4l-10.7-5l1.2-8.6l-2.9-3.3l-8.6,0.3l-3.8-10.9l6.8-5.2l0.2-4.3
						l-6.6-5.8l0.8-1.7c3.5-7.5,3.6-7.6,4-7.9l0.9-0.9l7.9,1.2l3.6-3.2l-0.5-8.5l10.9-3.8l5.3,6.9l4.4,0.2l5.6-6.4l10.7,5l-1.4,8.6
						l3.1,3.3l8.7-0.5l3.8,10.9l-6.9,5.1l-0.2,4.6l6.3,5.8l-5,10.5l-8.5-1.4l-3.3,3.1l0.5,8.6L159.4,118.3z M147.6,106l9.4,0.5
						l4.2,5.8l3.9-1.4l-0.4-7.2l6.9-6.3l7.2,1.2l1.8-3.8l-5.3-4.9l0.3-9.3l5.9-4.3l-1.3-3.9l-7.2,0.4l-6.4-6.8l1.2-7.3l-3.9-1.8
						l-4.7,5.3l-9.2-0.4l-4.5-5.9l-3.9,1.3l0.4,7.2l-7.1,6.3l-7.1-1.1c-0.5,1-1.2,2.4-1.9,3.9l5.6,4.9l-0.4,9l-5.8,4.5l1.4,4
						l7.3-0.3l5.9,6.8l-1,7.2l3.9,1.8L147.6,106z"/>
				</g>
				<g>
					<path fill="#231F20" d="M153.7,100.3c-2.3,0-4.6-0.5-6.7-1.5c-7.8-3.7-11.1-13-7.4-20.7c2.6-5.4,8.1-8.9,14.1-8.9
						c2.3,0,4.6,0.5,6.7,1.5c3.8,1.8,6.6,4.9,8,8.8c1.4,3.9,1.2,8.1-0.6,11.9C165.2,96.8,159.7,100.3,153.7,100.3z M153.7,74.2
						c-4.1,0-7.8,2.4-9.6,6.1c-2.5,5.3-0.2,11.6,5,14.1c1.4,0.7,3,1,4.5,1c4.1,0,7.8-2.4,9.6-6.1c1.2-2.6,1.4-5.4,0.4-8.1
						c-0.9-2.7-2.9-4.8-5.4-6C156.8,74.5,155.3,74.2,153.7,74.2z"/>
				</g>
			</g>
			<g>
				<g>
					<path fill="#231F20" d="M169.6,196.5l-12.1-3.5l-0.1-9.5l-4.3-3.4l-9.2,2.2l-6.3-11.1l6.6-7l-0.5-5.1l-8-5.3l3.5-12l9.6-0.3
						l3.1-4l-2.2-9.6l1.6-0.9c8.1-4.5,8.2-4.5,8.7-4.6l1.3-0.2l6.4,6.3l5.6-0.6l5.1-8l12,3.6l0.3,9.7l4.1,3.2l9.2-2.1l6.3,11.1
						l-6.8,6.9l0.7,5.3l8.2,5.1l-3.6,12l-9.5,0.1l-3.3,4.3l2,9.4l-11,6.1l-6.8-6.8l-5.4,0.7L169.6,196.5z M162.5,189.2l4.9,1.4
						l4.4-6.9l10.1-1.3l5.9,5.9l4.5-2.5l-1.7-8l6.2-8l8.3-0.1l1.4-4.8l-6.9-4.3l-1.3-10.1l5.9-6l-2.6-4.6l-7.8,1.8l-7.9-6.1
						l-0.2-8.4l-4.9-1.4l-4.3,6.9l-10.3,1.1l-5.8-5.7c-1.2,0.7-3,1.6-4.6,2.5l1.9,8.2l-6.1,7.7l-8.3,0.3l-1.4,5l7,4.6l0.9,9.8
						l-5.7,6l2.6,4.6l7.9-1.9l8.1,6.4L162.5,189.2z"/>
				</g>
				<g>
					<path fill="#231F20" d="M173.9,176.2c-6.2,0-12-3.4-15-8.8c-4.6-8.3-1.6-18.7,6.7-23.3c2.5-1.4,5.4-2.2,8.3-2.2
						c6.2,0,12,3.4,15,8.8c4.6,8.3,1.6,18.8-6.7,23.3C179.7,175.4,176.8,176.2,173.9,176.2z M173.9,146.8c-2.1,0-4.1,0.5-5.9,1.5
						c-5.9,3.3-8,10.7-4.7,16.5c2.1,3.9,6.2,6.3,10.6,6.3c2.1,0,4.1-0.5,5.9-1.5c5.9-3.3,8-10.7,4.7-16.5
						C182.4,149.2,178.3,146.8,173.9,146.8z"/>
				</g>
			</g>
		</g>
	</g>
</g>
</svg>
