<svg xmlns="http://www.w3.org/2000/svg" width="263.279" height="263.279" viewBox="-1.3 -1.3 263.279 263.279"><path fill="#020202" d="M130.34-1.3C57.754-1.3-1.3 57.754-1.3 130.34c0 72.587 59.053 131.64 131.64 131.64 72.587 0 131.64-59.053 131.64-131.64 0-72.586-59.053-131.64-131.64-131.64zm0 255.68C61.944 254.38 6.3 198.736 6.3 130.34 6.3 61.944 61.944 6.3 130.34 6.3c68.396 0 124.04 55.644 124.04 124.04 0 68.396-55.644 124.04-124.04 124.04z"/><path fill="#020202" d="M130.514 130.23a8.002 8.002 0 0 0-.348-.128v.477l.348-.349z"/><path fill="#020202" d="M130.514 130.23a8.002 8.002 0 0 0-.348-.128v.477l.348-.349z"/><path fill="#020202" d="M192.485 171.121V89.059c6.562-2.081 11.332-8.227 11.332-15.468 0-8.948-7.279-16.228-16.227-16.228-6.63 0-12.319 4.009-14.834 9.72H87.924c-2.514-5.711-8.205-9.72-14.834-9.72-8.947 0-16.227 7.279-16.227 16.228 0 7.284 4.825 13.46 11.446 15.506v82.488c-6.621 2.045-11.446 8.223-11.446 15.506 0 8.947 7.279 16.227 16.227 16.227 7.268 0 13.434-4.803 15.494-11.4h83.696c2.212 6.336 8.23 10.9 15.311 10.9 8.947 0 16.227-7.279 16.227-16.227-.001-7.243-4.772-13.388-11.333-15.47zM180.426 67.742a9.25 9.25 0 0 1 16.414 5.848c0 3.309-1.743 6.204-4.355 7.839a9.196 9.196 0 0 1-9.07.407 9.256 9.256 0 0 1-4.78-5.97 9.175 9.175 0 0 1-.265-1.703c-.012-.19-.029-.379-.029-.573a9.201 9.201 0 0 1 2.085-5.848zM89.278 74.27h82.125a16.103 16.103 0 0 0 1.882 6.964l-42.896 43.054L87.427 81.17a16.116 16.116 0 0 0 1.851-6.9zm82.278 110.144h-82.49a16.168 16.168 0 0 0-2.131-5.744l43.453-43.613 43.205 43.365c-1.058 1.803-1.745 3.834-2.037 5.992zM63.84 73.59c0-5.108 4.143-9.25 9.25-9.25a9.232 9.232 0 0 1 7.165 3.402 9.212 9.212 0 0 1 2.085 5.848c0 .193-.017.382-.029.573a9.267 9.267 0 0 1-.245 1.627 9.258 9.258 0 0 1-8.976 7.051 9.188 9.188 0 0 1-4.781-1.343c-2.675-1.622-4.469-4.552-4.469-7.908zm17.13 118.326c-1.627 2.65-4.542 4.424-7.88 4.424-5.107 0-9.25-4.143-9.25-9.25 0-3.357 1.794-6.287 4.469-7.908a9.194 9.194 0 0 1 4.781-1.342 9.258 9.258 0 0 1 8.664 6.031 9.05 9.05 0 0 1 .44 1.625 9.29 9.29 0 0 1 .146 1.594 9.19 9.19 0 0 1-1.37 4.826zm.603-18.633a16.094 16.094 0 0 0-5.509-2.135V89.531a16.113 16.113 0 0 0 6.317-2.658l42.643 42.799-43.451 43.611zm54.179-43.61l42.602-42.759a16.123 16.123 0 0 0 6.376 2.635v81.082a16.132 16.132 0 0 0-5.874 2.305l-43.104-43.263zm51.838 66.167a9.234 9.234 0 0 1-7.554-3.924 9.201 9.201 0 0 1-1.696-5.326c0-.371.028-.734.07-1.094a9.274 9.274 0 0 1 5.564-7.422c.246-.105.499-.195.755-.279a9.195 9.195 0 0 1 7.755.955c2.612 1.635 4.355 4.531 4.355 7.84a9.249 9.249 0 0 1-9.249 9.25z"/></svg>