<svg xmlns="http://www.w3.org/2000/svg" width="263.28" height="263.28" viewBox="-3.148 -5.69 263.28 263.28"><path fill="#020202" d="M128.492-5.69c-72.586 0-131.64 59.053-131.64 131.64 0 72.587 59.053 131.64 131.64 131.64 72.587 0 131.64-59.053 131.64-131.64 0-72.586-59.053-131.64-131.64-131.64zm0 255.68c-68.396 0-124.04-55.645-124.04-124.041S60.096 1.91 128.492 1.91s124.041 55.644 124.041 124.04-55.645 124.04-124.041 124.04z"/><g fill="#020202"><path d="M126.485 141.778l.249-6.613 10.182-7.454-5.6-16.269-12.781.788-4.479-4.774 2.006-12.731-15.95-7.396-8.254 9.376-6.393-.248-7.763-10.201-16.207 5.578.733 12.589-5.14 4.564-11.629-1.843-1.374 1.441c-.521.545-.629.658-5.853 11.688l-1.222 2.575 9.722 8.632-.302 6.156-10.102 7.742 5.671 16.178 12.76-.506 4.127 4.729-1.743 12.715 15.926 7.385 8.18-9.49 6.664.355 7.405 10.203 16.321-5.83-.69-12.682 4.842-4.463 12.603 2.057 7.422-15.676-9.331-8.575zm-23.315 23.494l.577 10.596-5.62 2.008-6.188-8.525-14.009-.751-6.868 7.971-5.625-2.607 1.449-10.574-8.789-10.074-10.783.426-1.99-5.678 8.526-6.537.653-13.31-8.181-7.263a931.687 931.687 0 0 1 2.663-5.557l10.462 1.658 10.583-9.396-.614-10.516 5.564-1.915 6.609 8.684 13.586.525 6.889-7.827 5.597 2.596-1.691 10.739 9.467 10.091 10.576-.652 1.895 5.505-8.631 6.316-.519 13.793 7.796 7.164-2.579 5.445-10.61-1.732-10.195 9.397z"/><path d="M96.48 115.772a22.824 22.824 0 0 0-9.852-2.224c-8.867 0-17.048 5.178-20.843 13.19-5.439 11.484-.52 25.253 10.966 30.695a22.834 22.834 0 0 0 9.851 2.221c8.869 0 17.051-5.176 20.845-13.188a22.897 22.897 0 0 0 .874-17.618c-2.073-5.798-6.278-10.443-11.841-13.076zm-9.878 36.283c-2.291 0-4.51-.502-6.598-1.49-7.698-3.646-10.996-12.877-7.352-20.576 2.545-5.371 8.031-8.842 13.976-8.842 2.289 0 4.509.502 6.601 1.491a15.358 15.358 0 0 1 7.936 8.762 15.355 15.355 0 0 1-.585 11.812c-2.544 5.372-8.03 8.843-13.978 8.843zm36.613-58.267l6.108 11.96 8.855-1.56 2.354 2.058-.009 9.064 13.134 4.052 4.813-7.408 3.346-.273 6.146 6.432 12.074-6.256-1.687-8.805 2.108-2.548 8.996.239 4.113-12.96-7.347-5.111-.324-3.328 6.396-6.163-6.076-12.071-8.881 1.769-2.545-2.067.191-9.079-13.162-4.061-4.881 7.343-3.177.307-6.376-6.374-12.014 6.048 1.71 8.737-2.281 2.656-8.036-.177-1.171 1.584c-.458.621-.496.671-3.068 8.779l-.864 2.718 7.61 5.106.261 3.027-6.316 6.362zM145.25 65.89l-1.311-6.697 1.959-.986 5.027 5.026 10.342-1 3.738-5.623 2.258.696-.148 7.061 8.199 6.663 6.714-1.335.957 1.901-5.011 4.83L179 86.906l5.628 3.917-.688 2.171-6.979-.185-6.748 8.157 1.294 6.751-1.981 1.027-4.715-4.935-10.676.875-3.717 5.723-2.286-.705.007-6.903-7.692-6.728-6.907 1.217-1.05-2.052 4.921-4.954-.876-10.166-5.897-3.958c.256-.804.503-1.57.723-2.244l6.867.15 7.022-8.174z"/><path d="M153.121 98.124c2.183.691 4.433.887 6.688.581 5.84-.793 10.765-4.935 12.547-10.551a15.217 15.217 0 0 0-1-11.683 15.213 15.213 0 0 0-8.968-7.553 15.19 15.19 0 0 0-6.69-.582c-5.839.793-10.764 4.935-12.546 10.551-2.556 8.052 1.917 16.681 9.969 19.237zm3.533-22.753a8.135 8.135 0 0 1 3.587.315 8.165 8.165 0 0 1 4.812 4.052 8.166 8.166 0 0 1 .537 6.268 8.269 8.269 0 0 1-6.736 5.663 8.125 8.125 0 0 1-3.584-.315 8.166 8.166 0 0 1-4.81-4.055 8.172 8.172 0 0 1-.541-6.267 8.264 8.264 0 0 1 6.735-5.661zm53.415 87.102l8.584-5.252-3.944-14.219-9.761-.164-2.484-3.158 2.14-9.764-12.395-7.337-7.124 6.813-4.327-.609-4.688-7.684-1.969-.129c-.759-.049-.855-.056-9.992 2.4l-2.751.74-.216 10.152-3.049 2.342-9.715-2.092-7.256 12.422 6.751 7.332-.582 3.895-8.455 5.406 3.936 14.189 9.785.064 2.554 3.35-2.326 9.574 12.617 7.271 7.199-6.832 4.12.502 5.155 8.539 14.065-3.779.377-9.904 3.29-2.592 9.577 2.285 7.372-12.449-6.95-7.219.462-4.093zm-21.212 20.269l-.298 7.814-3.134.844-4.109-6.811-11.348-1.385-5.688 5.395-2.767-1.594 1.834-7.562-7.015-9.197-7.778-.049-.901-3.25 6.636-4.244 1.635-10.908-5.41-5.877 1.646-2.816 7.771 1.674 8.728-6.713.17-8.09c1.13-.301 2.266-.6 3.229-.852l4.078 6.687 11.534 1.623 5.624-5.376 2.706 1.603-1.729 7.904 6.934 8.818 7.698.129.893 3.221-6.862 4.197-1.282 11.338 5.42 5.625-1.57 2.652-7.706-1.838-8.939 7.038z"/><path d="M183.235 142.719a18.16 18.16 0 0 0-9.083.086c-4.669 1.254-8.573 4.258-10.993 8.457-2.421 4.201-3.062 9.084-1.809 13.752a18.152 18.152 0 0 0 13.126 12.889c2.974.742 6.116.711 9.085-.088 9.65-2.592 15.393-12.557 12.798-22.209a18.147 18.147 0 0 0-13.124-12.887zm-6.943 27.908a10.644 10.644 0 0 1-7.699-7.557 10.546 10.546 0 0 1 1.061-8.061 10.544 10.544 0 0 1 6.443-4.959 10.631 10.631 0 0 1 5.32-.055 10.64 10.64 0 0 1 7.697 7.557c1.522 5.658-1.844 11.5-7.502 13.02a10.619 10.619 0 0 1-5.32.055z"/></g></svg>