<svg xmlns="http://www.w3.org/2000/svg" width="263.28" height="263.28" viewBox="-0.763 0.465 263.28 263.28"><path fill="#020202" d="M130.876.465C58.29.465-.764 59.518-.764 132.104c0 72.588 59.053 131.641 131.64 131.641 72.587 0 131.64-59.053 131.64-131.641 0-72.586-59.052-131.639-131.64-131.639zm0 255.68c-68.396 0-124.04-55.645-124.04-124.041 0-68.396 55.644-124.04 124.04-124.04s124.041 55.644 124.041 124.04c0 68.397-55.645 124.041-124.041 124.041z"/><path fill="#020202" d="M155.677 78.805h-50.6v15h-39v91.6h129.6v-91.6h-40v-15zm-7.6 7.6v7.4h-35.401v-7.4h35.401zm33.6 83.998v-25.9c2.256-.766 4.443-2.004 6.4-3.611v36.912H73.676v-36.651c1.988 1.988 4.977 3.167 7.402 3.337v25.914h100.599zm-7.6-7.6h-85.4v-17.4h10.399v.701c0 2.096 1.705 3.799 3.8 3.799s3.8-1.703 3.8-3.799v-.701h49.401v.701c0 2.096 1.703 3.799 3.799 3.799s3.801-1.703 3.801-3.799v-.701l10.4.002v17.398zm2.338-25h-12.738v-.699c0-2.096-1.705-3.801-3.801-3.801s-3.799 1.705-3.799 3.801v.699h-49.401v-.699c0-2.096-1.705-3.801-3.8-3.801s-3.8 1.705-3.8 3.801v.699h-15.7c-5.349 0-9.7-4.912-9.7-10.95v-25.45h114.401v24.7c0 5.577-6.104 11.7-11.662 11.7z"/></svg>