<svg xmlns="http://www.w3.org/2000/svg" width="263.279" height="263.281" viewBox="-1.3 -1.3 263.279 263.281"><g fill="#231F20"><path d="M130.34-1.3C57.754-1.3-1.3 57.753-1.3 130.34c0 72.588 59.053 131.642 131.64 131.642 72.587 0 131.64-59.054 131.64-131.642 0-72.587-59.053-131.64-131.64-131.64zm0 255.682C61.944 254.382 6.3 198.736 6.3 130.34S61.944 6.3 130.34 6.3c68.396 0 124.04 55.644 124.04 124.04 0 68.396-55.644 124.042-124.04 124.042z"/><path d="M72.431 197.849h116.497V65.797H72.431v132.052zM181.328 73.396V190.25H80.031V73.396h101.297z"/><path d="M172.469 84.925h-85.58v26.585h85.58V84.925zm-18.294 20.285h-7.001v-9.702h-5.999v9.702h-6.667V91.224h19.667v13.986zm5.999-13.986h5.809v13.985h-5.809V91.224zm-31.666 13.986h-6V91.224h6v13.986zm-12 0H93.373V91.224h23.134v13.986zm-29.135 31.094h19.31v-19.312h-19.31v19.312zm6.3-13.012h6.71v6.713h-6.71v-6.713zm-6.3 35.012h19.31v-19.312h-19.31v19.312zm6.3-13.012h6.71v6.713h-6.71v-6.713zm16.171 13.012h19.31v-19.312h-19.31v19.312zm6.3-13.012h6.71v6.713h-6.71v-6.713zm16.171 13.012h19.31v-19.312h-19.31v19.312zm6.3-13.012h6.71v6.713h-6.71v-6.713zm-51.242 35.012h19.31v-19.312h-19.31v19.312zm6.3-13.012h6.71v6.713h-6.71v-6.713zm15.661 13.012h42.8v-19.312h-42.8v19.312zm6.3-13.012h30.201v6.713h-30.201v-6.713zm39.149 13.216h19.312v-41.516h-19.312v41.516zm6.3-35.216h6.713v28.916h-6.713v-28.916zm-51.376-8.988h19.31v-19.312h-19.31v19.312zm6.3-13.012h6.71v6.713h-6.71v-6.713zm16.033 13.012h19.31v-19.312h-19.31v19.312zm6.3-13.012h6.71v6.713h-6.71v-6.713zm16.033 13.012h19.311v-19.312h-19.311v19.312zm6.301-13.012h6.709v6.713h-6.709v-6.713z"/></g></svg>