<?xml version="1.0" encoding="utf-8"?>
<!-- Generator: Adobe Illustrator 18.0.0, SVG Export Plug-In . SVG Version: 6.00 Build 0)  -->
<!DOCTYPE svg PUBLIC "-//W3C//DTD SVG 1.1//EN" "http://www.w3.org/Graphics/SVG/1.1/DTD/svg11.dtd">
<svg version="1.1" id="Warstwa_1" xmlns="http://www.w3.org/2000/svg" xmlns:xlink="http://www.w3.org/1999/xlink" x="0px" y="0px"
	 viewBox="0 0 260.7 260.7" enable-background="new 0 0 260.7 260.7" xml:space="preserve">
<g id="apla">
</g>
<g id="Layer_1">
	<g>
		<path fill="#231F20" d="M187.6,196.6H73.7V67.1h113.9V196.6z M78.7,191.6h103.9V72.1H78.7V191.6z"/>
	</g>
	<g>
		<rect x="156.6" y="93.6" fill="#231F20" width="5" height="9.3"/>
	</g>
	<g>
		<rect x="148.5" y="98.2" fill="#231F20" width="5" height="4.7"/>
	</g>
	<g>
		<rect x="140.4" y="93.6" fill="#231F20" width="5" height="9.3"/>
	</g>
	<g>
		<rect x="124.2" y="93.6" fill="#231F20" width="5" height="9.3"/>
	</g>
	<g>
		<rect x="132.3" y="93.6" fill="#231F20" width="5" height="9.3"/>
	</g>
	<g>
		<path fill="#231F20" d="M111.8,178.5v-16.7h37.8v16.7L111.8,178.5z M116.8,166.8v6.7l27.8,0v-6.7H116.8z"/>
	</g>
	<g>
		<path fill="#231F20" d="M107.4,178.5H90.7v-16.7h16.7V178.5z M95.7,173.5h6.7v-6.7h-6.7V173.5z"/>
	</g>
	<g>
		<path fill="#231F20" d="M170.7,178.5H154V141h16.7V178.5z M159,173.5h6.7V146H159V173.5z"/>
	</g>
	<g>
		<path fill="#231F20" d="M149.6,157.8h-16.7V141h16.7V157.8z M137.9,152.8h6.7V146h-6.7V152.8z"/>
	</g>
	<g>
		<path fill="#231F20" d="M128.5,157.8h-16.7V141h16.7V157.8z M116.8,152.8h6.7V146h-6.7V152.8z"/>
	</g>
	<g>
		<path fill="#231F20" d="M107.4,157.8H90.7V141h16.7V157.8z M95.7,152.8h6.7V146h-6.7V152.8z"/>
	</g>
	<g>
		<path fill="#231F20" d="M170.7,137H154v-16.7h16.7V137z M159,132h6.7v-6.7H159V132z"/>
	</g>
	<g>
		<path fill="#231F20" d="M149.6,137h-16.7v-16.7h16.7V137z M137.9,132h6.7v-6.7h-6.7V132z"/>
	</g>
	<g>
		<path fill="#231F20" d="M128.5,137h-16.7v-16.7h16.7V137z M116.8,132h6.7v-6.7h-6.7V132z"/>
	</g>
	<g>
		<path fill="#231F20" d="M107.4,137H90.7v-16.7h16.7V137z M95.7,132h6.7v-6.7h-6.7V132z"/>
	</g>
	<g>
		<path fill="#231F20" d="M170.7,110.2h-80v-24h80V110.2z M95.7,105.2h70v-14h-70V105.2z"/>
	</g>
	<g>
		<path fill="#231F20" d="M107.4,137H90.7v-16.7h16.7V137z M95.7,132h6.7v-6.7h-6.7V132z"/>
	</g>
	<g>
		<path fill="#231F20" d="M128.5,137h-16.7v-16.7h16.7V137z M116.8,132h6.7v-6.7h-6.7V132z"/>
	</g>
	<g>
		<path fill="#231F20" d="M149.6,137h-16.7v-16.7h16.7V137z M137.9,132h6.7v-6.7h-6.7V132z"/>
	</g>
	<g>
		<path fill="#231F20" d="M170.7,137H154v-16.7h16.7V137z M159,132h6.7v-6.7H159V132z"/>
	</g>
	<g>
		<path fill="#231F20" d="M107.4,157.8H90.7V141h16.7V157.8z M95.7,152.8h6.7V146h-6.7V152.8z"/>
	</g>
	<g>
		<path fill="#231F20" d="M128.5,157.8h-16.7V141h16.7V157.8z M116.8,152.8h6.7V146h-6.7V152.8z"/>
	</g>
	<g>
		<path fill="#231F20" d="M149.6,157.8h-16.7V141h16.7V157.8z M137.9,152.8h6.7V146h-6.7V152.8z"/>
	</g>
	<g>
		<path fill="#231F20" d="M170.7,178.5H154V141h16.7V178.5z M159,173.5h6.7V146H159V173.5z"/>
	</g>
	<g>
		<path fill="#231F20" d="M107.4,178.5H90.7v-16.7h16.7V178.5z M95.7,173.5h6.7v-6.7h-6.7V173.5z"/>
	</g>
	<g>
		<path fill="#231F20" d="M111.8,178.5v-16.7h37.8v16.7L111.8,178.5z M116.8,166.8v6.7l27.8,0v-6.7H116.8z"/>
	</g>
</g>
</svg>
