<?xml version="1.0" encoding="utf-8"?>
<!-- Generator: Adobe Illustrator 18.0.0, SVG Export Plug-In . SVG Version: 6.00 Build 0)  -->
<!DOCTYPE svg PUBLIC "-//W3C//DTD SVG 1.1//EN" "http://www.w3.org/Graphics/SVG/1.1/DTD/svg11.dtd">
<svg width="140" height="140" version="1.1" id="Warstwa_1" xmlns="http://www.w3.org/2000/svg" xmlns:xlink="http://www.w3.org/1999/xlink" x="0px" y="0px"
	 viewBox="0 0 260.7 260.7" enable-background="new 0 0 260.7 260.7" xml:space="preserve">
<g id="apla">
</g>
<g id="Layer_1">
	<g>
		<path fill="#231F20" d="M162,18.4L95,58.1v179.8h67V18.4z M125,231.9v-13h8v13H125z M157,232.9h-19v-19h-18v19h-20V61l57-33.8
			V232.9z"/>
		<rect x="139" y="71.9" fill="#231F20" width="8" height="6"/>
		<rect x="139" y="82.9" fill="#231F20" width="8" height="6"/>
		<rect x="139" y="93.9" fill="#231F20" width="8" height="6"/>
		<rect x="139" y="104.9" fill="#231F20" width="8" height="6"/>
		<rect x="139" y="115.9" fill="#231F20" width="8" height="6"/>
		<rect x="139" y="126.9" fill="#231F20" width="8" height="6"/>
		<rect x="139" y="137.9" fill="#231F20" width="8" height="6"/>
		<rect x="139" y="148.9" fill="#231F20" width="8" height="6"/>
		<rect x="139" y="159.9" fill="#231F20" width="8" height="6"/>
		<rect x="125" y="71.9" fill="#231F20" width="8" height="6"/>
		<rect x="125" y="82.9" fill="#231F20" width="8" height="6"/>
		<rect x="125" y="93.9" fill="#231F20" width="8" height="6"/>
		<rect x="125" y="104.9" fill="#231F20" width="8" height="6"/>
		<rect x="125" y="115.9" fill="#231F20" width="8" height="6"/>
		<rect x="125" y="126.9" fill="#231F20" width="8" height="6"/>
		<rect x="125" y="137.9" fill="#231F20" width="8" height="6"/>
		<rect x="125" y="148.9" fill="#231F20" width="8" height="6"/>
		<rect x="125" y="159.9" fill="#231F20" width="8" height="6"/>
		<rect x="111" y="71.9" fill="#231F20" width="8" height="6"/>
		<rect x="111" y="82.9" fill="#231F20" width="8" height="6"/>
		<rect x="111" y="93.9" fill="#231F20" width="8" height="6"/>
		<rect x="111" y="104.9" fill="#231F20" width="8" height="6"/>
		<rect x="111" y="115.9" fill="#231F20" width="8" height="6"/>
		<rect x="111" y="126.9" fill="#231F20" width="8" height="6"/>
		<rect x="111" y="137.9" fill="#231F20" width="8" height="6"/>
		<rect x="111" y="148.9" fill="#231F20" width="8" height="6"/>
		<rect x="111" y="159.9" fill="#231F20" width="8" height="6"/>
	</g>
</g>
</svg>
