<svg xmlns="http://www.w3.org/2000/svg" width="263.279" height="263.279" viewBox="-1.3 -1.3 263.279 263.279"><path fill="#020202" d="M130.34-1.3C57.754-1.3-1.3 57.754-1.3 130.34c0 72.587 59.053 131.64 131.64 131.64 72.587 0 131.64-59.053 131.64-131.64 0-72.586-59.053-131.64-131.64-131.64zm0 255.68C61.944 254.38 6.3 198.736 6.3 130.34 6.3 61.944 61.944 6.3 130.34 6.3c68.396 0 124.04 55.644 124.04 124.04 0 68.396-55.644 124.04-124.04 124.04z"/><path fill="#020202" d="M93.655 239.21h69.6V16.094l-69.6 41.3V239.21zm38-19v10.4h-5.4v-10.4h5.4zm-13-7.599v19h-17.4V61.721l54.4-32.279v202.169h-16.4v-19h-20.6z"/><path d="M137.655 161.611h10.6v8.6h-10.6zm-14 0h10.6v8.6h-10.6zm-14 0h10.6v8.6h-10.6zm28-92.001h10.6v8.6h-10.6zm-14 0h10.6v8.6h-10.6zm-14 0h10.6v8.6h-10.6zm28 11.5h10.6v8.6h-10.6zm-14 0h10.6v8.6h-10.6zm-14 0h10.6v8.6h-10.6zm28 11.5h10.6v8.6h-10.6zm-14 0h10.6v8.6h-10.6zm-14 0h10.6v8.6h-10.6zm28 11.5h10.6v8.6h-10.6zm-14 0h10.6v8.6h-10.6zm-14 0h10.6v8.6h-10.6zm28 11.501h10.6v8.6h-10.6zm-14 0h10.6v8.6h-10.6zm-14 0h10.6v8.6h-10.6zm28 11.5h10.6v8.6h-10.6zm-14 0h10.6v8.6h-10.6zm-14 0h10.6v8.6h-10.6zm28 11.5h10.6v8.6h-10.6zm-14 0h10.6v8.6h-10.6zm-14 0h10.6v8.6h-10.6zm28 11.501h10.6v8.6h-10.6zm-14 0h10.6v8.6h-10.6zm-14 0h10.6v8.6h-10.6z" fill="#020202"/></svg>