<svg xmlns="http://www.w3.org/2000/svg" width="263.279" height="263.279" viewBox="-1.246 -1.246 263.279 263.279"><path fill="#020202" d="M130.394-1.246c-72.586 0-131.64 59.053-131.64 131.64s59.053 131.639 131.64 131.639 131.639-59.053 131.639-131.639S202.98-1.246 130.394-1.246zm0 255.68c-68.396 0-124.04-55.645-124.04-124.041S61.998 6.353 130.394 6.353s124.04 55.644 124.04 124.04-55.644 124.041-124.04 124.041z"/><path d="M98.303 84.243h8.042v8.042h-8.042zm15.29.34h54.276v7.6h-54.276zm-15.29 23.43h8.042v8.042h-8.042zm15.29.34h54.276v7.6h-54.276zm-15.29 23.429h8.042v8.042h-8.042zm15.29.34h54.276v7.6h-54.276z" fill="#020202"/><path fill="#020202" d="M195.133 164.799V53.261H75.038v149.583h81.626c5.099 5.357 12.206 8.419 19.593 8.419 14.915 0 27.05-12.135 27.05-27.05 0-7.265-2.971-14.286-8.174-19.37v-.044zm-18.876 38.865c-10.725 0-19.45-8.726-19.45-19.45s8.726-19.45 19.45-19.45c4.136 0 8.084 1.28 11.418 3.702a19.526 19.526 0 0 1 8.032 15.748c0 10.724-8.726 19.45-19.45 19.45zM82.638 60.861h104.896v98.778a27.019 27.019 0 0 0-11.276-2.475c-14.915 0-27.05 12.135-27.05 27.05 0 3.802.81 7.575 2.355 11.031H82.638V60.861z"/><path fill="#020202" d="M185.489 177.42l-8.178 11.122-11.414-14.027-5.387 4.384 17.079 20.992 13.497-18.357z"/></svg>