<svg xmlns="http://www.w3.org/2000/svg" width="263.279" height="263.279" viewBox="-1.3 -5.736 263.279 263.279"><g fill="#020202"><path d="M130.34-5.736C57.754-5.736-1.3 53.317-1.3 125.904s59.053 131.64 131.64 131.64c72.587 0 131.64-59.053 131.64-131.64S202.927-5.736 130.34-5.736zm0 255.68c-68.396 0-124.04-55.645-124.04-124.04 0-68.396 55.644-124.04 124.04-124.04 68.396 0 124.04 55.644 124.04 124.04 0 68.395-55.644 124.04-124.04 124.04z"/><path d="M130.34 65.909c-48.533 0-88.017 39.484-88.017 88.017v3.801h7.6v-3.801c0-44.341 36.075-80.417 80.417-80.417s80.417 36.076 80.417 80.417v3.801h7.6v-3.801c0-48.533-39.485-88.017-88.017-88.017z"/><path d="M108.336 84.406l-8.016 3.046 2.96 7.722 7.972-3.03zM94.28 90.52l-7.19 4.676 4.528 6.92 7.15-4.649zm-20.452 31.95l-6.95-4.477 4.632-7.192 6.95 4.477zm-15.957 24.661l8.183 1.193 1.255-8.435-8.175-1.242zm2.95-15.041l7.747 2.891 2.995-7.998-7.739-2.913zm63.752-42.516l-1.197-8.183-8.5 1.29 1.285 8.169zm61.267 32.244l7.44-3.613 3.736 7.695-7.44 3.612zm13.458 10.467l-8.029 1.975 2.009 8.287 8.044-1.926zm-26.157-36.977l-5.29 6.356 6.531 5.475 5.337-6.316zm20.807 52.257l.21 8.515 8.268-.168-.212-8.584zm-48.595-64.829l-2.183 7.977 8.199 2.285 2.261-7.954zm14.574 4.796l-3.833 7.327 7.547 3.977 3.876-7.305zM95.62 124.846l-18.86-18.86 5.374-5.374 18.86 18.86zm68.558-1.541l20.408-17.178 4.894 5.815-20.407 17.177zm-10.16-24.004l-20.324 37.577a17.504 17.504 0 0 0-5.126-.768c-9.683 0-17.561 7.877-17.561 17.561 0 9.682 7.877 17.561 17.561 17.561 9.683 0 17.561-7.879 17.561-17.561 0-5.172-2.261-9.814-5.83-13.031l20.404-37.724-6.685-3.615zm-25.45 64.809c-5.756 0-10.439-4.684-10.439-10.439s4.683-10.439 10.439-10.439c.551 0 1.087.055 1.615.137l-6.318 11.684 6.685 3.613 6.199-11.461a10.39 10.39 0 0 1 2.259 6.467c-.001 5.754-4.685 10.438-10.44 10.438zm1.722-83.967h7.85v26.6h-7.85z"/></g></svg>