<?xml version="1.0" encoding="utf-8"?>
<!-- Generator: Adobe Illustrator 18.0.0, SVG Export Plug-In . SVG Version: 6.00 Build 0)  -->
<!DOCTYPE svg PUBLIC "-//W3C//DTD SVG 1.1//EN" "http://www.w3.org/Graphics/SVG/1.1/DTD/svg11.dtd">
<svg version="1.1" id="Warstwa_1" xmlns="http://www.w3.org/2000/svg" xmlns:xlink="http://www.w3.org/1999/xlink" x="0px" y="0px"
	 viewBox="0 0 260.7 260.7" enable-background="new 0 0 260.7 260.7" xml:space="preserve">
<g id="apla">
</g>
<g id="Layer_1">
	<g>
		<path fill="#231F20" d="M217.1,159.3h-5v-2.5c0-45.1-36.7-81.7-81.7-81.7s-81.7,36.7-81.7,81.7v2.5h-5v-2.5
			c0-47.8,38.9-86.7,86.7-86.7s86.7,38.9,86.7,86.7V159.3z"/>
	</g>
	<g>
		<g>
			<path fill="#231F20" d="M195.4,157.7l-0.1-5.9l5.7-0.2l0.1,6L195.4,157.7z M65,149.7l-5.6-0.8l0.9-5.9l5.6,0.9L65,149.7z
				 M194.2,143.9l-1.4-5.8l5.5-1.4l1.4,5.8L194.2,143.9z M67.8,136.2l-5.3-2l2.1-5.6l5.3,2L67.8,136.2z M190.2,130.7l-2.6-5.4
				l5.1-2.5l2.6,5.4L190.2,130.7z M73.4,123.6l-4.8-3.1l3.2-5l4.8,3.1L73.4,123.6z M174.2,108.2l-4.5-3.8l3.6-4.4l4.6,3.8
				L174.2,108.2z M92,103.2l-3.1-4.7l5-3.3L97,100L92,103.2z M163.1,100l-5.3-2.8l2.6-5l5.3,2.8L163.1,100z M104,96.4l-2-5.3
				l5.6-2.1l2,5.3L104,96.4z M150.5,94.3l-5.7-1.6l1.5-5.5l5.8,1.6L150.5,94.3z M117.2,92.3l-0.9-5.6l5.9-0.9l0.8,5.6L117.2,92.3z"
				/>
		</g>
	</g>
	<g>
		
			<rect x="76.8" y="113.1" transform="matrix(-0.7071 -0.7071 0.7071 -0.7071 69.9656 260.2305)" fill="#231F20" width="24.1" height="5"/>
	</g>
	<g>
		
			<rect x="174.3" y="108.5" transform="matrix(-0.644 -0.7651 0.7651 -0.644 198.474 333.4128)" fill="#231F20" width="5" height="24.1"/>
	</g>
	<g>
		
			<rect x="121.3" y="95.2" transform="matrix(-3.610176e-02 -0.9993 0.9993 -3.610176e-02 40.5497 234.5319)" fill="#231F20" width="24.1" height="5"/>
	</g>
	<g>
		<path fill="#231F20" d="M130.5,168.6c-7.2,0-13-5.8-13-13s5.8-13,13-13s13,5.8,13,13S137.6,168.6,130.5,168.6z M130.5,147.6
			c-4.4,0-8,3.6-8,8s3.6,8,8,8c4.4,0,8-3.6,8-8S134.9,147.6,130.5,147.6z"/>
	</g>
	<g>
		
			<rect x="141.7" y="100.5" transform="matrix(-0.8752 -0.4837 0.4837 -0.8752 207.0014 315.2742)" fill="#231F20" width="5" height="60.8"/>
	</g>
</g>
</svg>
