<svg xmlns="http://www.w3.org/2000/svg" viewBox="0 0 263.3 263.3"><path d="M127.2-1.3C54.6-1.3-4.4 57.8-4.4 130.3c0 72.6 59.1 131.6 131.6 131.6s131.6-59.1 131.6-131.6S199.8-1.3 127.2-1.3zm0 255.7c-68.4 0-124-55.6-124-124s55.6-124 124-124 124 55.6 124 124-55.6 124-124 124z"/><path d="M128.3 92.2c9.3 0 18-3.6 24.6-10.2 6.6-6.6 10.2-15.3 10.2-24.6 0-19.2-15.6-34.8-34.8-34.8-19.2 0-34.8 15.6-34.8 34.8 0 19.2 15.6 34.8 34.8 34.8zm0-62c15 0 27.2 12.2 27.2 27.2s-12.2 27.2-27.2 27.2-27.2-12.2-27.2-27.2 12.2-27.2 27.2-27.2zm67.1 113.6c-2.6-7-7.1-13.5-13-19.1l5.3-29.7-20.4 11.6 2.9-16-28.1 16c-3.8-.5-7.8-.8-11.7-.8-17.7 0-41.7 3.5-56.2 20.3-5.9 6.8-8.3 13.7-9.2 17.7H47.5V168h17.2c.4 3.4 1.5 8.1 3.9 13.2 3.6 7.7 11.2 17.7 26.8 22.5v20.8h24.2v-14.3c5.3.7 10.8.8 16.3.5v13.8h24.2v-18.9c16.2-6.1 28.6-17.1 34.4-30.3h12.4v-31.5h-11.5zm3.8 23.9h-10l-.9 2.5c-4.7 13-16.9 23.6-33.3 29.1l-2.6.9v16.7h-9v-14.6l-4.2.5c-7.5.8-15.4.6-22.8-.7l-4.5-.8V217h-9v-19l-2.9-.7c-27.9-7-28.1-31.8-28.1-32.9v-3.8h-17v-9h16.5l.3-3.5c.1-1.4 3.7-34.5 58.5-34.5 4 0 8 .3 11.8.9l1.3.2 16.3-9.3-2.9 16 20.4-11.6-3.2 17.9 1.6 1.4c6.5 5.7 11.1 12.5 13.2 19.7l.8 2.7h9.4v16.2z"/><path d="M103.7 150.5h51V128h-51v22.5zm7.6-14.9h35.8v7.3h-35.8v-7.3zm5.1-76.7h-2.5l-1 5.1h3.5v.1c0 2 .4 3.8 1.2 5.3.8 1.5 1.9 2.8 3.2 3.8 1.3 1 2.9 1.7 4.6 2.2 1.7.5 3.4.8 5.2.8 1.2 0 2.4-.2 3.7-.5 1.2-.3 2.4-.8 3.6-1.4 1.1-.6 2.2-1.4 3.2-2.4s1.9-2.1 2.7-3.4l-6.6-3.6c-.5 1-1.2 1.8-2.1 2.4-.9.6-1.8 1-2.8 1.3-.7.2-1.5.3-2.2.3h-.7c-1-.1-1.9-.3-2.7-.7-.8-.4-1.5-.9-2-1.6-.5-.7-.8-1.5-.8-2.4v-.1h8.8l1-5.1h-9.8v-2.1h8.8l1-5.2h-9.8v-.9c0-.9.2-1.7.8-2.5.5-.7 1.2-1.3 2-1.7.8-.4 1.7-.7 2.7-.8.3 0 .6-.1.9-.1.7 0 1.4.1 2.1.2 1 .2 1.9.7 2.8 1.3.9.6 1.6 1.4 2.1 2.4l6.1-3.3c-.6-1.3-1.4-2.5-2.4-3.5s-2-1.8-3.1-2.4c-1.1-.6-2.3-1.1-3.6-1.4-1.2-.3-2.5-.5-3.7-.4-1.8 0-3.6.3-5.3.8-1.7.5-3.2 1.3-4.6 2.3-1.3 1-2.4 2.3-3.2 3.8-.8 1.5-1.2 3.3-1.2 5.3v.9h-2.5l-1 5.2h3.5l.1 2z"/></svg>