<svg xmlns="http://www.w3.org/2000/svg" width="263.279" height="263.281" viewBox="-1.3 -1.3 263.279 263.281"><g fill="#020202"><path d="M130.34-1.3C57.754-1.3-1.3 57.754-1.3 130.341s59.053 131.641 131.64 131.641c72.587 0 131.64-59.054 131.64-131.641S202.927-1.3 130.34-1.3zm0 255.682c-68.396 0-124.04-55.645-124.04-124.041S61.944 6.3 130.34 6.3c68.396 0 124.04 55.645 124.04 124.041s-55.644 124.041-124.04 124.041z"/><path d="M130.259 107.483c3.361 0 6.69-.559 9.896-1.66 15.876-5.454 24.355-22.807 18.901-38.683-4.226-12.3-15.797-20.564-28.793-20.564-3.36 0-6.688.558-9.89 1.658-15.878 5.456-24.358 22.811-18.904 38.688 4.224 12.298 15.793 20.561 28.79 20.561zm.004-53.307a22.85 22.85 0 0 1 21.604 15.433c1.979 5.761 1.593 11.957-1.089 17.446-2.682 5.489-7.331 9.602-13.093 11.581a22.806 22.806 0 0 1-7.428 1.248 22.852 22.852 0 0 1-21.603-15.43c-4.092-11.914 2.271-24.938 14.186-29.032a22.796 22.796 0 0 1 7.423-1.246zm27.763 61.86h-55.527c-11.332 0-23.317 14.868-23.317 28.926v53.47h102.163v-53.47c-.001-14.058-11.987-28.926-23.319-28.926zm-46.546 21.025l3.727-6.661 8.799 17.895-12.526-11.234zm25.599 10.928l8.854-18.005 3.929 7.02-12.783 10.985zm-34.581-24.354h7.785l-8.406 15.023 28.247 25.329 29.407-25.271-8.438-15.081h6.935c7.052 0 15.719 11.76 15.719 21.326l-.001 45.87H86.781v-45.87c0-9.566 8.667-21.326 15.717-21.326zm18.416 1.149h19.106l-9.554 19.428-9.552-19.428z"/></g></svg>