<?xml version="1.0" encoding="utf-8"?>
<!-- Generator: Adobe Illustrator 18.0.0, SVG Export Plug-In . SVG Version: 6.00 Build 0)  -->
<!DOCTYPE svg PUBLIC "-//W3C//DTD SVG 1.1//EN" "http://www.w3.org/Graphics/SVG/1.1/DTD/svg11.dtd">
<svg version="1.1" id="Warstwa_1" xmlns="http://www.w3.org/2000/svg" xmlns:xlink="http://www.w3.org/1999/xlink" x="0px" y="0px"
	 viewBox="0 0 260.8 260.8" enable-background="new 0 0 260.8 260.8" xml:space="preserve">
<g id="apla">
</g>
<g id="Layer_1">
	<g>
		<path fill="#231F20" d="M159.5,69.8h-28v25.3l-5-7.8H95.7v29.5l-7.9-12.3H54.1v76.2h99.1v-24.3h32.2v-23.9h27.3v-51h-45.8
			L159.5,69.8z M148.2,175.6H59.1v-66.2h26l9.2,14.3h54V175.6z M180.4,151.3h-27.2v-32.6h-52.5V92.3h23l8.3,12.9h48.4L180.4,151.3
			L180.4,151.3z M207.7,127.4h-22.3v-27.2h-49V74.8h20.3l7.4,11.6h43.5L207.7,127.4L207.7,127.4z"/>
	</g>
</g>
</svg>
