<svg xmlns="http://www.w3.org/2000/svg" width="263.279" height="263.279" viewBox="-1.246 -1.246 263.279 263.279"><path fill="#020202" d="M130.393-1.246c-72.586 0-131.639 59.053-131.639 131.64s59.053 131.639 131.639 131.639c72.587 0 131.641-59.053 131.641-131.639S202.979-1.246 130.393-1.246zm0 255.68c-68.395 0-124.039-55.645-124.039-124.041 0-68.395 55.645-124.039 124.039-124.039 68.396 0 124.041 55.644 124.041 124.04s-55.645 124.04-124.041 124.04z"/><path fill="#020202" d="M157.386 71.322h-30.047V93.5l-3.001-4.688H91.606v26.339l-5.887-9.197H50.002v78.751h101.704v-24.258h32.193v-23.894h27.264V82.941h-46.339l-7.438-11.619zm-22.446 30.401v-22.8h18.288l7.438 11.619h42.898l-.001 38.414h-19.664v-27.233H134.94zm-35.734 18.576V96.412h20.974l8.264 12.91H176.3v43.528h-24.594V120.3h-52.5zm-17.645-6.744l9.181 14.345h53.365v49.207H57.602v-63.552h23.959z"/></svg>