<svg xmlns="http://www.w3.org/2000/svg" width="263.279" height="263.279" viewBox="-0.069 -4.939 263.279 263.279"><path fill="#020202" d="M131.571-4.939c-72.587 0-131.64 59.053-131.64 131.64s59.053 131.64 131.64 131.64 131.64-59.053 131.64-131.64-59.054-131.64-131.64-131.64zm0 255.679c-68.396 0-124.04-55.645-124.04-124.04 0-68.396 55.644-124.04 124.04-124.04 68.396 0 124.04 55.644 124.04 124.04 0 68.396-55.645 124.04-124.04 124.04z"/><path d="M181.343 161.963a11.536 11.536 0 0 0-4.697-7.547 11.594 11.594 0 0 0-8.659-2.012l-15.447 2.562-.009-63.763c0-6.403-5.209-11.613-11.612-11.613s-11.612 5.21-11.612 11.613v7.05a11.514 11.514 0 0 0-4.016-.726c-6.142 0-11.186 4.793-11.587 10.836a11.51 11.51 0 0 0-4.04-.735c-5.33 0-9.838 3.544-11.194 8.517a11.46 11.46 0 0 0-5.219-1.249c-6.403 0-11.612 5.21-11.612 11.614v77.53l70.901.032V178.51l19.246-3.19a11.534 11.534 0 0 0 7.547-4.7 11.545 11.545 0 0 0 2.01-8.657zM93.25 122.494c1.07 0 2.078.418 2.837 1.178a3.987 3.987 0 0 1 1.176 2.837v21.854c0 2.213-1.8 4.013-4.013 4.013a4.018 4.018 0 0 1-4.013-4.013v-21.854a4.02 4.02 0 0 1 4.013-4.015zm20.427 30.982a4.019 4.019 0 0 1-4.014 4.014 4.019 4.019 0 0 1-4.013-4.014V119.24a4.019 4.019 0 0 1 4.013-4.014 4.019 4.019 0 0 1 4.014 4.014v34.236zm11.613-48.349a4.019 4.019 0 0 1 4.014 4.013v41.626a4.018 4.018 0 0 1-4.014 4.012 4.018 4.018 0 0 1-4.013-4.012V109.14a4.019 4.019 0 0 1 4.013-4.013zm19.65 66.935v24.406l-55.702-.026v-37.19c3.224 1.199 6.951.853 9.902-.886 1.883 4.032 5.99 6.725 10.523 6.725 3.647 0 7.078-1.741 9.26-4.625a11.602 11.602 0 0 0 6.367 1.912c6.403 0 11.613-5.209 11.613-11.611l.002-59.563c0-2.213 1.8-4.014 4.013-4.014s4.013 1.801 4.013 4.014l.009 72.726 24.291-4.028a4.027 4.027 0 0 1 2.992.694 3.993 3.993 0 0 1 1.623 2.61 3.978 3.978 0 0 1-.694 2.99 3.99 3.99 0 0 1-2.608 1.624l-25.604 4.242zM108.268 59.5l18.022 18.022-5.373 5.374-18.022-18.022zm29.926-12.173h7.6v22.475h-7.6zm36.959 17.846l5.374 5.372-18.017 18.023-5.374-5.372z" fill="#020202"/></svg>