<?xml version="1.0" encoding="utf-8"?>
<!-- Generator: Adobe Illustrator 18.0.0, SVG Export Plug-In . SVG Version: 6.00 Build 0)  -->
<!DOCTYPE svg PUBLIC "-//W3C//DTD SVG 1.1//EN" "http://www.w3.org/Graphics/SVG/1.1/DTD/svg11.dtd">
<svg version="1.1" id="Warstwa_1" xmlns="http://www.w3.org/2000/svg" xmlns:xlink="http://www.w3.org/1999/xlink" x="0px" y="0px"
	 viewBox="0 0 260.7 260.7" enable-background="new 0 0 260.7 260.7" xml:space="preserve">
<g id="apla">
</g>
<g id="Layer_1">
	<g>
		<path fill="#231F20" d="M94.5,156c-5.7,0-10.3-4.6-10.3-10.3v-21.9c0-5.7,4.6-10.3,10.3-10.3c5.7,0,10.3,4.6,10.3,10.3v21.9
			C104.8,151.4,100.2,156,94.5,156z M94.5,118.6c-2.9,0-5.3,2.4-5.3,5.3v21.9c0,2.9,2.4,5.3,5.3,5.3c2.9,0,5.3-2.4,5.3-5.3v-21.9
			C99.8,120.9,97.4,118.6,94.5,118.6z"/>
	</g>
	<g>
		<path fill="#231F20" d="M110.9,161.2c-5.7,0-10.3-4.6-10.3-10.3v-34.2c0-5.7,4.6-10.3,10.3-10.3s10.3,4.6,10.3,10.3v34.2
			C121.2,156.5,116.6,161.2,110.9,161.2z M110.9,111.3c-2.9,0-5.3,2.4-5.3,5.3v34.2c0,2.9,2.4,5.3,5.3,5.3s5.3-2.4,5.3-5.3v-34.2
			C116.2,113.7,113.8,111.3,110.9,111.3z"/>
	</g>
	<g>
		<path fill="#231F20" d="M152.5,200.1l-68.3,0v-73.5c0-1.4,1.1-2.5,2.5-2.5s2.5,1.1,2.5,2.5v68.5l58.3,0v-24.6l24.5-4.1
			c1.4-0.2,2.6-1,3.5-2.1s1.2-2.6,0.9-4c-0.2-1.4-1-2.6-2.1-3.5c-1.2-0.8-2.6-1.2-4-0.9l-22.8,3.8v-53.8c0-1.4,1.1-2.5,2.5-2.5
			s2.5,1.1,2.5,2.5v47.9l17-2.8c2.7-0.4,5.4,0.2,7.7,1.8s3.7,4,4.2,6.7c0.5,2.7-0.2,5.4-1.8,7.7c-1.6,2.2-4,3.7-6.7,4.2l-20.3,3.4
			L152.5,200.1L152.5,200.1z"/>
	</g>
	<g>
		<path fill="#231F20" d="M150,118.6c-1.4,0-2.5-1.1-2.5-2.5V88.6c0-2.9-2.4-5.3-5.3-5.3c-2.9,0-5.3,2.4-5.3,5.3v27.6
			c0,1.4-1.1,2.5-2.5,2.5s-2.5-1.1-2.5-2.5V88.6c0-5.7,4.6-10.3,10.3-10.3c5.7,0,10.3,4.6,10.3,10.3v27.6
			C152.5,117.5,151.3,118.6,150,118.6z"/>
	</g>
	<g>
		<path fill="#231F20" d="M126.5,158.4c-5.7,0-10.3-4.6-10.3-10.3v-41.6c0-5.7,4.6-10.3,10.3-10.3c5.7,0,10.3,4.6,10.3,10.3v41.6
			C136.8,153.8,132.2,158.4,126.5,158.4z M126.5,101.2c-2.9,0-5.3,2.4-5.3,5.3v41.6c0,2.9,2.4,5.3,5.3,5.3s5.3-2.4,5.3-5.3v-41.6
			C131.8,103.6,129.5,101.2,126.5,101.2z"/>
	</g>
	<g>
		
			<rect x="104.4" y="66.1" transform="matrix(-0.7071 -0.7071 0.7071 -0.7071 149.2494 198.9395)" fill="#231F20" width="22.9" height="5"/>
	</g>
	<g>
		<rect x="140.7" y="46" fill="#231F20" width="5" height="19.9"/>
	</g>
	<g>
		
			<rect x="167.6" y="62.8" transform="matrix(-0.7071 -0.7071 0.7071 -0.7071 237.8059 246.975)" fill="#231F20" width="5" height="22.9"/>
	</g>
</g>
</svg>
