<svg xmlns="http://www.w3.org/2000/svg" width="263.279" height="263.279" viewBox="-1.3 -1.3 263.279 263.279"><path fill="#020202" d="M130.34-1.3C57.754-1.3-1.3 57.754-1.3 130.34c0 72.587 59.053 131.64 131.64 131.64 72.587 0 131.64-59.053 131.64-131.64 0-72.586-59.053-131.64-131.64-131.64zm0 255.68C61.944 254.38 6.3 198.736 6.3 130.34 6.3 61.944 61.944 6.3 130.34 6.3c68.396 0 124.04 55.644 124.04 124.04 0 68.396-55.644 124.04-124.04 124.04z"/><g fill="#020202"><path d="M201.113 125.081h-4.488V100.41l-3.262-3.261H90.556c-2.002 0-3.498-1.209-3.498-2.291 0-1.082 1.496-2.292 3.498-2.292h102.806l3.262-3.261V75.486l-3.262-3.261H81.819c-9.279 0-16.827 7.55-16.827 16.83v77.454c0 9.279 7.548 16.828 16.827 16.828h111.543l3.263-3.26v-24.408h4.488l3.262-3.262v-24.066l-3.262-3.26zm-12.089 50.656H81.819c-5.088 0-9.228-4.14-9.228-9.229V89.054c0-5.089 4.14-9.23 9.228-9.231h107.206v5.142H90.556c-6.119 0-11.098 4.437-11.098 9.892 0 5.453 4.979 9.89 11.098 9.89h98.468v20.335H160.91l-3.262 3.261v24.066l3.262 3.262h28.113v20.066zm7.664-27.637h-31.353v-15.45h31.353v15.45z"/><circle cx="175.258" cy="140.376" r="4.833"/></g></svg>