<?xml version="1.0" encoding="utf-8"?>
<!-- Generator: Adobe Illustrator 18.0.0, SVG Export Plug-In . SVG Version: 6.00 Build 0)  -->
<!DOCTYPE svg PUBLIC "-//W3C//DTD SVG 1.1//EN" "http://www.w3.org/Graphics/SVG/1.1/DTD/svg11.dtd">
<svg version="1.1" id="Warstwa_1" xmlns="http://www.w3.org/2000/svg" xmlns:xlink="http://www.w3.org/1999/xlink" x="0px" y="0px"
	 viewBox="0 0 260.7 260.7" enable-background="new 0 0 260.7 260.7" xml:space="preserve">
<g id="apla">
</g>
<g id="Layer_1">
	<g>
		<path fill="#231F20" d="M192.8,182h-111c-8.6,0-15.5-7-15.5-15.5V89.1c0-8.6,7-15.5,15.5-15.5h111l2.5,2.5v12.7l-2.5,2.5H90.6
			c-2.6,0-4.8,1.6-4.8,3.6c0,1.9,2.2,3.6,4.8,3.6h102.3l2.5,2.5v78.6L192.8,182z M81.8,78.5c-5.8,0-10.5,4.7-10.5,10.5v77.5
			c0,5.8,4.7,10.5,10.5,10.5h108.5v-73.6H90.6c-5.4,0-9.8-3.9-9.8-8.6c0-4.7,4.4-8.6,9.8-8.6h99.8v-7.7L81.8,78.5L81.8,78.5z"/>
	</g>
	<g>
		<rect x="162.7" y="128" fill="#FFFFFF" width="36.1" height="23"/>
		<path fill="#231F20" d="M198.8,153.5h-36.1l-2.5-2.5v-23l2.5-2.5h36.1l2.5,2.5v23L198.8,153.5z M165.2,148.5h31.1v-18h-31.1V148.5
			z"/>
	</g>
	<g>
		<path fill="#231F20" d="M176.7,146c-3.6,0-6.5-2.9-6.5-6.5s2.9-6.5,6.5-6.5c3.6,0,6.5,2.9,6.5,6.5S180.3,146,176.7,146z
			 M176.7,138c-0.8,0-1.5,0.7-1.5,1.5s0.7,1.5,1.5,1.5c0.8,0,1.5-0.7,1.5-1.5S177.6,138,176.7,138z"/>
	</g>
</g>
</svg>
