<?xml version="1.0" encoding="utf-8"?>
<!-- Generator: Adobe Illustrator 16.0.4, SVG Export Plug-In . SVG Version: 6.00 Build 0)  -->
<!DOCTYPE svg PUBLIC "-//W3C//DTD SVG 1.1//EN" "http://www.w3.org/Graphics/SVG/1.1/DTD/svg11.dtd">
<svg version="1.1" id="Layer_1" xmlns="http://www.w3.org/2000/svg" xmlns:xlink="http://www.w3.org/1999/xlink" x="0px" y="0px"
	 width="260.68px" height="260.68px" viewBox="0 0 260.68 260.68" enable-background="new 0 0 260.68 260.68" xml:space="preserve">
<g id="apla">
</g>
<path fill="#231F20" d="M130.34,260.68C58.47,260.68,0,202.21,0,130.34S58.47,0,130.34,0s130.34,58.47,130.34,130.34
	S202.209,260.68,130.34,260.68z M130.34,5C61.227,5,5,61.228,5,130.34s56.227,125.34,125.34,125.34s125.34-56.228,125.34-125.34
	S199.453,5,130.34,5z"/>
<path fill="none" d="M160.177,151.006v-22.988l2.5-2.5h27.646v-22.072H90.556c-5.403,0-9.798-3.854-9.798-8.59
	s4.395-8.592,9.798-8.592h99.769v-7.741H81.819v0.001c-5.805,0-10.527,4.725-10.527,10.53v77.454
	c0,5.806,4.723,10.528,10.527,10.528h108.504v-23.53h-27.646L160.177,151.006z"/>
<path fill="#231F20" d="M198.8,125.518h-3.476v-24.569l-2.5-2.5H90.556c-2.601,0-4.798-1.645-4.798-3.591s2.197-3.592,4.798-3.592
	h102.267l2.5-2.5V76.025l-2.5-2.5H81.819c-8.562,0-15.527,6.968-15.527,15.53v77.454c0,8.562,6.966,15.528,15.527,15.528h111.004
	l2.502-2.499v-26.032h3.476l2.5-2.5v-22.988L198.8,125.518z M190.323,177.036H81.819c-5.805,0-10.527-4.723-10.527-10.528V89.054
	c0-5.806,4.723-10.53,10.527-10.53v-0.001h108.506v7.741H90.556c-5.403,0-9.798,3.855-9.798,8.592s4.395,8.59,9.798,8.59h99.767
	v22.072h-27.646l-2.5,2.5v22.988l2.5,2.5h27.646V177.036z M196.3,148.506h-31.123v-17.988H196.3V148.506z"/>
<g>
	<path fill="#231F20" d="M178.814,146c-3.578,0-6.487-2.91-6.487-6.488s2.91-6.488,6.487-6.488c3.576,0,6.486,2.91,6.486,6.488
		S182.39,146,178.814,146z M178.814,138.023c-0.819,0-1.487,0.668-1.487,1.488s0.668,1.488,1.487,1.488s1.486-0.668,1.486-1.488
		S179.633,138.023,178.814,138.023z"/>
</g>
</svg>
