<svg xmlns="http://www.w3.org/2000/svg" width="263.279" height="263.279" viewBox="-1.3 -1.3 263.279 263.279"><g fill="#020202"><path d="M130.34-1.3C57.754-1.3-1.3 57.754-1.3 130.34c0 72.587 59.053 131.64 131.64 131.64 72.587 0 131.64-59.053 131.64-131.64 0-72.586-59.053-131.64-131.64-131.64zm0 255.68C61.944 254.38 6.3 198.736 6.3 130.34 6.3 61.944 61.944 6.3 130.34 6.3c68.396 0 124.04 55.644 124.04 124.04 0 68.396-55.644 124.04-124.04 124.04z"/><path d="M41.713 194.61h25.872v-24.161H41.713v24.161zm18.273-16.562v8.962H49.313v-8.962h10.673zm17.211 16.562h25.871v-30.894H77.197v30.894zm18.271-23.294v15.694H84.796v-15.694h10.672zm17.21 23.294h25.872v-42.386h-25.872v42.386zm18.272-34.787v27.187h-10.673v-27.187h10.673zm17.21 34.787h25.871v-70.253H148.16v70.253zm18.272-62.654v55.054H155.76v-55.054h10.672zm17.21 62.654h25.872V56.658h-25.872V194.61zm18.272-130.352V187.01h-10.673V64.258h10.673z"/></g></svg>