<?xml version="1.0" encoding="utf-8"?>
<!-- Generator: Adobe Illustrator 18.0.0, SVG Export Plug-In . SVG Version: 6.00 Build 0)  -->
<!DOCTYPE svg PUBLIC "-//W3C//DTD SVG 1.1//EN" "http://www.w3.org/Graphics/SVG/1.1/DTD/svg11.dtd">
<svg version="1.1" id="Warstwa_1" xmlns="http://www.w3.org/2000/svg" xmlns:xlink="http://www.w3.org/1999/xlink" x="0px" y="0px"
	 viewBox="0 0 260.7 260.7" enable-background="new 0 0 260.7 260.7" xml:space="preserve">
<g id="apla">
</g>
<g id="Layer_1">
	<g>
		<g>
			<path fill="#231F20" d="M66.3,193.3H43v-21.6h23.3V193.3z M48,188.3h13.3v-11.6H48V188.3z"/>
		</g>
		<g>
			<path fill="#231F20" d="M101.8,193.3H78.5V165h23.3C101.8,165,101.8,193.3,101.8,193.3z M83.5,188.3h13.3V170H83.5V188.3z"/>
		</g>
		<g>
			<path fill="#231F20" d="M137.2,193.3H114v-39.8h23.3V193.3z M119,188.3h13.3v-29.8H119V188.3z"/>
		</g>
		<g>
			<path fill="#231F20" d="M172.7,193.3h-23.3v-67.7h23.3L172.7,193.3L172.7,193.3z M154.5,188.3h13.3v-57.7h-13.3V188.3z"/>
		</g>
		<g>
			<path fill="#231F20" d="M208.2,193.3h-23.3V58h23.3V193.3z M189.9,188.3h13.3V63h-13.3V188.3z"/>
		</g>
	</g>
</g>
</svg>
