<svg xmlns="http://www.w3.org/2000/svg" width="263.279" height="263.279" viewBox="-0.677 3.494 263.279 263.279"><g fill="#020202"><path d="M130.963 3.494c-72.587 0-131.64 59.053-131.64 131.64 0 72.586 59.053 131.639 131.64 131.639 72.586 0 131.639-59.053 131.639-131.639 0-72.587-59.053-131.64-131.639-131.64zm0 255.679c-68.396 0-124.041-55.645-124.041-124.041 0-68.395 55.644-124.039 124.041-124.039 68.396 0 124.039 55.644 124.039 124.041 0 68.395-55.644 124.039-124.039 124.039z"/><path d="M134.679 154.217v-24.42l5.037 4.36 4.973-5.744-14.279-12.364-13.438 12.872 5.256 5.49 4.852-4.646v24.452zm-77.546-45.471h43.325V51.854H57.133v56.892zm35.725-49.292v41.692H64.732V59.454h28.126z"/><path d="M68.628 76.5h20.334v7.6H68.628zm0 11.422h20.334v7.6H68.628zm0-22.844h20.334v7.6H68.628zm40.54 43.668h43.325V51.854h-43.325v56.892zm35.726-49.292v41.692h-28.125V59.454h28.125z"/><path d="M120.664 76.5h20.335v7.6h-20.335zm0 11.422h20.335v7.6h-20.335zm0-22.844h20.335v7.6h-20.335zm-11.496 153.334h43.325V161.52h-43.325v56.892zm35.726-49.292v41.692h-28.125V169.12h28.125z"/><path d="M120.664 186.166h20.335v7.6h-20.335zm0 11.423h20.335v7.6h-20.335zm0-22.845h20.335v7.6h-20.335zm40.802-65.998h43.326V51.854h-43.326v56.892zm35.726-49.292v41.692h-28.127V59.454h28.127z"/><path d="M172.962 76.5h20.334v7.6h-20.334zm0 11.422h20.334v7.6h-20.334zm0-22.844h20.334v7.6h-20.334z"/></g></svg>