<?xml version="1.0" encoding="utf-8"?>
<!-- Generator: Adobe Illustrator 18.0.0, SVG Export Plug-In . SVG Version: 6.00 Build 0)  -->
<!DOCTYPE svg PUBLIC "-//W3C//DTD SVG 1.1//EN" "http://www.w3.org/Graphics/SVG/1.1/DTD/svg11.dtd">
<svg version="1.1" id="Warstwa_1" xmlns="http://www.w3.org/2000/svg" xmlns:xlink="http://www.w3.org/1999/xlink" x="0px" y="0px"
	 viewBox="0 0 260.8 260.8" enable-background="new 0 0 260.8 260.8" xml:space="preserve">
<g id="apla">
</g>
<g id="Layer_1">
	<g>
		<path fill="#231F20" d="M110.8,218.5h40.7v-54.3h-40.7C110.8,164.2,110.8,218.5,110.8,218.5z M115.8,169.2h30.7v44.3h-30.7
			C115.8,213.5,115.8,169.2,115.8,169.2z"/>
		<rect x="119.8" y="187.9" fill="#231F20" width="22.4" height="5"/>
		<rect x="120.1" y="198" fill="#231F20" width="22.4" height="5"/>
		<rect x="119.8" y="177.8" fill="#231F20" width="22.4" height="5"/>
		<polygon fill="#231F20" points="133.7,155.2 133.7,129.3 139.9,134.6 143.2,130.9 130.8,120.1 119.1,131.3 122.6,134.9 128.7,129 
			128.7,155.2 		"/>
		<path fill="#231F20" d="M59.1,111.8h40.7V57.5H59.1V111.8z M64.1,62.5h30.7v44.3H64.1V62.5z"/>
		<rect x="68.1" y="81.2" fill="#231F20" width="22.4" height="5"/>
		<rect x="68.5" y="91.3" fill="#231F20" width="22.4" height="5"/>
		<rect x="68.1" y="71.2" fill="#231F20" width="22.4" height="5"/>
		<path fill="#231F20" d="M110.8,111.8h40.7V57.5h-40.7C110.8,57.5,110.8,111.8,110.8,111.8z M115.8,62.5h30.7v44.3h-30.7
			C115.8,106.8,115.8,62.5,115.8,62.5z"/>
		<rect x="119.8" y="81.2" fill="#231F20" width="22.4" height="5"/>
		<rect x="120.1" y="91.3" fill="#231F20" width="22.4" height="5"/>
		<rect x="119.8" y="71.2" fill="#231F20" width="22.4" height="5"/>
		<path fill="#231F20" d="M162.8,111.8h40.7V57.5h-40.7V111.8z M167.8,62.5h30.7v44.3h-30.7V62.5z"/>
		<rect x="171.8" y="81.2" fill="#231F20" width="22.4" height="5"/>
		<rect x="172.2" y="91.3" fill="#231F20" width="22.4" height="5"/>
		<rect x="171.8" y="71.2" fill="#231F20" width="22.4" height="5"/>
	</g>
</g>
</svg>
