<?xml version="1.0" encoding="utf-8"?>
<!-- Generator: Adobe Illustrator 18.0.0, SVG Export Plug-In . SVG Version: 6.00 Build 0)  -->
<!DOCTYPE svg PUBLIC "-//W3C//DTD SVG 1.1//EN" "http://www.w3.org/Graphics/SVG/1.1/DTD/svg11.dtd">
<svg version="1.1" id="Layer_1" xmlns="http://www.w3.org/2000/svg" xmlns:xlink="http://www.w3.org/1999/xlink" x="0px" y="0px"
	 viewBox="0 0 260.7 260.7" enable-background="new 0 0 260.7 260.7" xml:space="preserve">
<g id="apla">
</g>
<path fill="#231F20" d="M171.5,89.2c-11.3-11.1-26.2-17.1-42.1-16.8C97,72.9,71.1,99.6,71.6,132c0.2,15.5,6.5,30.1,17.5,40.9
	c11.1,10.9,25.7,16.9,41.2,16.9c0.3,0,0.6,0,0.9,0c15.7-0.2,30.3-6.6,41.2-17.9c10.9-11.3,16.8-26.1,16.5-41.8
	C188.8,114.6,182.6,100.1,171.5,89.2z M122.7,77.9c-6.8,4.8-17.9,15.4-23,35.3h-20C86.2,94.7,102.7,80.8,122.7,77.9z M76.6,131.9
	c-0.1-4.7,0.5-9.3,1.6-13.7h20.4c-0.7,3.9-1.2,8-1.5,12.6c-0.3,6,0.2,11.5,1.2,16.4H79.1C77.6,142.3,76.7,137.2,76.6,131.9z
	 M81,152.2h18.5c5.1,17.4,16.9,27.4,24.3,32.2C104.6,182,88.4,169.4,81,152.2z M129,181.7c-6-3.3-18.8-12-24.3-29.5H129V181.7z
	 M129,147.2h-25.6c-1-4.8-1.5-10.2-1.2-16.2c0.2-4.6,0.8-8.9,1.5-12.8H129L129,147.2L129,147.2z M129,113.2h-24.1
	c6-21.8,19.9-31,24.1-33.4V113.2z M181,113.2h-18.5c-5.2-19.2-15.8-29.8-22.9-35C158.7,81.5,174.5,95.2,181,113.2z M134,80.5
	c5.8,3.7,17.6,13.2,23.3,32.7H134L134,80.5L134,80.5z M134,118.2h24.5c0.8,3.5,1.4,7.3,1.7,11.5c0.5,6.5,0.1,12.3-1,17.5H134
	L134,118.2L134,118.2z M134,152.2h23.9c-5.4,17.6-18.2,26.9-23.9,30.2V152.2z M168.9,168.5c-7.7,8-17.5,13.2-28.2,15.3
	c7.2-5.3,17.6-15.4,22.3-31.6h16.7C177.2,158.1,173.6,163.7,168.9,168.5z M164.2,147.2c1-5.4,1.4-11.3,0.9-17.9
	c-0.3-3.9-0.8-7.6-1.5-11.1H182c0.2,0,0.3,0,0.5-0.1c1,3.9,1.5,7.9,1.6,12.1c0.1,5.8-0.8,11.5-2.5,17H164.2z"/>
</svg>
