<svg xmlns="http://www.w3.org/2000/svg" width="263.279" height="263.281" viewBox="-1.3 -1.299 263.279 263.281"><path d="M130.34-1.299C57.754-1.299-1.3 57.755-1.3 130.342c0 72.587 59.053 131.64 131.64 131.64 72.587 0 131.64-59.053 131.64-131.64 0-72.587-59.053-131.641-131.64-131.641zm0 255.681c-68.396 0-124.04-55.645-124.04-124.041 0-68.396 55.644-124.04 124.04-124.04 68.396 0 124.04 55.645 124.04 124.041 0 68.396-55.644 124.04-124.04 124.04z"/><path d="M130.399 70.314c-.335 0-.67.003-1.005.008-16.007.254-30.974 6.742-42.144 18.27-11.17 11.528-17.182 26.692-16.928 42.697.251 15.865 6.619 30.728 17.929 41.849 11.299 11.112 26.24 17.231 42.073 17.231.318 0 .645-.003.965-.008 16.031-.254 31.004-6.734 42.162-18.25 11.156-11.517 17.162-26.687 16.906-42.716-.252-15.865-6.619-30.728-17.93-41.851-11.296-11.111-26.222-17.23-42.028-17.23zm-48.842 40.834c6.267-15.907 19.731-27.629 36.147-31.681-6.426 5.666-14.735 15.657-19.062 31.681H81.557zm46.096 41.599v25.985c-5.805-3.547-16.074-11.554-21.19-25.985h21.19zm-29.132 0c4.347 14.025 13.01 23.213 19.839 28.603-15.342-3.65-28.454-14.185-35.351-28.603h15.512zm29.131-7.599h-23.258c-.905-4.683-1.243-9.67-1.004-14.845a84.134 84.134 0 0 1 1.322-11.556h22.941v26.401zm.001-63.756v29.756h-21.092c5.341-17.629 15.878-26.367 21.092-29.756zm-30.937 63.757H80.079a51.78 51.78 0 0 1-2.16-13.979 52.402 52.402 0 0 1 1.292-12.421h17.786a92.382 92.382 0 0 0-1.198 11.205c-.241 5.21.067 10.314.917 15.195zm69.743-16.732a95.527 95.527 0 0 0-1.248-9.67h16.232a51.893 51.893 0 0 1 1.316 10.77 52.515 52.515 0 0 1-2.115 15.631h-14.859c.895-5.337 1.121-10.957.674-16.731zm11.293 24.33a52.266 52.266 0 0 1-9.76 14.077c-6.117 6.313-13.578 10.919-21.826 13.512 6.691-5.954 13.973-14.911 17.822-27.589h13.764zm-14.31-41.599c-4.285-15.214-11.891-25.049-18.734-31.194 15.543 4.469 28.318 15.982 34.367 31.194h-15.633zm-28.19.001V82.166c6.111 4.353 15.178 13.122 20.234 28.982h-20.234zm0 33.999v-26.4h22.193a84.059 84.059 0 0 1 1.436 10.26c.436 5.596.17 11.021-.787 16.141h-22.842zm20.848 7.599c-4.982 14.396-15.088 22.787-20.848 26.593v-26.593H156.1z"/></svg>