<?xml version="1.0" encoding="utf-8"?>
<!-- Generator: Adobe Illustrator 18.0.0, SVG Export Plug-In . SVG Version: 6.00 Build 0)  -->
<!DOCTYPE svg PUBLIC "-//W3C//DTD SVG 1.1//EN" "http://www.w3.org/Graphics/SVG/1.1/DTD/svg11.dtd">
<svg width="140" height="140" version="1.1" id="Warstwa_1" xmlns="http://www.w3.org/2000/svg" xmlns:xlink="http://www.w3.org/1999/xlink" x="0px" y="0px"
	 viewBox="0 0 260.8 260.8" enable-background="new 0 0 260.8 260.8" xml:space="preserve">
<g id="apla">
</g>
<g id="Layer_1">
	<g>
		<path fill="#231F20" d="M156.4,117.3v-13.6c0-0.1,0-0.1,0-0.2s0-0.1,0-0.2v-0.3l0,0c-0.9-8.3-25.4-8.6-28.2-8.6
			c-2.9,0-28.3,0.3-28.3,9.1c0,0.4,0.1,0.7,0.1,1l0,13.1l1.6,0.6c0.2,0.1,2.4,0.9,6.3,1.8c-4.5,1.3-8,3.4-8,6.7c0,0.4,0.1,0.7,0.1,1
			l0,13.1l1.6,0.6c0.2,0.1,2.4,0.9,6.3,1.8c-4.5,1.3-8,3.4-8,6.7c0,0.4,0.1,0.7,0.1,1l0,13.1l1.6,0.6c0.4,0.2,10.8,4.2,26.6,4.2
			c15.8,0,26.2-4.3,26.7-4.5l1.5-0.6v-13.6c0-0.1,0-0.1,0-0.2s0-0.1,0-0.2v-0.3l0,0c-0.3-3.1-3.8-5-8.2-6.3c4.1-1,6.5-2,6.7-2.1
			l1.5-0.6v-13.6c0-0.1,0-0.1,0-0.2s0-0.1,0-0.2v-0.3l0,0c-0.3-3-3.8-5-8.2-6.3c4.1-1,6.5-2,6.7-2.1L156.4,117.3z M128.2,99.5
			c11.7,0,19.6,2,22.3,3.5c-2.8,1.6-10.6,3.6-22.3,3.6c-9.9,0-18.5-1.7-22.2-3.6C108.8,101.4,116.7,99.5,128.2,99.5z M151.4,160.4
			c-3.3,1.1-11.9,3.5-23.2,3.5c-11.3,0-19.8-2.2-23.2-3.3l0-4.9c7.6,3.3,21.1,3.4,23.1,3.4c2.1,0,15.7-0.1,23.3-3.4V160.4z
			 M150.5,149.5c-2.8,1.6-10.6,3.6-22.3,3.6c-9.9,0-18.5-1.7-22.2-3.6c2.9-1.5,10.7-3.5,22.2-3.5C139.8,146,147.8,147.9,150.5,149.5
			z M151.4,137.1c-3.3,1.1-11.9,3.5-23.2,3.5c-11.3,0-19.8-2.2-23.2-3.3l0-4.9c7.6,3.3,21.1,3.4,23.1,3.4c2.1,0,15.7-0.1,23.3-3.4
			V137.1z M150.5,126.2c-2.8,1.6-10.6,3.6-22.3,3.6c-9.9,0-18.5-1.7-22.2-3.6c2.9-1.5,10.7-3.5,22.2-3.5
			C139.8,122.7,147.8,124.7,150.5,126.2z M151.4,113.9c-3.3,1.1-11.9,3.5-23.2,3.5c-11.3,0-19.8-2.2-23.2-3.3l0-4.9
			c7.6,3.3,21.1,3.4,23.1,3.4c2.1,0,15.7-0.1,23.3-3.4V113.9z"/>
		<path fill="#231F20" d="M202.2,111.6V56.3h-52.8c-1.3-9.2-9.1-16.3-18.6-16.3h-0.1c-9.5,0-17.4,7.1-18.7,16.3H54.2v55.2
			c-9.6,0.8-17.2,8.9-17.3,18.7c0,5.1,1.9,9.8,5.5,13.4c3.2,3.2,7.4,5.2,11.8,5.5v55.2h57.7c0.5,4.1,2.3,7.9,5.3,10.9
			c3.5,3.6,8.3,5.6,13.3,5.6h0.1c9.6,0,17.6-7.2,18.8-16.5h52.8V149c9.1-1.3,16.2-9.1,16.3-18.6c0-5.1-1.9-9.8-5.5-13.4
			C210.1,114,206.3,112.1,202.2,111.6z M130.8,45c7.7,0,13.9,6.3,13.8,14c-0.1,7.6-6.3,13.8-13.9,13.8h-0.1c-3.7,0-7.2-1.5-9.8-4.1
			s-4-6.2-4-9.9C116.8,51.2,123,45,130.8,45z M55.7,144.2c-3.7,0-7.2-1.5-9.8-4.1s-4-6.1-4-9.9c0-7.6,6.3-13.8,14-13.8
			c3.7,0,7.2,1.5,9.8,4.1s4,6.2,4,9.9C69.7,138,63.4,144.2,55.7,144.2L55.7,144.2z M130.7,215.8L130.7,215.8c-3.8,0-7.3-1.5-9.9-4.1
			s-4-6.1-4-9.9c0-7.6,6.3-13.8,14-13.8c7.7,0.1,13.9,6.3,13.8,14C144.5,209.6,138.3,215.8,130.7,215.8z M197.2,199.3h-47.8
			c-1.3-9.2-9.1-16.3-18.6-16.3h-0.1c-9.5,0-17.4,7.1-18.7,16.3H59.2v-50.4c8.8-1.6,15.5-9.3,15.5-18.5c0-5.1-1.9-9.8-5.5-13.4
			c-2.8-2.8-6.3-4.6-10.1-5.3V61.3h52.7c0.5,4.1,2.3,7.9,5.3,10.9c3.5,3.6,8.3,5.6,13.3,5.6h0.1c9.6,0,17.6-7.2,18.8-16.5h47.8v50.2
			c-9.2,1.2-16.5,9.1-16.5,18.6c-0.1,9.7,7.2,17.7,16.5,18.9V199.3z M199.5,144.2L199.5,144.2c-7.8-0.1-14-6.3-13.9-14
			c0.1-7.6,6.3-13.8,14-13.8c3.7,0,7.2,1.5,9.8,4.1c2.6,2.6,4,6.2,4,9.9C213.4,138,207.2,144.2,199.5,144.2z"/>
	</g>
</g>
</svg>
