<svg xmlns="http://www.w3.org/2000/svg" width="263.279" height="263.279" viewBox="1.597 5.755 263.279 263.279"><g fill="#020202"><path d="M133.236 5.755C60.65 5.755 1.597 64.808 1.597 137.395c0 72.587 59.053 131.64 131.639 131.64 72.587 0 131.64-59.053 131.64-131.64 0-72.587-59.053-131.64-131.64-131.64zm0 255.68c-68.396 0-124.04-55.645-124.04-124.041 0-68.395 55.644-124.039 124.04-124.039 68.396 0 124.04 55.644 124.04 124.04 0 68.396-55.643 124.04-124.04 124.04z"/><path d="M219.502 123.089a19.954 19.954 0 0 0-10.47-5.617V61.993h-52.987c-1.837-9.317-10.105-16.253-19.691-16.316h-.126c-9.64 0-17.966 6.938-19.816 16.316H58.433V117.3c-9.725 1.431-17.227 9.932-17.291 19.86a20.081 20.081 0 0 0 5.827 14.335 20.192 20.192 0 0 0 11.463 5.792v55.306h57.934a19.968 19.968 0 0 0 5.472 10.504 20.093 20.093 0 0 0 14.265 6.016h.125c9.752 0 18.097-7.025 19.863-16.521h52.94v-55.488c9.307-1.847 16.236-10.113 16.298-19.678a20.078 20.078 0 0 0-5.827-14.337zM73.979 137.373c-.046 6.913-5.707 12.537-12.703 12.537a12.532 12.532 0 0 1-8.897-3.755 12.535 12.535 0 0 1-3.636-8.947c.044-6.911 5.743-12.533 12.705-12.536a12.534 12.534 0 0 1 8.894 3.753 12.551 12.551 0 0 1 3.637 8.948zm-7.946 19.573c9.01-2.142 15.483-10.185 15.545-19.522a20.085 20.085 0 0 0-5.828-14.335 20.03 20.03 0 0 0-9.717-5.458V69.592h50.334a19.967 19.967 0 0 0 5.472 10.505 20.093 20.093 0 0 0 14.265 6.016h.125c9.751 0 18.096-7.025 19.863-16.521h45.34v47.837c-9.442 1.749-16.474 10.037-16.538 19.731-.062 9.837 6.971 18.239 16.538 20.001v47.832h-45.388c-1.837-9.317-10.106-16.255-19.692-16.316h-.126c-9.641 0-17.967 6.938-19.816 16.316H66.033v-48.047zm70.112-78.431a12.534 12.534 0 0 1-8.896-3.755 12.532 12.532 0 0 1-3.636-8.946c.045-6.912 5.744-12.535 12.704-12.537 6.954.047 12.575 5.745 12.532 12.701-.048 6.913-5.709 12.537-12.704 12.537zm.17 117.759c6.954.048 12.575 5.745 12.532 12.701-.047 6.913-5.708 12.537-12.703 12.537-3.37-.022-6.529-1.355-8.896-3.755s-3.659-5.576-3.636-8.946c.044-6.911 5.743-12.534 12.703-12.537zm81.414-58.897c-.043 6.911-5.701 12.534-12.699 12.534-6.957-.045-12.58-5.743-12.536-12.7.046-6.912 5.745-12.535 12.705-12.537a12.54 12.54 0 0 1 8.895 3.754 12.548 12.548 0 0 1 3.635 8.949z"/><path d="M111.342 133.396l.002 5.096c3.658 1.062 11.594 2.944 21.868 2.944 10.312 0 18.269-2.042 21.918-3.187v-4.897c-7.843 2.704-19.54 2.851-21.963 2.851-2.396 0-13.98-.144-21.825-2.807z"/><path d="M111.342 133.396l.002 5.096c3.658 1.062 11.594 2.944 21.868 2.944 10.312 0 18.269-2.042 21.918-3.187v-4.897c-7.843 2.704-19.54 2.851-21.963 2.851-2.396 0-13.98-.144-21.825-2.807z"/><path d="M151.979 136.903c-3.531-1.085-9.806-2.254-18.887-2.254-8.053 0-14.612.986-18.599 2.156 4.137 1.261 10.773 3.334 18.599 3.334 8.347.001 14.979-2.026 18.887-3.236z"/><path d="M135.502 136.188a37.566 37.566 0 0 1-2.509-.843l-2.021-.788v5.676c.742-1.574 2.249-2.928 4.53-4.045z"/><path d="M135.501 136.188c-1.503-.455-2.364-.785-2.51-.843l-2.019-.787v5.674c.743-1.574 2.249-2.927 4.529-4.044z"/><path d="M133.858 135.167c-.274.114-1.299.525-2.997 1.062 2.388 1.13 3.967 2.512 4.75 4.127v-5.922l-1.753.733z"/><path d="M133.858 134.726c-.274.114-1.299.525-2.997 1.062 2.388 1.129 3.966 3.133 4.75 5.009v-6.803l-1.753.732z"/><path d="M151.979 136.403c-3.531-1.086-9.806-1.254-18.887-1.254-8.051 0-14.609-.015-18.597 1.156 4.138 1.261 10.775 3.334 18.597 3.334 8.346.001 14.979-2.026 18.887-3.236z"/><path d="M111.342 133.397l.002 5.094c3.656 1.062 11.587 2.943 21.868 2.943 10.312 0 18.269-2.041 21.918-3.186v-4.895c-7.843 2.703-19.539 2.851-21.963 2.851-2.397.001-13.979-.143-21.825-2.807z"/><path d="M111.342 133.397l.002 5.095c3.655 1.062 11.587 2.943 21.868 2.943 10.312 0 18.269-2.042 21.918-3.187v-4.896c-7.843 2.704-19.54 2.851-21.963 2.851-2.397.001-13.98-.143-21.825-2.806z"/><path d="M133.091 134.649c-8.048 0-14.607 1.986-18.596 3.156 4.138 1.261 10.774 2.334 18.596 2.334 8.348 0 14.979-1.025 18.888-2.236-3.533-1.084-9.807-3.254-18.888-3.254z"/><path d="M157.487 150.644c1.697-.536 2.722-.947 2.996-1.062l1.753-.733V128.4c-.783-1.876-2.361-3.88-4.749-5.009 1.697-.536 2.722-.947 2.996-1.062l1.753-.732v-21.308c-1.548-2.969-6.211-4.44-13.914-5.732-6.733-1.129-13.732-1.186-15.066-1.186-6.3 0-25.534-.204-29.02 6.953v21.559l2.019.788c.146.057 1.006.387 2.51.843-2.28 1.117-3.786 2.471-4.528 4.044v21.58l2.021.788c.147.058 1.015.388 2.509.842-2.281 1.117-3.788 2.472-4.53 4.045v21.578l2.016.785c.441.173 10.989 4.244 27.049 4.244 16.019 0 26.733-4.396 27.182-4.583l1.753-.733v-21.332c-.783-1.617-2.362-2.999-4.75-4.128zm-24.231-49.674c9.081 0 15.355.168 18.887 1.253-3.907 1.21-10.54 3.236-18.887 3.236-7.822 0-14.459-2.073-18.597-3.334 3.987-1.169 10.546-1.155 18.597-1.155zm21.963 69.665c-3.649 1.145-11.606 3.187-21.918 3.187-10.274 0-18.21-1.883-21.868-2.944l-.002-5.096c7.845 2.662 19.429 2.807 21.826 2.807 2.423 0 14.12-.146 21.963-2.851v4.897zm-40.562-14.004c3.987-1.17 10.546-2.156 18.599-2.156 9.081 0 15.355 1.169 18.887 2.254-3.908 1.21-10.54 3.236-18.887 3.236-7.826 0-14.462-2.073-18.599-3.334zm40.562-13.252c-3.649 1.145-11.606 3.187-21.918 3.187-10.281 0-18.213-1.882-21.868-2.943l-.002-5.095c7.845 2.662 19.429 2.807 21.826 2.807 2.423 0 14.12-.146 21.963-2.851v4.895zm-40.56-13.001c3.989-1.17 10.548-3.156 18.596-3.156 9.081 0 15.355 2.169 18.888 3.254-3.908 1.21-10.54 2.235-18.888 2.235-7.822 0-14.458-1.072-18.596-2.333zm40.56-14.251c-3.649 1.145-11.606 3.186-21.918 3.186-10.281 0-18.212-1.882-21.868-2.944l-.002-5.093c7.846 2.663 19.429 2.807 21.826 2.807 2.423 0 14.12-.147 21.963-2.851v4.895z"/></g><path fill="#020202" d="M-12.606 61.644h2.25v2.5h-2.25z"/></svg>