<svg xmlns="http://www.w3.org/2000/svg" width="263.279" height="263.279" viewBox="-1.788 -0.76 263.279 263.279"><path fill="#020202" d="M70.767 126.65h11.146v12.048H70.767z"/><path fill="#020202" d="M129.852-.76C57.265-.76-1.788 58.294-1.788 130.88c0 72.587 59.053 131.64 131.64 131.64s131.64-59.053 131.64-131.64C261.491 58.294 202.439-.76 129.852-.76zm0 255.68c-68.396 0-124.04-55.645-124.04-124.04S61.455 6.84 129.852 6.84c68.396 0 124.04 55.645 124.04 124.04s-55.645 124.04-124.04 124.04z"/><path fill="#020202" d="M182.132 98.403V79.427l-37.229-21.689-15.046 7.376-15.047-7.376-37.23 21.689v18.974l-20.15 11.681v22.021c-.006.057-.01.113-.01.172l.01 22.174 19.272 11.389v16.06l37.416 22.127 15.737-9.618 15.737 9.618 37.414-22.125v-16.06l19.275-11.389v-44.366l-20.149-11.682zm-56.103 28.656h-5.293v-1.95H109.59v12.048h11.146v-2.497h5.293v53.178l-11.976 7.319-29.752-17.592v-10.688l7.05-4.813 1.561 2.075 8.792-6.611-7.16-9.521-8.792 6.611 1.027 1.366-5.481 3.741-16.27-9.613v-14.038h7.255c2.096 0 3.8-1.704 3.8-3.8s-1.704-3.8-3.8-3.8h-7.255v-14.012l17.374-10.073 6.009 3.131-1.114 1.889 9.475 5.589 6.053-10.26-9.474-5.59-1.072 1.817-7.1-3.7V83.794l29.939-17.441 10.911 5.349v55.357zm68.654.815h-6.614v-1.766h-11.146v12.048h11.146v-2.683h6.614v14.639l-15.357 9.074-5.501-3.755.999-1.693-9.474-5.589-6.054 10.26 9.475 5.59 1.185-2.008 5.452 3.723v11.851l-29.75 17.592-11.696-7.148V134.66h4.962v2.497h11.146v-12.048h-11.146v1.95h-4.962V71.565l10.633-5.212 29.938 17.441v14.684l-5.953 3.126-1.703-2.264-8.792 6.611 7.16 9.521 8.792-6.611-.829-1.103 5.201-2.73 16.274 9.436v13.41z"/><path fill="#020202" d="M150.493 97.039h2.36V85.893h-12.047v11.146h2.088v15.568l15.437 12.086v11.517l-15 13.601v18.416h-2.525v11.146h12.047v-11.146h-1.922v-15.048l15-13.601v-18.586l-15.438-12.086zm-41.276 0h2.359v11.867l-15.437 12.086v18.586l15 13.601v15.048h-1.922v11.146h12.047v-11.146h-2.525v-18.416l-15-13.601v-11.517l15.437-12.086V97.039h2.088V85.893h-12.047z"/></svg>