<?xml version="1.0" encoding="utf-8"?>
<!-- Generator: Adobe Illustrator 18.0.0, SVG Export Plug-In . SVG Version: 6.00 Build 0)  -->
<!DOCTYPE svg PUBLIC "-//W3C//DTD SVG 1.1//EN" "http://www.w3.org/Graphics/SVG/1.1/DTD/svg11.dtd">
<svg version="1.1" id="Warstwa_1" xmlns="http://www.w3.org/2000/svg" xmlns:xlink="http://www.w3.org/1999/xlink" x="0px" y="0px"
	 viewBox="0 0 260.7 260.7" enable-background="new 0 0 260.7 260.7" xml:space="preserve">
<g id="apla">
</g>
<g id="Layer_1">
	<g>
		<path fill="#231F20" d="M145.1,202l-18.2-11.2V67.3l17.5-8.6l36,21v19l20.1,11.7v42.9l-19.3,11.4v16.1L145.1,202z M131.8,188.1
			l13.3,8.1l31.1-18.4v-16.1l19.3-11.4v-37.1l-20.1-11.7v-19l-31.2-18.2l-12.3,6L131.8,188.1L131.8,188.1z"/>
	</g>
	<g>
		<path fill="#231F20" d="M144.8,201.5l-15.7-9.6l-15.7,9.6l-36.1-21.4V164l-19.3-11.4v-42.9l20.2-11.7v-19l36-21l15,7.4l15-7.4
			l36,21v19l20.1,11.7v42.9L180.9,164v16.1L144.8,201.5z M82.2,177.3l31.1,18.4L129,186l15.8,9.6l31.1-18.4v-16.1l19.3-11.4v-37.1
			L175,101V82l-31.2-18.2L129,71.1l-14.8-7.3L83.1,82v19l-20.2,11.7v37.1l19.3,11.4L82.2,177.3L82.2,177.3z"/>
	</g>
	<g>
		<line fill="none" x1="129.6" y1="68.3" x2="129.6" y2="190.4"/>
	</g>
	<g>
		<path fill="#231F20" d="M90.3,107.2c-0.4,0-0.8-0.1-1.2-0.3l-9.4-4.9c-1.2-0.6-1.7-2.1-1.1-3.4s2.1-1.7,3.4-1.1l9.4,4.9
			c1.2,0.6,1.7,2.1,1.1,3.4C92,106.7,91.2,107.2,90.3,107.2z"/>
	</g>
	<g>
		<path fill="#231F20" d="M69.8,135.1h-9.1c-1.4,0-2.5-1.1-2.5-2.5s1.1-2.5,2.5-2.5h9.1c1.4,0,2.5,1.1,2.5,2.5
			S71.2,135.1,69.8,135.1z"/>
	</g>
	<g>
		<path fill="#231F20" d="M79.1,165.7c-0.8,0-1.6-0.4-2.1-1.1c-0.8-1.1-0.5-2.7,0.7-3.5l12-8.2c1.1-0.8,2.7-0.5,3.5,0.7
			c0.8,1.1,0.5,2.7-0.7,3.5l-12,8.2C80.1,165.6,79.6,165.7,79.1,165.7z"/>
	</g>
	<g>
		<path fill="#231F20" d="M144.7,134.2h-32c-1.4,0-2.5-1.1-2.5-2.5s1.1-2.5,2.5-2.5h32c1.4,0,2.5,1.1,2.5,2.5
			S146.1,134.2,144.7,134.2z"/>
	</g>
	<g>
		<rect x="70.7" y="127.6" fill="#231F20" width="10" height="10"/>
	</g>
	<g>
		<rect x="175.7" y="127.6" fill="#231F20" width="10" height="10"/>
	</g>
	<g>
		<rect x="105" y="80.9" fill="#231F20" width="10" height="10"/>
	</g>
	<g>
		<rect x="139" y="80.9" fill="#231F20" width="10" height="10"/>
	</g>
	<g>
		
			<rect x="158.2" y="100.1" transform="matrix(-0.8674 0.4976 -0.4976 -0.8674 357.0798 115.0183)" fill="#231F20" width="10" height="10"/>
	</g>
	<g>
		<rect x="106" y="169.1" fill="#231F20" width="10" height="10"/>
	</g>
	<g>
		<rect x="139.6" y="169.1" fill="#231F20" width="10" height="10"/>
	</g>
	<g>
		
			<rect x="86.3" y="99.7" transform="matrix(-0.8739 -0.4861 0.4861 -0.8739 120.1511 240.6352)" fill="#231F20" width="10" height="10"/>
	</g>
	<g>
		
			<rect x="84.9" y="150.5" transform="matrix(-0.7808 0.6247 -0.6247 -0.7808 257.2805 220.8238)" fill="#231F20" width="10" height="10"/>
	</g>
	<g>
		
			<rect x="160.4" y="149.9" transform="matrix(0.7809 0.6247 -0.6247 0.7809 132.9863 -69.4184)" fill="#231F20" width="10" height="10"/>
	</g>
	<g>
		<rect x="108.6" y="128.2" fill="#231F20" width="7.6" height="7.6"/>
	</g>
	<g>
		<rect x="142.6" y="128.2" fill="#231F20" width="7.6" height="7.6"/>
	</g>
	<g>
		<path fill="#231F20" d="M163.3,108.5c-0.9,0-1.8-0.5-2.2-1.3c-0.6-1.2-0.2-2.7,1.1-3.4l11.7-6.1c1.2-0.6,2.7-0.2,3.4,1.1
			c0.6,1.2,0.2,2.7-1.1,3.4l-11.7,6.1C164.1,108.4,163.7,108.5,163.3,108.5z"/>
	</g>
	<g>
		<path fill="#231F20" d="M194.8,134.5h-11.9c-1.4,0-2.5-1.1-2.5-2.5s1.1-2.5,2.5-2.5h11.9c1.4,0,2.5,1.1,2.5,2.5
			S196.1,134.5,194.8,134.5z"/>
	</g>
	<g>
		<path fill="#231F20" d="M176.7,165.7c-0.5,0-1-0.1-1.4-0.4l-12-8.2c-1.1-0.8-1.4-2.3-0.7-3.5c0.8-1.1,2.3-1.4,3.5-0.7l12,8.2
			c1.1,0.8,1.4,2.3,0.7,3.5C178.3,165.3,177.5,165.7,176.7,165.7z"/>
	</g>
	<g>
		<path fill="#231F20" d="M110.8,175c-1.4,0-2.5-1.1-2.5-2.5v-19.7l-15.4-12.1v-17.4l15-13.6V87c0-1.4,1.1-2.5,2.5-2.5
			s2.5,1.1,2.5,2.5V112l-15,13.6v12.7l15.4,12.1v22.1C113.3,173.9,112.2,175,110.8,175z"/>
	</g>
	<g>
		<path fill="#231F20" d="M145,178.5c-1.4,0-2.5-1.1-2.5-2.5v-25.1l15-13.6v-12.7L142,112.5V90.4c0-1.4,1.1-2.5,2.5-2.5
			s2.5,1.1,2.5,2.5v19.7l15.4,12.1v17.4l-15,13.6V176C147.5,177.4,146.4,178.5,145,178.5z"/>
	</g>
</g>
</svg>
