<svg xmlns="http://www.w3.org/2000/svg" width="263.279" height="263.279" viewBox="-1.3 -1.3 263.279 263.279"><path fill="#020202" d="M130.34-1.3C57.754-1.3-1.3 57.754-1.3 130.34c0 72.587 59.054 131.64 131.64 131.64 72.587 0 131.64-59.053 131.64-131.64C261.979 57.754 202.927-1.3 130.34-1.3zm0 255.68C61.944 254.38 6.3 198.736 6.3 130.34 6.3 61.944 61.944 6.3 130.34 6.3s124.04 55.644 124.04 124.04c0 68.396-55.645 124.04-124.04 124.04z"/><g fill="#020202"><path d="M87.821 202.258h85.038V58.422H87.821v143.836zM165.26 73.517H95.421v-7.496h69.839v7.496zM95.421 177.073h69.839v17.585H95.421v-17.585zm69.839-95.956v88.357H95.421V81.117h69.839z"/><path d="M130.163 180.161c-2.916 0-5.287 2.372-5.287 5.287s2.371 5.286 5.287 5.286c2.915 0 5.287-2.371 5.287-5.286s-2.372-5.287-5.287-5.287z"/></g></svg>