<svg xmlns="http://www.w3.org/2000/svg" width="263.279" height="263.279" viewBox="-1.3 -1.3 263.279 263.279"><g fill="#020202"><path d="M130.339-1.3C57.753-1.3-1.3 57.754-1.3 130.34c0 72.587 59.053 131.64 131.639 131.64 72.587 0 131.641-59.053 131.641-131.64C261.979 57.754 202.926-1.3 130.339-1.3zm0 255.68C61.943 254.38 6.3 198.736 6.3 130.34 6.3 61.944 61.943 6.3 130.339 6.3S254.38 61.944 254.38 130.34c0 68.396-55.645 124.04-124.041 124.04z"/><path d="M57.934 175.181h58.625v21.435h-13.418c-2.095 0-3.8 1.704-3.8 3.8s1.705 3.8 3.8 3.8h56.301c2.096 0 3.8-1.704 3.8-3.8s-1.704-3.8-3.8-3.8h-13.414v-21.435h58.626V70.799H57.934v104.382zm80.493 21.434h-14.27v-20.819h14.27v20.819zm-72.893-29.034V78.399h131.521v89.183H65.534z"/><path d="M73.788 160.163h115.011V86.282H73.788v73.881zm107.411-66.281v58.682H81.387V93.882h99.812z"/></g></svg>