<?xml version="1.0" encoding="utf-8"?>
<!-- Generator: Adobe Illustrator 18.0.0, SVG Export Plug-In . SVG Version: 6.00 Build 0)  -->
<!DOCTYPE svg PUBLIC "-//W3C//DTD SVG 1.1//EN" "http://www.w3.org/Graphics/SVG/1.1/DTD/svg11.dtd">
<svg version="1.1" id="Warstwa_1" xmlns="http://www.w3.org/2000/svg" xmlns:xlink="http://www.w3.org/1999/xlink" x="0px" y="0px"
	 viewBox="0 0 260.7 260.7" enable-background="new 0 0 260.7 260.7" xml:space="preserve">
<g id="apla">
</g>
<g id="Layer_1">
	<g>
		<g>
			<path fill="#231F20" d="M130.4,217.6l-0.3,0c-1.2-0.1-30.2-3.2-51.2-23.2c-12.4-11.8-19.3-27.1-20.5-45.3
				c-3.8-59.2-2.2-69.6-2.2-70l0.2-1.5l72.8-25.4l71.4,26.1l0,68.8c-0.1,0.6-2.1,15.6-11.7,31.9c-8.9,15.1-26.2,34-58.3,38.7
				L130.4,217.6z M61.1,81.3c-0.3,4.3-0.7,20,2.3,67.5c1.1,17,7.5,31.1,19,42c18.6,17.7,44.9,21.4,48,21.8
				c23.9-3.6,42.2-15.7,54.3-36.1c8.6-14.6,10.9-28.4,11.1-30V81.7l-66.4-24.3L61.1,81.3z"/>
		</g>
		<g>
			<path fill="#231F20" d="M83,197.2c-1.4,0-2.5-1.1-2.5-2.5v-29.7c0-10.9,6.3-19.9,14.9-21.4c0.8-0.1,1.7-0.2,2.5-0.2h4.5
				c1.4,0,2.5,1.1,2.5,2.5s-1.1,2.5-2.5,2.5H98c-0.6,0-1.1,0-1.6,0.1c-6.2,1.1-10.8,8.2-10.8,16.5v29.7
				C85.5,196.1,84.4,197.2,83,197.2z"/>
		</g>
		<g>
			<path fill="#231F20" d="M173.6,196.4c-1.4,0-2.5-1.1-2.5-2.5v-28.8c0-4.9-2.1-9.8-5.5-13c-2.9-2.7-6.6-4-10.3-3.8
				c-1.4,0.1-2.6-0.9-2.7-2.3c-0.1-1.4,0.9-2.6,2.3-2.7c5.2-0.4,10.2,1.4,14.1,5.1c4.5,4.2,7.1,10.3,7.1,16.7v28.8
				C176.1,195.2,174.9,196.4,173.6,196.4z"/>
		</g>
		<g>
			<path fill="#231F20" d="M128.3,160.6c-10.9,0-21.2-4.8-28.1-13.3c-5.3-6.5-8.3-14.7-8.3-23.1c0-20,16.3-36.4,36.4-36.4
				c20,0,36.4,16.3,36.4,36.4c0,8-2.6,15.7-7.4,22C150.3,155.3,139.7,160.6,128.3,160.6z M128.3,92.9c-17.3,0-31.4,14.1-31.4,31.4
				c0,7.2,2.5,14.3,7.1,19.9c6,7.3,14.8,11.5,24.2,11.5c9.9,0,19-4.5,24.9-12.4c4.2-5.5,6.4-12.1,6.4-19
				C159.6,106.9,145.6,92.9,128.3,92.9z"/>
		</g>
	</g>
</g>
</svg>
