<svg xmlns="http://www.w3.org/2000/svg" width="263.279" height="263.279" viewBox="-1.3 -1.3 263.279 263.279"><path d="M130.34-1.3C57.754-1.3-1.3 57.754-1.3 130.34c0 72.587 59.053 131.64 131.64 131.64 72.587 0 131.64-59.053 131.64-131.64 0-72.586-59.053-131.64-131.64-131.64zm0 255.68C61.944 254.38 6.3 198.736 6.3 130.34 6.3 61.944 61.944 6.3 130.34 6.3c68.396 0 124.04 55.644 124.04 124.04 0 68.396-55.644 124.04-124.04 124.04z"/><path d="M55.353 76.588l-.369 2.217c-.07.415-1.678 10.828 2.144 70.339 1.194 18.588 8.233 34.133 20.922 46.203 21.294 20.255 50.716 23.396 51.959 23.521l.467.046.457-.069c32.571-4.737 50.172-23.985 59.202-39.298 9.715-16.472 11.763-31.708 11.845-32.349l.032-69.875-72.691-26.537-73.968 25.802zm74.979 134.663c-3.404-.435-25.849-3.792-43.488-18.273v-27.925c0-7.683 4.187-14.225 9.735-15.218A8.176 8.176 0 0 1 98 149.71h2.597a37.526 37.526 0 0 0 27.698 12.147c10.718 0 20.668-4.439 27.795-12.269 3.118-.024 6.166 1.181 8.572 3.42 3.188 2.964 5.091 7.467 5.091 12.044v27.942c-10.558 9.76-23.738 15.891-39.421 18.257zm-2.038-56.993c-8.653 0-16.787-3.689-22.5-10.146a3.804 3.804 0 0 0-1-1.184 30.098 30.098 0 0 1-6.552-18.724c0-16.572 13.482-30.054 30.054-30.054s30.055 13.482 30.055 30.053c0 6.647-2.126 12.945-6.146 18.214-5.745 7.526-14.46 11.841-23.911 11.841zm49.059 30.506v-19.711c0-6.749-2.738-13.168-7.514-17.609-2.523-2.347-5.506-3.978-8.7-4.815 3.155-5.597 4.811-11.874 4.811-18.424 0-20.762-16.892-37.653-37.654-37.653-20.762 0-37.653 16.891-37.653 37.653a37.738 37.738 0 0 0 4.668 18.141l-.063.009c-9.273 1.656-16.003 11.203-16.003 22.699v20.556c-8.716-10.041-13.599-22.443-14.531-36.95-2.854-44.406-2.678-60.903-2.397-66.451l66.948-23.353 65.149 23.785v63.801c-.291 1.907-2.567 15.318-10.916 29.403a80.5 80.5 0 0 1-6.145 8.919z"/></svg>