<svg xmlns="http://www.w3.org/2000/svg" width="263.28" height="263.28" viewBox="-1.3 -1.3 263.28 263.28"><g fill="#020202"><path d="M130.34-1.3C57.754-1.3-1.3 57.754-1.3 130.34c0 72.587 59.053 131.641 131.64 131.641s131.64-59.054 131.64-131.641c0-72.586-59.053-131.64-131.64-131.64zm0 255.68C61.944 254.38 6.3 198.736 6.3 130.34 6.3 61.944 61.944 6.3 130.34 6.3c68.396 0 124.04 55.644 124.04 124.04 0 68.396-55.644 124.04-124.04 124.04z"/><path d="M201.105 117.386l-32.857-35.881a3.797 3.797 0 0 0-1.493-1.631l-.573-.625h-35.375a3.747 3.747 0 0 0-1.177 0H94.5l-.88.961a3.818 3.818 0 0 0-1.066 1.165l-36.133 39.457 70 82.73c.052.068.106.133.164.197l3.757 4.44 73.922-87.369-1.607-1.756a3.823 3.823 0 0 0-1.552-1.688zm-63.078-30.537h22.44l-3.443 24.454-18.997-24.454zm53.202 37.621l-49.58 58.596 20.843-58.596h28.737zm-27.315-7.6l3.521-24.999 22.894 24.999h-26.415zm-9.489 7.6l-24.129 67.836-24.129-67.836h48.258zm-45.539-7.6l21.501-27.468 21.335 27.468h-42.836zm9.995 66.023L69.452 124.47H98.1l20.781 58.423zm3.854-96.044l-19.132 24.441-3.442-24.441h22.574zM70.351 116.87L93.2 91.92l3.514 24.95H70.351zm57.202 86.025z"/></g></svg>