<?xml version="1.0" encoding="utf-8"?>
<!-- Generator: Adobe Illustrator 18.0.0, SVG Export Plug-In . SVG Version: 6.00 Build 0)  -->
<!DOCTYPE svg PUBLIC "-//W3C//DTD SVG 1.1//EN" "http://www.w3.org/Graphics/SVG/1.1/DTD/svg11.dtd">
<svg version="1.1" id="Warstwa_1" xmlns="http://www.w3.org/2000/svg" xmlns:xlink="http://www.w3.org/1999/xlink" x="0px" y="0px"
	 viewBox="0 0 140 140" enable-background="new 0 0 140 140" xml:space="preserve">
<g id="apla">
</g>
<path fill="#231F20" d="M108.2,64.4c-0.1-0.4-0.4-0.7-0.8-0.9L89.7,44.2c-0.1-0.3-0.3-0.5-0.6-0.7l-0.2-0.2H70.2
	c-0.2,0-0.4-0.1-0.7,0H51l-0.3,0.4c-0.1,0.1-0.2,0.2-0.3,0.4L31.2,64.9L70,110.7l38.7-45.8L108.2,64.4z M50.6,47.8l2.2,15.7H36.2
	L50.6,47.8z M84,66.2l-14,39.2L56,66.2H84z M57.1,63.5l13-16.6l12.9,16.6H57.1z M72.7,46h14.3l-2.2,15.5L72.7,46z M55.2,61.6L53,46
	h14.4L55.2,61.6z M53.2,66.2l12.6,35.5l-30-35.5H53.2z M86.8,66.2h17.3l-30,35.5L86.8,66.2z M87.2,63.5l2.2-15.7l14.4,15.7H87.2z"/>
</svg>
